<?xml version="1.0" encoding="UTF-8" standalone="no"?>
<!-- Created with Inkscape (http://www.inkscape.org/) -->

<svg
   width="210mm"
   height="630mm"
   viewBox="0 0 210 630"
   version="1.1"
   id="svg1"
   inkscape:version="1.4.2 (ebf0e940, 2025-05-08)"
   sodipodi:docname="running-thread.svg"
   xmlns:inkscape="http://www.inkscape.org/namespaces/inkscape"
   xmlns:sodipodi="http://sodipodi.sourceforge.net/DTD/sodipodi-0.dtd"
   xmlns="http://www.w3.org/2000/svg"
   xmlns:svg="http://www.w3.org/2000/svg">
  <sodipodi:namedview
     id="namedview1"
     pagecolor="#ffffff"
     bordercolor="#000000"
     borderopacity="0.25"
     inkscape:showpageshadow="2"
     inkscape:pageopacity="0.0"
     inkscape:pagecheckerboard="0"
     inkscape:deskcolor="#d1d1d1"
     inkscape:document-units="mm"
     inkscape:zoom="0.32"
     inkscape:cx="360.9375"
     inkscape:cy="639.0625"
     inkscape:window-width="1904"
     inkscape:window-height="966"
     inkscape:window-x="4"
     inkscape:window-y="25"
     inkscape:window-maximized="0"
     inkscape:current-layer="layer1" />
  <defs
     id="defs1" />
  <g
     inkscape:label="Layer 1"
     inkscape:groupmode="layer"
     id="layer1"
     transform="translate(0,333)">
    <path
       style="fill:none;fill-opacity:1;stroke:#e1d173;stroke-width:2;stroke-linecap:round;stroke-linejoin:round;stroke-dasharray:none;stroke-opacity:1"
       d="m -30.592448,-312.36851 c 9.527042,2.97885 22.4650146,9.28963 33.8997396,10.7487 20.5335524,7.6669 43.0107584,8.10018 64.0130184,14.60445 4.102861,-0.55255 28.937268,6.08418 40.51365,13.17929 16.60721,11.43923 35.87784,22.64263 46.03614,40.27918 10.24425,19.22099 15.43557,42.52427 9.57195,63.9666 -5.24677,13.90636 -12.64321,27.53712 -23.70898,34.98871 -6.9371,4.91996 -17.50454,10.50103 -26.45833,15.70963 -10.75114,5.65401 -18.943038,13.90127 -25.631512,23.151042 -4.537063,8.13021 -8.840609,12.930752 -12.402344,23.151042 -5.584481,18.977687 -15.196419,36.497938 -21.497395,55.397137 -1.289178,18.0633668 -3.862646,37.038189 1.3323,54.963818 3.907344,19.580166 9.883474,35.750875 18.51145,51.696337 8.830617,14.890474 19.85991,29.708124 28.929081,43.945834 11.37193,7.03212 23.87701,18.59301 36.68907,25.93521 17.46732,10.87735 35.8236,17.70203 55.09799,24.37677 22.27583,11.98448 48.30429,13.3413 72.76042,19.01692 19.94334,4.99794 38.55142,10.24656 57.73018,14.38733 3.90795,1.26673 7.72942,2.80691 11.72294,3.80278"
       id="path116" />
    <g
       id="g116"
       transform="translate(53.551474,-21.881427)">
      <g
         id="g49"
         transform="matrix(0.64352215,0,0,0.71817702,34.063257,4.7717224)"
         style="stroke-width:1.47097">
        <path
           style="fill:#ffffff;fill-opacity:1;stroke:none;stroke-width:1.76516;stroke-dasharray:none;stroke-opacity:1"
           d="m 11.705825,-183.19129 21.10835,-0.53638 17.416753,-1.5145 0.252415,2.9659 0.946563,8.70837 2.965897,11.10634 2.082438,4.73281 2.713479,4.5435 2.965897,3.91246 -0.378624,0.56794 -3.092106,1.00967 -10.096669,2.27175 -5.931792,0.82035 -6.184209,1.00967 -3.407627,0.0631 -3.596939,-0.31552 -1.893125,-1.19898 -2.524166,-0.94656 -5.490064,-3.09211 -1.135875,-0.82035 -1.19898,-1.4514 -1.956229,-5.30075 -2.208647,-7.76181 -0.820354,-4.85902 -0.567938,-7.88803 z"
           id="path44" />
        <path
           style="fill:#717171;fill-opacity:1;stroke:#717171;stroke-width:0.588386;stroke-dasharray:none;stroke-opacity:1"
           d="m 32.035425,-142.93496 c -0.58208,-0.13117 -1.25677,-0.24407 -1.4993,-0.25089 -0.24254,-0.007 -0.65391,-0.12351 -0.91416,-0.25929 -0.26026,-0.13577 -0.71118,-0.29914 -1.00205,-0.36302 -0.29087,-0.0639 -0.62344,-0.23012 -0.73904,-0.36941 -0.11559,-0.13928 -0.30409,-0.25324 -0.41889,-0.25324 -0.11479,0 -0.47768,-0.19844 -0.80642,-0.44097 -0.32874,-0.24254 -0.73131,-0.44098 -0.89461,-0.44098 -0.1633,0 -0.38884,-0.11076 -0.50119,-0.24613 -0.11235,-0.13537 -0.48342,-0.2985 -0.82461,-0.36251 -0.3412,-0.064 -0.6632,-0.22804 -0.71557,-0.36451 -0.0524,-0.13648 -0.26648,-0.29783 -0.4758,-0.35856 -0.20932,-0.0607 -1.18838,-0.50558 -2.17569,-0.98855 -1.48777,-0.72778 -1.9936,-1.08761 -2.95451,-2.10176 -0.63767,-0.673 -1.15941,-1.33271 -1.15941,-1.46602 0,-0.1333 -0.11396,-0.33695 -0.25324,-0.45255 -0.13929,-0.11559 -0.3072,-0.46266 -0.37315,-0.77125 -0.0659,-0.30859 -0.22871,-0.75951 -0.36171,-1.00205 -0.31852,-0.58083 -0.74823,-1.80406 -1.04123,-2.96403 -0.12998,-0.51456 -0.31085,-1.03049 -0.40194,-1.14653 -0.0911,-0.11603 -0.21066,-0.50456 -0.26573,-0.86341 -0.0551,-0.35884 -0.21728,-0.91447 -0.36048,-1.23472 -0.14321,-0.32025 -0.3081,-0.974 -0.36643,-1.45276 -0.0583,-0.47877 -0.22463,-1.05145 -0.36955,-1.27262 -0.14491,-0.22117 -0.26348,-0.70999 -0.26348,-1.08627 0,-0.37628 -0.14653,-1.11329 -0.32561,-1.6378 -0.17909,-0.52452 -0.37837,-1.77405 -0.44285,-2.77675 -0.0645,-1.00269 -0.20734,-1.99144 -0.31747,-2.19722 -0.1953,-0.36493 -0.57708,-12.95037 -0.39943,-13.12802 0.188,-0.188 0.579663,0.1137 0.61956,2.01436 0.0099,0.47172 0.14395,2.84552 0.14973,5.28881 0.006,2.72557 0.084,4.63423 0.2007,4.93889 0.10461,0.2731 0.25754,1.38221 0.33985,2.46468 0.0823,1.08247 0.26358,2.19372 0.4028,2.46945 0.13923,0.27572 0.29734,0.95064 0.35134,1.49982 0.054,0.54918 0.21442,1.18418 0.35646,1.41111 0.14205,0.22693 0.30045,0.84916 0.35202,1.38274 0.0516,0.53357 0.21913,1.20826 0.37237,1.4993 0.15325,0.29104 0.27912,0.70482 0.27972,0.91951 6e-4,0.21469 0.15984,0.7931 0.35386,1.28535 0.19403,0.49226 0.35548,1.03098 0.35877,1.19716 0.003,0.16618 0.15935,0.61965 0.34679,1.00771 0.18744,0.38805 0.3435,0.84881 0.34679,1.02391 0.005,0.27561 0.13281,0.61433 0.77727,2.06289 0.0647,0.14552 0.31073,0.58208 0.54664,0.97014 0.23591,0.38805 0.51749,0.8643 0.62575,1.05833 0.10825,0.19403 0.54387,0.61635 0.96803,0.93849 0.99815,0.75805 3.07085,1.16958 4.52061,0.89755 0.52039,-0.0977 1.39192,-0.22213 1.93674,-0.27663 0.89584,-0.0896 1.01815,-0.0597 1.27882,0.31243 0.15853,0.22634 0.28824,0.59456 0.28824,0.81827 0,0.65684 0.98316,2.41458 1.61854,2.8937 0.32248,0.24317 1.06019,0.66454 1.63937,0.93637 1.04788,0.49182 1.06693,0.49381 3.88056,0.4061 2.05736,-0.0641 3.01353,-0.16663 3.5105,-0.37631 0.39138,-0.16513 1.18216,-0.29115 1.85208,-0.29516 0.643,-0.004 1.7644,-0.12272 2.492,-0.26416 0.72761,-0.14143 1.87854,-0.33252 2.55764,-0.42463 0.6791,-0.0921 1.6316,-0.28989 2.11667,-0.4395 0.48507,-0.1496 1.14403,-0.27286 1.46435,-0.27391 0.32033,-0.001 1.43158,-0.16655 2.46945,-0.36777 2.03394,-0.39434 9.492763,-2.1961 10.192268,-2.46205 0.640747,-0.24361 0.554383,-0.90545 -0.210301,-1.61158 -0.528125,-0.48769 -1.659836,-2.08513 -2.665628,-3.7626 -0.750392,-1.25151 -1.532124,-2.67559 -1.999342,-3.64219 -0.297831,-0.61617 -0.69532,-1.41384 -0.883308,-1.77261 -0.187988,-0.35877 -0.341797,-0.77578 -0.341797,-0.92668 0,-0.15091 -0.15875,-0.57057 -0.352777,-0.93258 -0.194028,-0.36202 -0.355472,-0.77845 -0.358763,-0.92541 -0.0033,-0.14695 -0.159349,-0.58469 -0.346793,-0.97275 -0.187444,-0.38805 -0.343501,-0.83579 -0.346793,-0.99497 -0.0033,-0.15918 -0.162992,-0.63543 -0.354886,-1.05833 -0.1919,-0.42291 -0.35065,-0.99114 -0.35278,-1.26275 -0.002,-0.2716 -0.11412,-0.70817 -0.24886,-0.97014 -0.13475,-0.26197 -0.32896,-1.0187 -0.43158,-1.68163 -0.10262,-0.66293 -0.26254,-1.29793 -0.35537,-1.41111 -0.0928,-0.11319 -0.22078,-0.68204 -0.28433,-1.26412 -0.0636,-0.58209 -0.22328,-1.37584 -0.35495,-1.76389 -0.13168,-0.38806 -0.29183,-1.51488 -0.3559,-2.50406 -0.0641,-0.98918 -0.22854,-2.21949 -0.3655,-2.73403 -0.15141,-0.56881 -0.24985,-1.81215 -0.25112,-3.17188 -0.002,-1.82943 -0.0544,-2.28864 -0.28942,-2.52369 -0.16619,-0.16619 -0.40788,-0.23795 -0.57327,-0.17021 -0.15726,0.0644 -1.19875,0.15313 -2.31441,0.19715 -1.11566,0.044 -3.02066,0.24116 -4.23333,0.43808 -2.12827,0.34559 -2.2242,0.38006 -2.7616,0.99238 -0.54738,0.62369 -0.56863,0.6308 -1.26355,0.4226 -0.65678,-0.19678 -0.79927,-0.16963 -2.01307,0.38351 -1.01682,0.46338 -1.39149,0.73974 -1.69091,1.24723 l -0.38466,0.65195 -0.52922,-0.31262 c -0.29107,-0.17194 -0.52921,-0.37616 -0.52921,-0.45382 0,-0.0777 -0.2703,-0.27011 -0.60066,-0.42765 -0.57186,-0.2727 -0.62996,-0.26833 -1.21145,0.091 -0.64997,0.4017 -1.61781,0.50214 -1.81193,0.18803 -0.16578,-0.26822 0.6145,-1.04474 1.05305,-1.04797 0.49134,-0.004 0.86681,-0.25915 0.77694,-0.52875 -0.0572,-0.17171 -2.21533,-0.21722 -9.91636,-0.20911 -5.41376,0.006 -9.88843,0.0556 -9.94371,0.11088 -0.2459,0.2459 -0.57088,0.0644 -0.57088,-0.31886 0,-0.65453 0.39975,-0.86889 1.36279,-0.73077 0.46314,0.0664 3.85832,0.15737 7.54485,0.20211 7.88685,0.0957 11.55891,-0.13994 12.45031,-0.79898 0.46311,-0.34239 0.59043,-0.361 1.20676,-0.17634 0.93548,0.28028 2.58588,-0.2044 3.47775,-1.02133 0.86274,-0.79023 1.30979,-0.76006 1.80544,0.12185 0.21826,0.38833 0.57422,0.74962 0.79258,0.80442 0.4949,0.12421 6.23791,-0.23216 7.43104,-0.46113 0.48507,-0.0931 1.36097,-0.21776 1.94645,-0.27706 1.0271,-0.10404 1.07203,-0.0913 1.27882,0.36255 0.11883,0.26081 0.21432,1.19753 0.21432,2.10249 0,1.00407 0.0788,1.71095 0.20485,1.83697 0.13134,0.13134 0.24402,1.33916 0.31401,3.36597 0.0745,2.15683 0.18047,3.24706 0.33364,3.43162 0.12346,0.14876 0.29436,0.93198 0.37977,1.74048 0.0854,0.8085 0.27966,1.81732 0.43165,2.24182 0.152,0.42451 0.27636,1.00277 0.27636,1.28503 0,0.28226 0.11015,0.689 0.24478,0.90386 0.13463,0.21487 0.299255,0.70817 0.365827,1.09623 0.06657,0.38805 0.222257,0.8643 0.345965,1.05833 0.123708,0.19403 0.282458,0.67028 0.352778,1.05833 0.07032,0.38806 0.235271,0.87255 0.366558,1.07665 0.131287,0.2041 0.296141,0.68034 0.36634,1.05833 0.0702,0.37799 0.226933,0.846 0.348294,1.04002 0.121362,0.19403 0.273239,0.60527 0.337505,0.91386 0.06427,0.30859 0.230807,0.65565 0.370092,0.77125 0.139285,0.11559 0.253245,0.36824 0.253245,0.56143 0,0.37311 0.180769,0.73648 1.822016,3.66249 1.14142,2.03492 1.898691,3.23135 2.102637,3.32199 0.07276,0.0323 0.132292,0.15526 0.132292,0.27315 0,0.11789 0.438615,0.64706 0.974701,1.17593 0.536086,0.52886 1.146185,1.23299 1.355774,1.56472 l 0.381073,0.60315 -0.629065,0.54338 c -0.596555,0.51529 -1.039888,0.68095 -3.317205,1.2395 -0.533577,0.13086 -1.265246,0.36512 -1.625932,0.52056 -0.360686,0.15544 -0.940097,0.28262 -1.287579,0.28262 -0.347482,0 -0.864601,0.12039 -1.149153,0.26754 -0.284552,0.14715 -0.895767,0.31575 -1.358255,0.37466 -0.462488,0.0589 -1.294788,0.25602 -1.849558,0.43801 -0.55477,0.182 -1.45024,0.3309 -1.98994,0.3309 -0.5397,0 -1.47486,0.16657 -2.07813,0.37016 -0.74726,0.25217 -1.34986,0.34173 -1.89062,0.28098 -0.49652,-0.0558 -1.02493,0.009 -1.41111,0.17305 -0.33955,0.14423 -1.49049,0.32663 -2.55764,0.40534 -1.06715,0.0787 -2.15824,0.22906 -2.42464,0.3341 -0.26641,0.10505 -1.41734,0.26932 -2.55764,0.36506 -1.1403,0.0957 -2.35056,0.25657 -2.68947,0.35741 -0.7288,0.21685 -0.68291,0.21877 -2.02964,-0.0847 z m -5.41442,-3.05826 c 0.18413,-0.11679 0.18902,-0.30874 0.0245,-0.9621 -0.11304,-0.44892 -0.31534,-0.90735 -0.44956,-1.01875 -0.34522,-0.28651 -2.89177,-0.042 -2.89177,0.27769 0,0.24301 0.77551,0.76805 2.11667,1.43306 0.93416,0.46319 0.90579,0.45681 1.20016,0.2701 z"
           id="path43"
           sodipodi:nodetypes="scsssssssssssssssssssssssssssscssssssssscscsssssssssssscsssssssssssssssscssssssscsssssssscssssscscsssssssssssssssssssssssssssssssssscsssssssssssssssssssssss" />
      </g>
      <path
         style="fill:none;fill-opacity:1;stroke:#aaaaaa;stroke-width:0.7;stroke-linecap:round;stroke-linejoin:round;stroke-dasharray:none;stroke-opacity:1"
         d="m 44.872048,-120.44162 c 0.345972,-0.0119 0.535678,-0.37747 0.803897,-0.51157 0.16147,-0.0807 0.295859,0.2312 0.438488,0.29232 0.185399,0.0795 0.595921,0.1028 0.803897,0.0731 0.197813,0.12421 0.188973,-0.11171 0.292328,-0.14616 0.08042,-0.0268 0.392909,-0.0434 0.511569,-0.0731 0.15014,-0.0375 0.211889,0.0859 0.365408,0.0731 0.268142,-0.0224 0.537086,-0.0383 0.803897,-0.0731 0.9697,-0.12648 0.797393,-0.14466 1.753954,-0.36541 0.122246,-0.0282 0.179457,0.0355 0.292328,0.0731 0.124513,0.0415 0.322101,-0.0582 0.438489,0 0.03081,0.0154 0.04227,0.0577 0.07308,0.0731 0.232889,0.11645 1.309209,-0.15242 1.315469,-0.14616 0.151206,0.15121 -0.231066,-0.006 0.07308,0.14616 0.257273,0.12864 0.756031,0.10277 1.023141,0.0731 0.323022,-0.0359 0.648296,-0.0985 0.950061,-0.21925 0.20715,-0.0829 0.421873,-0.23991 0.657733,-0.29232 0.670155,-0.14893 1.371153,-0.23039 2.046282,-0.36541 0.107461,-0.0215 0.206809,0.1034 0.292328,0.14616 0.111101,0.0556 0.243604,-0.0487 0.365405,-0.0731 0.23458,-0.0469 0.600337,0.0107 0.803897,0 0.652478,-0.0343 1.197986,-0.16652 1.827038,-0.29233 0.177252,-0.0354 0.280008,0.10655 0.438488,0.14617 0.187275,0.0468 0.161068,-0.0293 0.292328,-0.0731 0.174524,-0.0582 0.17208,0.033 0.292325,0.0731 0.110299,0.0368 0.317899,0 0.438488,0"
         id="path96" />
      <path
         style="fill:none;fill-opacity:1;stroke:#aaaaaa;stroke-width:0.7;stroke-linecap:round;stroke-linejoin:round;stroke-dasharray:none;stroke-opacity:1"
         d="m 47.356819,-115.91057 c 0.360846,-0.10067 0.738253,-0.14765 1.096224,-0.21925 0.106828,-0.0213 0.188973,-0.11171 0.292325,-0.14616 0.102264,-0.0341 1.206349,-0.0671 1.242385,-0.0731 0.396299,-0.0661 0.790948,-0.1572 1.169305,-0.29232 0.153895,-0.055 0.285478,-0.16187 0.438489,-0.21925 0.04562,-0.0171 0.102587,0.0218 0.146164,0 0.0218,-0.0109 -0.01723,-0.0558 0,-0.0731 0.05536,-0.0554 0.301802,0.0731 0.365408,0.0731 0.736732,0 1.00135,-0.0576 1.753954,-0.14616 0.286888,-0.0338 0.66262,0 0.950061,0 0.730813,0 1.46163,0 2.192446,0 0.232876,0 0.698098,0.063 0.950058,0 0.10569,-0.0264 0.184224,-0.13265 0.292327,-0.14617 0.145034,-0.0181 0.294026,0.0222 0.438489,0 0.175284,-0.027 0.337666,-0.11138 0.511569,-0.14616 0.09555,-0.0191 0.205171,0.0436 0.292328,0 0.03081,-0.0154 0.0404,-0.0622 0.07308,-0.0731 0.08947,-0.0298 0.20092,0.0229 0.292328,0 0.156982,-0.0392 0.523512,-0.079 0.657733,-0.14616 0.06163,-0.0308 0.08453,-0.11535 0.146164,-0.14617 0.14243,-0.0712 0.403193,0.0189 0.511569,0.0731 0.118083,0.059 0.250491,-0.0731 0.365408,-0.0731"
         id="path97" />
      <path
         style="fill:none;fill-opacity:1;stroke:#757575;stroke-width:0.7;stroke-linecap:round;stroke-linejoin:round;stroke-dasharray:none;stroke-opacity:1"
         d="m 47.722227,-111.89109 c 1.149231,-0.38307 0.295563,-0.13651 1.973201,-0.43849 2.373649,-0.42725 2.143419,-0.48414 4.457973,-0.65773 0.267213,-0.02 0.535929,0 0.803897,0 0.02437,0 0.05586,-0.0172 0.07308,0 0.01723,0.0172 -0.0218,0.0622 0,0.0731 0.04358,0.0218 0.0989,-0.0118 0.146164,0 0.541078,0.13527 -0.621324,0.0752 0.584652,0.14617 0.886,0.0521 1.823284,0.0305 2.704016,-0.0731 0.199506,-0.0235 0.398137,-0.0716 0.584652,-0.14616 0.03199,-0.0128 0.03966,-0.0647 0.07308,-0.0731 0.0709,-0.0177 0.147582,0.0143 0.219244,0 0.336579,-0.0673 0.674267,-0.22255 1.023141,-0.29233 0.02389,-0.005 0.04872,0 0.07308,0 0.04872,0 0.09839,0.01 0.146163,0 0.02543,-0.005 0.32979,-0.11054 0.365408,-0.14616 0.01722,-0.0172 -0.01722,-0.0559 0,-0.0731 0.152686,-0.15269 1.158352,-0.14616 1.38855,-0.14616"
         id="path98" />
      <path
         style="fill:none;fill-opacity:1;stroke:#aaaaaa;stroke-width:0.7;stroke-linecap:round;stroke-linejoin:round;stroke-dasharray:none;stroke-opacity:1"
         d="m 48.37996,-107.72544 c 0.292328,-0.0974 0.58846,-0.18414 0.876978,-0.29233 0.275002,-0.10313 0.48809,-0.31713 0.730816,-0.43849 0.441349,-0.22067 1.453327,0.0812 1.900118,0 0.348975,-0.0634 0.674524,-0.22696 1.023141,-0.29233 1.407578,-0.26392 2.830063,-0.44908 4.238728,-0.73081 0.331201,-0.0662 0.580478,0.0473 0.87698,0.14616 0.206518,0.0688 0.998596,0.0853 1.169303,0 0.240038,-0.12002 0.03524,-0.18901 0.292327,-0.14616 1.518253,0.25304 2.530044,0.45867 4.092565,0.14616 0.161713,-0.0323 0.439163,0.0727 0.584652,0 0.213167,-0.10658 0.23382,-0.23382 0.292325,-0.29232 0.03445,-0.0345 0.111712,0.0344 0.146164,0 0.03445,-0.0345 -0.03445,-0.11172 0,-0.14617 0.03445,-0.0345 0.09744,0 0.146163,0 0.04872,-0.0487 0.09744,-0.0974 0.146161,-0.14616"
         id="path99" />
      <path
         style="fill:none;fill-opacity:1;stroke:#aaaaaa;stroke-width:0.7;stroke-linecap:round;stroke-linejoin:round;stroke-dasharray:none;stroke-opacity:1"
         d="m 49.84159,-103.34055 c 0.292328,-0.0974 0.58846,-0.18414 0.876978,-0.29233 0.275002,-0.10313 0.48809,-0.31713 0.730816,-0.43849 0.441349,-0.22067 1.453327,0.0812 1.900118,0 0.348975,-0.0634 0.674524,-0.22696 1.023141,-0.29233 1.407578,-0.26392 2.830063,-0.44908 4.238728,-0.73081 0.331201,-0.0662 0.580478,0.0473 0.87698,0.14616 0.206518,0.0688 0.998596,0.0853 1.169303,0 0.240038,-0.12002 0.03524,-0.18901 0.292327,-0.14616 1.518253,0.25304 2.530044,0.45867 4.092565,0.14616 0.161713,-0.0323 0.439163,0.0727 0.584652,0 0.213167,-0.10658 0.23382,-0.23382 0.292325,-0.29232 0.03445,-0.0345 0.111712,0.0344 0.146164,0 0.03445,-0.0345 -0.03445,-0.11172 0,-0.14617 0.03445,-0.0345 0.09744,0 0.146163,0 0.04872,-0.0487 0.09744,-0.0974 0.146161,-0.14616"
         id="path100" />
      <path
         style="fill:none;fill-opacity:1;stroke:#aaaaaa;stroke-width:0.7;stroke-linecap:round;stroke-linejoin:round;stroke-dasharray:none;stroke-opacity:1"
         d="m 47.722227,-111.89109 c 1.149231,-0.38307 0.295563,-0.13651 1.973201,-0.43849 2.373649,-0.42725 2.143419,-0.48414 4.457973,-0.65773 0.267213,-0.02 0.535929,0 0.803897,0 0.02437,0 0.05586,-0.0172 0.07308,0 0.01723,0.0172 -0.0218,0.0622 0,0.0731 0.04358,0.0218 0.0989,-0.0118 0.146164,0 0.541078,0.13527 -0.621324,0.0752 0.584652,0.14617 0.886,0.0521 1.823284,0.0305 2.704016,-0.0731 0.199506,-0.0235 0.398137,-0.0716 0.584652,-0.14616 0.03199,-0.0128 0.03966,-0.0647 0.07308,-0.0731 0.0709,-0.0177 0.147582,0.0143 0.219244,0 0.336579,-0.0673 0.674267,-0.22255 1.023141,-0.29233 0.02389,-0.005 0.04872,0 0.07308,0 0.04872,0 0.09839,0.01 0.146163,0 0.02543,-0.005 0.32979,-0.11054 0.365408,-0.14616 0.01722,-0.0172 -0.01722,-0.0559 0,-0.0731 0.152686,-0.15269 1.158352,-0.14616 1.38855,-0.14616"
         id="path102" />
    </g>
    <g
       id="g48"
       transform="matrix(0.72216786,0,0,0.74226721,176.91151,2.0379614)"
       style="stroke-width:1.36584">
      <path
         style="fill:#ffffff;fill-opacity:1;stroke:none;stroke-width:1.63901;stroke-dasharray:none;stroke-opacity:1"
         d="m -49.262019,-157.06733 c 0.446215,0 14.10036,-0.26773 14.10036,-0.26773 l -0.178485,7.13943 -0.356971,4.90835 -0.803185,5.80078 -0.98167,5.44381 -1.874099,6.06851 -2.23107,6.33624 -2.141826,1.78485 -4.908354,3.03426 -7.496395,3.30198 -4.015925,0.35697 -15.439003,-2.32031 -14.457331,-3.21274 -0.535456,-1.16016 2.85577,-4.19441 3.21274,-4.81911 2.320311,-5.71154 1.784856,-5.71154 1.070914,-4.46213 1.070914,-7.4964 0.356971,-7.05018 6.871694,1.07091 6.336237,0.17849 z"
         id="path46" />
      <path
         id="path40"
         style="fill:#717171;fill-opacity:1;stroke:#717171;stroke-width:0.546337;stroke-dasharray:none;stroke-opacity:1"
         d="m -63.935116,-161.82337 c -0.251049,0 -0.534477,0.13001 -0.766361,0.39016 -0.473339,0.53104 -1.034244,1.53474 -1.178223,2.1084 -0.186956,0.74494 -0.961484,0.90282 -3.233911,0.65991 -1.050741,-0.11232 -1.977032,-0.24443 -2.058272,-0.29353 -0.08124,-0.0491 -1.252909,-0.15406 -2.603976,-0.23306 -1.351066,-0.079 -2.736478,-0.23598 -3.078365,-0.34881 -0.516803,-0.17055 -0.694705,-0.15698 -1.055749,0.0796 -0.422513,0.27684 -0.434471,0.34542 -0.447001,2.52956 -0.0071,1.23469 -0.08509,2.68121 -0.173116,3.21479 -0.08803,0.53357 -0.241937,2.12124 -0.342098,3.52795 -0.100162,1.4067 -0.292815,2.87531 -0.428398,3.26337 -0.135583,0.38806 -0.299522,1.21791 -0.363802,1.84433 -0.06429,0.62642 -0.218077,1.38162 -0.342098,1.67845 -0.12402,0.29682 -0.282987,0.93557 -0.353467,1.41903 -0.07048,0.48346 -0.228761,1.03742 -0.3514,1.23145 -0.122638,0.19403 -0.274587,0.73522 -0.337447,1.20251 -0.06286,0.46729 -0.233848,1.02076 -0.380338,1.2299 -0.14649,0.20915 -0.266651,0.5424 -0.266651,0.74053 0,0.19813 -0.158405,0.65653 -0.352433,1.01854 -0.194028,0.36201 -0.35295,0.8203 -0.35295,1.01854 0,0.19824 -0.158922,0.6718 -0.35295,1.05213 -0.194027,0.38032 -0.352433,0.81403 -0.352433,0.96377 0,0.14973 -0.158922,0.56817 -0.35295,0.93018 -0.194028,0.36202 -0.35295,0.74257 -0.35295,0.84542 0,0.24008 -1.587019,3.49378 -1.761133,3.61063 -0.07228,0.0485 -0.181146,0.24745 -0.241846,0.44235 -0.0607,0.1949 -0.388721,0.77706 -0.729154,1.29398 -0.340433,0.51693 -0.619084,1.00034 -0.619084,1.07384 0,0.0735 -0.158923,0.27709 -0.35295,0.45268 -0.194028,0.17559 -0.352433,0.40231 -0.352433,0.50333 0,0.35991 -0.973391,1.63262 -2.178162,2.84841 -0.950258,0.95895 -1.224432,1.35065 -1.227832,1.7539 -0.0027,0.31553 0.119649,0.59214 0.311609,0.70538 0.173731,0.10249 0.587509,0.36515 0.919324,0.58343 0.331815,0.21828 0.858565,0.39687 1.170988,0.39687 0.312424,0 0.864267,0.1584 1.226281,0.35243 0.362014,0.19403 0.916836,0.35457 1.232483,0.35657 0.315647,0.002 0.919651,0.16105 1.342554,0.35295 0.422903,0.1919 1.035278,0.34882 1.360641,0.34882 0.325363,0 0.993962,0.15892 1.486214,0.35295 0.492252,0.19403 1.190082,0.35338 1.550293,0.35398 0.36021,5.9e-4 0.892865,0.12793 1.183907,0.28319 0.297175,0.15854 1.240097,0.33861 2.150773,0.41031 0.89188,0.0702 1.736363,0.22289 1.876888,0.33951 0.140524,0.11663 1.04853,0.28064 2.017448,0.36484 0.968919,0.0842 1.910373,0.23001 2.091862,0.32401 0.181489,0.094 1.116512,0.22687 2.077909,0.29507 0.961397,0.0682 2.032959,0.23048 2.38125,0.3607 0.34829,0.13022 1.387271,0.28118 2.308903,0.33538 0.921632,0.0542 2.032537,0.21387 2.4691,0.35502 v -5.2e-4 c 1.573705,0.50882 6.585447,0.11287 7.761283,-0.6134 0.14552,-0.0899 0.462849,-0.24281 0.705384,-0.33951 0.242535,-0.0967 0.560379,-0.25705 0.7059,-0.35605 0.14552,-0.099 0.502708,-0.29836 0.79375,-0.44338 0.291041,-0.14502 0.648229,-0.32873 0.79375,-0.40773 1.058073,-0.57451 1.774989,-0.90899 1.947168,-0.90899 0.110999,0 0.40394,-0.15892 0.650606,-0.35295 0.246667,-0.19403 0.586444,-0.35295 0.75551,-0.35295 0.169066,0 0.399228,-0.11018 0.511079,-0.24495 0.111851,-0.13477 0.971655,-0.63068 1.910995,-1.10225 1.974892,-0.99143 3.92595,-2.76957 4.580082,-4.17443 0.214143,-0.45991 0.55139,-1.1717 0.749825,-1.58181 0.198436,-0.41011 0.360454,-0.8659 0.360185,-1.01286 -2.7e-4,-0.14696 0.158405,-0.56352 0.352433,-0.92553 0.194027,-0.36201 0.35295,-0.8203 0.35295,-1.01854 0,-0.19825 0.158405,-0.6718 0.352433,-1.05213 0.194028,-0.38032 0.35295,-0.89592 0.35295,-1.14618 0,-0.25027 0.158922,-0.76638 0.35295,-1.1467 0.194028,-0.38033 0.352434,-0.9244 0.352434,-1.20871 0,-0.28432 0.157435,-0.86281 0.349332,-1.28571 0.191898,-0.4229 0.350334,-1.03072 0.352434,-1.35083 0.0021,-0.32011 0.117658,-0.80156 0.256315,-1.0697 0.138657,-0.26813 0.303219,-0.99822 0.365869,-1.62264 0.06265,-0.62443 0.220829,-1.53238 0.3514,-2.01745 0.13057,-0.48507 0.327785,-1.8559 0.438216,-3.04632 0.110431,-1.19042 0.268666,-2.38105 0.351916,-2.64584 0.08325,-0.26479 0.199219,-3.3893 0.257349,-6.94376 l 0.10542,-6.46265 -0.577226,-0.0677 c -0.317572,-0.037 -1.648428,0.008 -2.957442,0.0997 -2.91757,0.20518 -11.859631,0.20136 -16.067236,-0.006 -3.270166,-0.16132 -3.5606,-0.24176 -3.761528,-1.04232 -0.09969,-0.39714 -0.194142,-0.43415 -1.119828,-0.43615 -0.555982,-0.001 -1.209056,-0.1169 -1.451591,-0.25683 -0.242535,-0.13992 -0.639582,-0.34223 -0.882117,-0.44958 -0.59061,-0.26142 -1.410567,-1.05022 -1.600936,-1.53996 -0.101124,-0.26015 -0.319458,-0.39016 -0.570508,-0.39016 z m -12.966133,3.2489 c 0.723959,-0.031 2.116801,0.13345 3.49591,0.43563 0.436563,0.0957 1.638617,0.17739 2.671155,0.18139 1.032537,0.004 3.009518,0.12735 4.393014,0.27336 2.352663,0.24828 2.573554,0.30396 3.414262,0.86248 1.112832,0.7393 1.466801,1.12814 1.544091,1.69447 0.08092,0.59296 0.857296,0.69054 1.496033,0.18811 0.259973,-0.20449 0.724391,-0.36484 1.0573,-0.36484 0.305357,0 0.726226,0.13001 0.998389,0.21704 0.05504,0.27754 0.275163,0.45348 0.829923,0.67748 1.038162,0.41918 1.187434,0.4144 1.332735,-0.0434 0.09543,-0.30067 -0.0071,-0.48959 -0.473356,-0.8723 -0.592946,-0.48673 -1.078146,-0.68405 -1.37821,-0.60099 -0.09747,-0.22016 -0.363286,-0.59585 -0.363286,-0.69454 0,-0.50563 0.593824,-0.61958 1.69137,-0.32504 1.376449,0.36938 15.639169,0.55069 17.929138,0.22789 0.801902,-0.11304 1.696434,-0.21817 1.987476,-0.23357 l 0.529166,-0.0279 0.04599,3.96875 c 0.02526,2.18282 -0.02991,4.84153 -0.122474,5.90868 -0.259948,2.99709 -0.536575,5.38106 -0.736906,6.35 -0.100289,0.48507 -0.260483,1.51729 -0.355533,2.2934 -0.09505,0.77611 -0.257198,1.6489 -0.360702,1.93994 -0.103503,0.29105 -0.288727,0.97902 -0.411861,1.52859 -0.123135,0.54957 -0.272886,1.07873 -0.332796,1.17563 -0.05991,0.0969 -0.219116,0.71864 -0.353467,1.38183 -0.13435,0.66318 -0.323723,1.44374 -0.421163,1.73478 -0.09744,0.29104 -0.310452,0.92621 -0.473356,1.41128 -0.162903,0.48507 -0.37994,1.23931 -0.482141,1.67587 -0.102201,0.43656 -0.294754,0.95017 -0.427881,1.14153 -0.133127,0.19136 -0.242363,0.5002 -0.242363,0.68627 0,0.18606 -0.14929,0.6643 -0.332279,1.06298 -0.182988,0.39868 -0.419109,0.92328 -0.524516,1.16582 -0.932695,2.14608 -1.738073,3.12593 -3.111955,3.78685 -1.033875,0.49735 -4.804039,0.6051 -6.167582,0.17622 -1.102375,-0.34674 -1.505334,-0.19477 -1.505334,0.56792 0,0.57813 -0.652312,2.08068 -1.320333,3.04116 -0.397946,0.57216 -0.895566,0.96647 -1.860352,1.47381 -1.279268,0.67276 -1.375357,0.69452 -3.345532,0.74982 -2.279928,0.064 -5.244563,-0.15614 -6.068363,-0.4501 -0.300407,-0.10719 -1.45886,-0.26811 -2.57452,-0.35811 -1.11566,-0.09 -2.418162,-0.2838 -2.894397,-0.43047 -0.476234,-0.14666 -1.237654,-0.26665 -1.691887,-0.26665 -0.454232,0 -1.203372,-0.1134 -1.664497,-0.25218 -0.461126,-0.13878 -1.366582,-0.30854 -2.012281,-0.37724 -0.645699,-0.0686 -1.460334,-0.2254 -1.810225,-0.3483 -0.349891,-0.12291 -1.183329,-0.28003 -1.852083,-0.34933 -0.668755,-0.0693 -1.470737,-0.23065 -1.782321,-0.35812 -0.311585,-0.12746 -0.946756,-0.2869 -1.411283,-0.3545 -0.464526,-0.0676 -1.042658,-0.22058 -1.285193,-0.34003 -0.242535,-0.11945 -0.915876,-0.27101 -1.496033,-0.33641 -0.580156,-0.0654 -1.232212,-0.23519 -1.449007,-0.37724 -0.216795,-0.14205 -0.615016,-0.2611 -0.885217,-0.2651 -0.697848,-0.0101 -2.420944,-0.78874 -2.489254,-1.125 -0.03155,-0.1553 0.390245,-0.77672 0.936894,-1.38079 0.967033,-1.0686 1.996102,-2.4981 2.571419,-3.57239 0.155863,-0.29104 0.601666,-1.04528 0.990637,-1.67587 1.198746,-1.94337 3.144265,-6.22991 3.682463,-8.11372 0.06929,-0.24254 0.233933,-0.59774 0.366386,-0.7891 0.132453,-0.19136 0.240812,-0.48888 0.240812,-0.66094 0,-0.17206 0.16021,-0.80921 0.356051,-1.41593 0.562637,-1.74306 1.021036,-3.32902 1.210779,-4.18993 0.09622,-0.43656 0.254843,-1.11108 0.352433,-1.49913 0.09759,-0.38806 0.254259,-1.10244 0.348299,-1.5875 0.09404,-0.48507 0.251589,-1.19945 0.349849,-1.5875 0.09826,-0.38806 0.265854,-1.49948 0.372587,-2.46962 0.106732,-0.97014 0.26547,-2.2001 0.35295,-2.73368 0.08748,-0.53357 0.164983,-2.29002 0.172083,-3.90312 0.01039,-2.36613 0.06378,-2.97497 0.274919,-3.1502 0.0674,-0.0559 0.234103,-0.0879 0.475423,-0.0982 z m 19.063952,3.05873 c -0.0037,0.0225 -0.0066,0.046 -0.0088,0.0703 8.3e-4,-0.0239 0.0037,-0.0475 0.0088,-0.0703 z m 7.157186,36.96777 c 0.273336,-0.007 0.631216,0.0339 1.07642,0.12144 0.582451,0.11459 1.220088,0.16622 1.416968,0.11472 0.426618,-0.11156 0.449273,0.0169 0.09302,0.52555 -0.145642,0.20793 -0.49713,0.42956 -0.781348,0.49196 -0.284218,0.0624 -0.611491,0.22709 -0.727087,0.36638 -0.115597,0.13928 -0.341732,0.25322 -0.502295,0.25322 -0.160562,0 -0.448393,0.10835 -0.639754,0.24081 -1.0932,0.75667 -1.573214,0.41116 -0.976168,-0.7028 0.200155,-0.37344 0.363802,-0.81407 0.363802,-0.97875 0,-0.27775 0.220884,-0.42107 0.676444,-0.43253 z m -30.509249,7.53907 c -0.127881,-7e-4 -0.262364,0.009 -0.37207,0.0305 v 5.2e-4 c -0.06171,0.0119 -0.09476,0.0233 -0.102319,0.0336 -1.7e-4,2.8e-4 -9.03e-4,0.001 -0.001,0.002 -1.81e-4,5.6e-4 -0.001,0.002 -0.001,0.003 2.8e-5,2.8e-4 4.49e-4,10e-4 5.17e-4,0.002 2.12e-4,5.4e-4 6.64e-4,0.002 0.001,0.003 0.01808,0.0215 0.164227,0.037 0.409794,0.0383 0.272849,10e-4 0.442315,-0.0155 0.460437,-0.0408 3.28e-4,-5.7e-4 0.0014,-0.002 0.0015,-0.003 1.02e-4,-5.8e-4 5.2e-5,-0.002 0,-0.003 -1.92e-4,-8.9e-4 -4.94e-4,-0.003 -0.001,-0.004 -0.0059,-0.008 -0.02644,-0.0176 -0.06201,-0.0269 -0.08432,-0.0223 -0.205948,-0.0339 -0.33383,-0.0346 z" />
    </g>
    <path
       style="fill:none;fill-opacity:1;stroke:#aaaaaa;stroke-width:0.7;stroke-linecap:round;stroke-linejoin:round;stroke-dasharray:none;stroke-opacity:1"
       d="m 129.44662,-99.460738 c -0.13398,-0.243605 -0.28487,-0.478647 -0.40194,-0.730812 -0.91005,-1.9601 -0.77443,-1.96593 -1.6078,-3.47137 -0.17198,-0.31069 -0.37898,-0.60127 -0.54811,-0.91352 -0.2776,-0.51249 -0.46048,-0.96021 -0.65773,-1.49817 -0.0711,-0.1939 -0.21925,-0.57658 -0.21925,-0.8039 -0.27138,0.3018 -0.38585,0.69462 -0.54811,1.05968 -0.23784,0.53516 -0.51866,1.06225 -0.73081,1.6078 -0.1382,0.35537 -0.0145,0.16763 -0.0731,0.40195 -0.004,0.0167 -0.0311,0.0202 -0.0365,0.0365 -0.0473,0.14191 -0.0855,0.39111 -0.10963,0.54811 -0.0166,0.10759 -0.02,0.42191 -0.10962,0.51157"
       id="path108" />
    <path
       style="fill:none;fill-opacity:1;stroke:#aaaaaa;stroke-width:0.7;stroke-linecap:round;stroke-linejoin:round;stroke-dasharray:none;stroke-opacity:1"
       d="m 126.04833,-106.87851 c 0.69309,0.26968 1.3823,0.55093 2.08283,0.8039 0.14151,0.0511 0.91044,0.31394 1.09622,0.40195 0.17302,0.082 0.31965,0.22527 0.47503,0.32886 0.15675,0.1045 0.37981,0.16057 0.51157,0.29233 0.0569,0.0569 0.0204,0.0935 0.0731,0.14616"
       id="path109" />
    <path
       style="fill:none;fill-opacity:1;stroke:#aaaaaa;stroke-width:0.7;stroke-linecap:round;stroke-linejoin:round;stroke-dasharray:none;stroke-opacity:1"
       d="m 121.33626,-109.90025 c 0.65158,0.30498 1.37019,0.32336 1.96371,0.62012 0.22766,0.11383 0.7805,0 1.03353,0 0.93017,0 1.86035,0 2.79052,0 0.22589,0 0.6764,-0.0507 0.93018,0 0.21548,0.0431 0.41445,0.16557 0.62012,0.2067 0.10134,0.0203 0.20979,-0.0251 0.31005,0 0.0473,0.0118 0.0556,0.0938 0.10336,0.10336 0.13513,0.027 0.27667,-0.0171 0.41341,0 0.53011,0.0663 1.12087,0.22126 1.65365,0.31005 0.21492,0.0358 0.40646,0.16398 0.62011,0.20671 0.46519,0.093 0.97656,-0.0672 1.44694,0 0.10785,0.0154 0.20671,0.0689 0.31006,0.10335 0.17225,0 0.34556,-0.019 0.51677,0 0.55075,0.0612 1.09474,0.2728 1.65364,0.31006 1.39106,0.0927 2.97435,-0.17081 4.34082,0 0.38977,0.0487 0.75171,0.23302 1.13688,0.31006 0.95028,0.19006 1.95466,0.1786 2.89388,0.41341 0.31707,0.0793 0.6131,0.23079 0.93018,0.31006 0.82778,0.20695 1.74942,0.29421 2.58382,0.41341 0.35904,0.0513 1.01181,0.31006 1.34359,0.31006"
       id="path110" />
    <path
       style="fill:none;fill-opacity:1;stroke:#aaaaaa;stroke-width:0.7;stroke-linecap:round;stroke-linejoin:round;stroke-dasharray:none;stroke-opacity:1"
       d="m 127.79582,-91.193386 c 0.0393,-0.09964 0.25378,-0.145812 0.31005,-0.258366 0.008,-0.01535 -0.0122,-0.0395 0,-0.0517 0.0122,-0.01217 0.0395,0.01217 0.0517,0 0.0244,-0.02434 -0.0244,-0.07898 0,-0.103346 0.0122,-0.01217 0.0395,0.01217 0.0517,0 0.0339,-0.03387 0.0258,-0.180816 0.0517,-0.206692 0.0122,-0.01217 0.0395,0.01217 0.0517,0 0.0393,-0.03929 0.0246,-0.204179 0.0517,-0.258392 0.0377,-0.07535 0.0827,-0.08266 0.10336,-0.103347 0.0244,-0.02434 -0.0244,-0.079 0,-0.103346 0.0122,-0.01217 0.0395,0.01217 0.0517,0 0.0259,-0.02593 0.0178,-0.172852 0.0517,-0.206719 0.0122,-0.01217 0.0395,0.01217 0.0517,0 0.0244,-0.02437 -0.0244,-0.07899 0,-0.103351 0.0122,-0.01217 0.0395,0.01217 0.0517,0 0.0275,-0.02746 0.22423,-0.448464 0.25838,-0.516766 0.0154,-0.03081 -0.0154,-0.07254 0,-0.103352 0.0218,-0.04358 0.0816,-0.05978 0.10335,-0.103354 0.029,-0.05799 0.0217,-0.146846 0.0517,-0.206705 0.0351,-0.07024 0.11992,-0.13647 0.15503,-0.206706 0.0207,-0.04134 -0.0207,-0.113689 0,-0.15503 0.0331,-0.06628 0.1321,-0.137901 0.15503,-0.206706 0.0109,-0.03268 -0.0109,-0.07067 0,-0.103351 0.0293,-0.08806 0.13267,-0.16895 0.15503,-0.258382 0.0125,-0.05014 -0.0125,-0.104897 0,-0.15503 0.0212,-0.08469 0.16391,-0.276143 0.20671,-0.361736 0.0154,-0.03081 -0.0154,-0.07254 0,-0.103351 0.0529,-0.105738 0.10153,-0.20306 0.15503,-0.31006 0.0475,-0.09508 0.0267,-0.210182 0.0517,-0.310057 0.006,-0.02363 0.044,-0.02857 0.0517,-0.05168 0.0163,-0.04902 -0.0231,-0.108807 0,-0.155027 0.11825,-0.236503 -0.0214,0.219284 0.10335,-0.15503 0.0383,-0.114887 0.0215,-0.486622 0.10335,-0.568441 0.0122,-0.01217 0.0395,0.01217 0.0517,0 0.0755,-0.07555 -0.0497,-0.365641 0,-0.465088 0.0109,-0.0218 0.0408,-0.02989 0.0517,-0.05168 0.0156,-0.0312 -0.0239,-0.131144 0,-0.15503 0.0122,-0.01217 0.0395,0.01217 0.0517,0 0.0244,-0.02437 -0.0109,-0.07067 0,-0.103355 0.0428,-0.128539 0.0478,-0.250647 0.10336,-0.361733 0.0551,-0.110243 -0.0551,-0.30317 0,-0.413411 0.0237,-0.0473 0.11726,-0.09077 0.15502,-0.103354 0.15886,-0.05295 0.2752,0.0688 0.41341,0.103354 0.0334,0.0084 0.0725,-0.0154 0.10336,0 0.0154,0.0077 -0.0122,0.03949 0,0.05168 0.0272,0.02724 0.0689,0.03445 0.10335,0.05168 0.0312,0.01561 0.13114,-0.02389 0.15503,0 0.0122,0.01217 -0.0122,0.0395 0,0.05168 0.0258,0.02585 0.12919,-0.02585 0.15503,0 0.0122,0.01217 -0.0122,0.0395 0,0.05168 0.0431,0.04306 0.21532,-0.04306 0.25838,0 0.0122,0.01217 -0.0122,0.03949 0,0.05168 0.0244,0.02437 0.0725,-0.0154 0.10336,0 0.1349,0.06745 0.27949,0.08807 0.41341,0.155029 0.0689,0.03445 0.18948,-0.03445 0.25838,0 0.0602,0.0301 0.0948,0.07325 0.15503,0.103352 0.0549,0.02744 0.16064,0.0056 0.2067,0.05168 0.0207,0.02069 0.028,0.06567 0.10336,0.103354 0.0308,0.0154 0.079,-0.02437 0.10335,0 0.0122,0.01217 -0.0122,0.0395 0,0.05168 0.0244,0.02437 0.0725,-0.0154 0.10335,0 0.0746,0.03731 0.1321,0.06605 0.20671,0.103354 0.0312,0.01561 0.13114,-0.02389 0.15503,0 0.0122,0.01217 -0.0122,0.03949 0,0.05168 0.0172,0.0172 0.19627,-0.0035 0.2067,0 0.0231,0.0077 0.0299,0.04078 0.0517,0.05167 0.0689,0.03445 0.18948,-0.03445 0.25838,0 0.10301,0.0515 0.20706,0.05185 0.31006,0.103355 0.0542,0.02711 0.21714,-0.04125 0.25839,0 0.0122,0.01217 -0.0154,0.04397 0,0.05168 0.0189,0.0095 0.18496,-0.02175 0.2067,0 0.0122,0.01217 -0.0154,0.04397 0,0.05168 0.0189,0.0095 0.18497,-0.02175 0.20671,0 0.0122,0.01217 -0.0122,0.0395 0,0.05168 0.0259,0.02585 0.12919,-0.02585 0.15503,0 0.0122,0.01217 -0.0122,0.0395 0,0.05168 0.0101,0.01011 0.2627,0.03984 0.31005,0.05168 0.34809,0.08702 8e-4,7.94e-4 0.10336,0.103352 0.0239,0.02389 0.12383,-0.01561 0.15503,0 0.14267,0.07134 0.32501,0.08499 0.46509,0.15503 0.0914,0.04569 0.2623,0.0019 0.36173,0.05168 0.24951,0.124757 0.52564,0.185304 0.77515,0.31006 0.0308,0.0154 0.0725,-0.0154 0.10335,0 0.14267,0.07134 0.32501,0.08499 0.46509,0.15503 0.0308,0.0154 0.079,-0.02437 0.10335,0 0.0335,0.03346 -0.0517,0.109093 -0.0517,0.155028 0,0.04046 0.0258,0.232597 0,0.258384 -0.0122,0.01217 -0.0395,-0.01217 -0.0517,0 -0.0517,0.05168 0,0.206705 -0.0517,0.258381 -0.0122,0.01217 -0.0395,-0.01217 -0.0517,0 -0.0259,0.02582 0.0258,0.129191 0,0.15503 -0.0122,0.01217 -0.0395,-0.01217 -0.0517,0 -0.0358,0.0358 -0.0159,0.222578 -0.0517,0.258382 -0.0122,0.01217 -0.0395,-0.01217 -0.0517,0 -0.0258,0.02582 0.0259,0.12919 0,0.15503 -0.0122,0.01217 -0.0395,-0.01217 -0.0517,0 -0.0365,0.03654 0.0164,0.106002 0,0.155027 -0.008,0.0231 -0.044,0.02857 -0.0517,0.05168 -0.0109,0.03268 0.007,0.06957 0,0.103352 -0.0291,0.145476 -0.10909,0.275608 -0.15503,0.413411 -0.0163,0.04903 0.0163,0.106006 0,0.15503 -0.008,0.0231 -0.0408,0.02989 -0.0517,0.05168 -0.0156,0.0312 0.0239,0.131141 0,0.15503 -0.0122,0.01217 -0.0395,-0.01217 -0.0517,0 -0.0258,0.02582 0.0259,0.129191 0,0.15503 -0.0122,0.01217 -0.0395,-0.01217 -0.0517,0 -0.0244,0.02437 0.0154,0.07254 0,0.103352 -0.0109,0.0218 -0.0408,0.02989 -0.0517,0.05167 -0.0217,0.04342 -0.0233,0.229976 -0.0517,0.258384 -0.0122,0.01217 -0.0395,-0.01217 -0.0517,0 -0.0365,0.03654 0.0125,0.104895 0,0.155028 -0.0285,0.114051 -0.0556,0.214492 -0.10335,0.31006 -0.0207,0.04134 0.0207,0.113688 0,0.15503 -0.0628,0.125523 -0.0223,0.199659 -0.0517,0.258371 -0.0109,0.02169 -0.044,0.02857 -0.0517,0.0517 -0.0109,0.03268 0.0154,0.07252 0,0.103346 -0.008,0.01535 -0.0395,-0.01217 -0.0517,0 -0.0244,0.02434 0.0154,0.07252 0,0.103347 -0.0203,0.04064 -0.0796,0.182959 -0.10335,0.206719 -0.0122,0.01217 -0.0395,-0.01217 -0.0517,0 -0.0122,0.01217 0.008,0.03625 0,0.05167 -0.0218,0.04358 -0.0816,0.05977 -0.10335,0.103346 -0.0154,0.03082 0.0244,0.07898 0,0.103346 -0.0122,0.01217 -0.044,-0.01535 -0.0517,0 -0.0154,0.03082 0.0154,0.07255 0,0.103346 -0.008,0.01535 -0.0395,-0.01217 -0.0517,0 -0.0172,0.0172 -0.0344,0.137822 -0.0517,0.155046 -0.0122,0.01217 -0.0395,-0.01217 -0.0517,0 -0.0122,0.01217 0.0122,0.0395 0,0.05167 -0.0122,0.01217 -0.0395,-0.01217 -0.0517,0 -0.0122,0.01217 0.008,0.03628 0,0.05167 -0.031,0.06202 -0.12403,0.09303 -0.15503,0.155019 -0.0147,0.02932 -0.14371,0.247068 -0.15503,0.258392 -0.0122,0.01217 -0.0363,-0.0077 -0.0517,0 -0.0938,0.04688 -0.18018,0.231854 -0.20671,0.258392 -0.0273,0.02728 -0.23108,0.127714 -0.25838,0.155019 -0.0122,0.01217 0.0122,0.0395 0,0.05167 -0.0122,0.01217 -0.0363,-0.0077 -0.0517,0 -0.0637,0.03186 -0.22652,0.19468 -0.25838,0.258392 -0.008,0.01535 0.0122,0.0395 0,0.05167 -0.0453,0.04527 -0.26478,0.109749 -0.31006,0.155019 -0.003,0.0029 -0.10055,0.152241 -0.10335,0.155046 -0.0244,0.02434 -0.079,-0.02434 -0.10336,0 -0.0122,0.01217 0.0122,0.03948 0,0.05167 -0.0244,0.02434 -0.079,-0.02434 -0.10335,0 -0.0258,0.02593 -0.0258,0.0775 -0.0517,0.103346 -0.0244,0.02434 -0.079,-0.02434 -0.10335,0 -0.0122,0.01217 0.0122,0.0395 0,0.05167 -0.0514,0.05143 -0.26599,-0.08131 -0.31006,-0.103346 -0.0429,-0.02143 -0.15771,0 -0.2067,0 -0.34226,0 -0.40604,-0.02408 -0.72348,-0.103346 -0.0801,-0.02011 -0.1836,-0.01429 -0.25838,-0.05167 -0.0754,-0.0377 -0.0827,-0.08268 -0.10335,-0.103373 -0.0196,-0.01958 -0.35483,-0.135493 -0.41341,-0.155019 -0.15344,-0.05114 -0.31382,-0.05294 -0.46509,-0.103346 -0.0878,-0.02926 -0.22324,0.01931 -0.31006,0 -0.10635,-0.02355 -0.20371,-0.07972 -0.31006,-0.103373 -0.14784,-0.03283 -0.31635,-0.02196 -0.46508,-0.05167 -0.25815,-0.05162 -0.52074,-0.143087 -0.77515,-0.206693 -0.0501,-0.01243 -0.10881,0.02302 -0.15503,0 -0.0602,-0.03011 -0.0948,-0.07326 -0.15503,-0.103346 -0.0413,-0.02064 -0.11369,0.02064 -0.15503,0 -0.0218,-0.01085 -0.028,-0.04577 -0.0517,-0.0517 -0.0623,-0.01561 -0.42042,-0.02934 -0.46509,-0.05167 -0.072,-0.03601 -0.11421,-0.08485 -0.2067,-0.103346 -0.0507,-0.01005 -0.10601,0.0164 -0.15503,0 -0.0163,-0.0056 0.0154,-0.04397 0,-0.05167 -0.0189,-0.0095 -0.18497,0.0217 -0.20671,0 -0.0122,-0.01217 0.0122,-0.0395 0,-0.05167 -0.0239,-0.02381 -0.12383,0.01561 -0.15503,0 -0.1086,-0.05432 -0.15667,-0.02667 -0.2067,-0.05167 -0.0218,-0.01085 -0.0286,-0.04397 -0.0517,-0.05167 -0.0654,-0.0217 -0.14508,0.0308 -0.20671,0 -0.077,-0.03852 -0.1378,-0.103372 -0.2067,-0.155045 z"
       id="path111" />
    <path
       style="fill:none;fill-opacity:1;stroke:#aaaaaa;stroke-width:0.7;stroke-linecap:round;stroke-linejoin:round;stroke-dasharray:none;stroke-opacity:1"
       d="m 130.27629,-87.731065 c 0.0394,-0.09964 0.25377,-0.145812 0.31005,-0.258366 0.008,-0.01535 -0.0122,-0.0395 0,-0.0517 0.0122,-0.01217 0.0395,0.01217 0.0517,0 0.0244,-0.02434 -0.0244,-0.07898 0,-0.103346 0.0122,-0.01217 0.0395,0.01217 0.0517,0 0.0339,-0.03387 0.0258,-0.180816 0.0517,-0.206692 0.0122,-0.01217 0.0395,0.01217 0.0517,0 0.0393,-0.03929 0.0246,-0.204179 0.0517,-0.258392 0.0377,-0.07535 0.0827,-0.08266 0.10336,-0.103347 0.0244,-0.02434 -0.0244,-0.079 0,-0.103346 0.0122,-0.01217 0.0395,0.01217 0.0517,0 0.0259,-0.02593 0.0178,-0.172852 0.0517,-0.206719 0.0122,-0.01217 0.0395,0.01217 0.0517,0 0.0244,-0.02437 -0.0244,-0.07899 0,-0.103351 0.0122,-0.01217 0.0395,0.01217 0.0517,0 0.0275,-0.02746 0.22423,-0.448464 0.25838,-0.516766 0.0154,-0.03081 -0.0154,-0.07254 0,-0.103352 0.0218,-0.04358 0.0816,-0.05978 0.10335,-0.103354 0.029,-0.05799 0.0217,-0.146846 0.0517,-0.206705 0.0351,-0.07024 0.11991,-0.13647 0.15503,-0.206706 0.0207,-0.04134 -0.0207,-0.113689 0,-0.15503 0.0331,-0.06628 0.1321,-0.137901 0.15503,-0.206706 0.0109,-0.03268 -0.0109,-0.07067 0,-0.103351 0.0293,-0.08806 0.13267,-0.16895 0.15503,-0.258382 0.0125,-0.05014 -0.0125,-0.104897 0,-0.15503 0.0212,-0.08469 0.16391,-0.276143 0.20671,-0.361736 0.0154,-0.03081 -0.0154,-0.07254 0,-0.103351 0.0529,-0.105738 0.10152,-0.20306 0.15503,-0.31006 0.0475,-0.09508 0.0267,-0.210182 0.0517,-0.310057 0.006,-0.02363 0.044,-0.02857 0.0517,-0.05168 0.0163,-0.04902 -0.0231,-0.108807 0,-0.155027 0.11825,-0.236503 -0.0214,0.219284 0.10335,-0.15503 0.0383,-0.114887 0.0215,-0.486622 0.10335,-0.568441 0.0122,-0.01217 0.0395,0.01217 0.0517,0 0.0755,-0.07555 -0.0497,-0.365641 0,-0.465088 0.0109,-0.0218 0.0408,-0.02989 0.0517,-0.05168 0.0156,-0.0312 -0.0239,-0.131144 0,-0.15503 0.0122,-0.01217 0.0395,0.01217 0.0517,0 0.0244,-0.02437 -0.0109,-0.07067 0,-0.103355 0.0428,-0.128539 0.0478,-0.250647 0.10335,-0.361733 0.0551,-0.110243 -0.0551,-0.30317 0,-0.413411 0.0236,-0.0473 0.11727,-0.09077 0.15503,-0.103354 0.15886,-0.05295 0.2752,0.0688 0.41341,0.103354 0.0334,0.0084 0.0725,-0.0154 0.10336,0 0.0154,0.0077 -0.0122,0.03949 0,0.05168 0.0272,0.02724 0.0689,0.03445 0.10335,0.05168 0.0312,0.01561 0.13114,-0.02389 0.15503,0 0.0122,0.01217 -0.0122,0.0395 0,0.05168 0.0259,0.02585 0.12919,-0.02585 0.15503,0 0.0122,0.01217 -0.0122,0.0395 0,0.05168 0.0431,0.04306 0.21532,-0.04306 0.25838,0 0.0122,0.01217 -0.0122,0.03949 0,0.05168 0.0244,0.02437 0.0725,-0.0154 0.10335,0 0.13491,0.06745 0.2795,0.08807 0.41342,0.155029 0.0689,0.03445 0.18948,-0.03445 0.25838,0 0.0602,0.0301 0.0948,0.07325 0.15503,0.103352 0.0549,0.02744 0.16064,0.0056 0.2067,0.05168 0.0207,0.02069 0.028,0.06567 0.10336,0.103354 0.0308,0.0154 0.079,-0.02437 0.10335,0 0.0122,0.01217 -0.0122,0.0395 0,0.05168 0.0244,0.02437 0.0725,-0.0154 0.10335,0 0.0746,0.03731 0.1321,0.06605 0.20671,0.103354 0.0312,0.01561 0.13114,-0.02389 0.15503,0 0.0122,0.01217 -0.0122,0.03949 0,0.05168 0.0172,0.0172 0.19627,-0.0035 0.2067,0 0.0231,0.0077 0.0299,0.04078 0.0517,0.05167 0.0689,0.03445 0.18948,-0.03445 0.25838,0 0.10301,0.0515 0.20706,0.05185 0.31006,0.103355 0.0542,0.02711 0.21714,-0.04125 0.25838,0 0.0122,0.01217 -0.0154,0.04397 0,0.05168 0.0189,0.0095 0.18497,-0.02175 0.20671,0 0.0122,0.01217 -0.0154,0.04397 0,0.05168 0.0189,0.0095 0.18497,-0.02175 0.20671,0 0.0122,0.01217 -0.0122,0.0395 0,0.05168 0.0259,0.02585 0.12919,-0.02585 0.15503,0 0.0122,0.01217 -0.0122,0.0395 0,0.05168 0.0101,0.01011 0.2627,0.03984 0.31005,0.05168 0.34808,0.08702 8e-4,7.94e-4 0.10336,0.103352 0.0239,0.02389 0.12383,-0.01561 0.15503,0 0.14267,0.07134 0.325,0.08499 0.46509,0.15503 0.0914,0.04569 0.2623,0.0019 0.36173,0.05168 0.24951,0.124757 0.52564,0.185304 0.77515,0.31006 0.0308,0.0154 0.0725,-0.0154 0.10335,0 0.14267,0.07134 0.32501,0.08499 0.46509,0.15503 0.0308,0.0154 0.079,-0.02437 0.10335,0 0.0335,0.03346 -0.0517,0.109093 -0.0517,0.155028 0,0.04046 0.0258,0.232597 0,0.258384 -0.0122,0.01217 -0.0395,-0.01217 -0.0517,0 -0.0517,0.05168 0,0.206705 -0.0517,0.258381 -0.0122,0.01217 -0.0395,-0.01217 -0.0517,0 -0.0258,0.02582 0.0258,0.129191 0,0.15503 -0.0122,0.01217 -0.0395,-0.01217 -0.0517,0 -0.0358,0.0358 -0.0159,0.222578 -0.0517,0.258382 -0.0122,0.01217 -0.0395,-0.01217 -0.0517,0 -0.0258,0.02582 0.0259,0.12919 0,0.15503 -0.0122,0.01217 -0.0395,-0.01217 -0.0517,0 -0.0365,0.03654 0.0163,0.106002 0,0.155027 -0.008,0.0231 -0.044,0.02857 -0.0517,0.05168 -0.0109,0.03268 0.007,0.06957 0,0.103352 -0.0291,0.145476 -0.10909,0.275608 -0.15503,0.413411 -0.0163,0.04903 0.0163,0.106006 0,0.15503 -0.008,0.0231 -0.0408,0.02989 -0.0517,0.05168 -0.0156,0.0312 0.0239,0.131141 0,0.15503 -0.0122,0.01217 -0.0395,-0.01217 -0.0517,0 -0.0258,0.02582 0.0259,0.129191 0,0.15503 -0.0122,0.01217 -0.0395,-0.01217 -0.0517,0 -0.0244,0.02437 0.0154,0.07254 0,0.103352 -0.0109,0.0218 -0.0408,0.02989 -0.0517,0.05167 -0.0217,0.04342 -0.0233,0.229976 -0.0517,0.258384 -0.0122,0.01217 -0.0395,-0.01217 -0.0517,0 -0.0365,0.03654 0.0125,0.104895 0,0.155028 -0.0285,0.114051 -0.0556,0.214492 -0.10335,0.31006 -0.0207,0.04134 0.0207,0.113688 0,0.15503 -0.0628,0.125523 -0.0223,0.199659 -0.0517,0.258371 -0.0109,0.02169 -0.044,0.02857 -0.0517,0.0517 -0.0109,0.03268 0.0154,0.07252 0,0.103346 -0.008,0.01535 -0.0395,-0.01217 -0.0517,0 -0.0244,0.02434 0.0154,0.07252 0,0.103347 -0.0203,0.04064 -0.0796,0.182959 -0.10335,0.206719 -0.0122,0.01217 -0.0395,-0.01217 -0.0517,0 -0.0122,0.01217 0.008,0.03625 0,0.05167 -0.0218,0.04358 -0.0816,0.05977 -0.10335,0.103346 -0.0154,0.03082 0.0244,0.07898 0,0.103346 -0.0122,0.01217 -0.044,-0.01535 -0.0517,0 -0.0154,0.03082 0.0154,0.07255 0,0.103346 -0.008,0.01535 -0.0395,-0.01217 -0.0517,0 -0.0172,0.0172 -0.0345,0.137822 -0.0517,0.155046 -0.0122,0.01217 -0.0395,-0.01217 -0.0517,0 -0.0122,0.01217 0.0122,0.0395 0,0.05167 -0.0122,0.01217 -0.0395,-0.01217 -0.0517,0 -0.0122,0.01217 0.008,0.03628 0,0.05167 -0.031,0.06202 -0.12403,0.09303 -0.15503,0.155019 -0.0147,0.02932 -0.14371,0.247068 -0.15503,0.258392 -0.0122,0.01217 -0.0363,-0.0077 -0.0517,0 -0.0938,0.04688 -0.18018,0.231854 -0.20671,0.258392 -0.0273,0.02728 -0.23108,0.127714 -0.25838,0.155019 -0.0122,0.01217 0.0122,0.0395 0,0.05167 -0.0122,0.01217 -0.0363,-0.0077 -0.0517,0 -0.0637,0.03186 -0.22653,0.19468 -0.25838,0.258392 -0.008,0.01535 0.0122,0.0395 0,0.05167 -0.0453,0.04527 -0.26478,0.109749 -0.31006,0.155019 -0.003,0.0029 -0.10055,0.152241 -0.10335,0.155046 -0.0244,0.02434 -0.079,-0.02434 -0.10336,0 -0.0122,0.01217 0.0122,0.03948 0,0.05167 -0.0244,0.02434 -0.079,-0.02434 -0.10335,0 -0.0258,0.02593 -0.0258,0.0775 -0.0517,0.103346 -0.0244,0.02434 -0.079,-0.02434 -0.10335,0 -0.0122,0.01217 0.0122,0.0395 0,0.05167 -0.0514,0.05143 -0.26599,-0.08131 -0.31006,-0.103346 -0.0429,-0.02143 -0.15772,0 -0.20671,0 -0.34226,0 -0.40604,-0.02408 -0.72347,-0.103346 -0.0801,-0.02011 -0.1836,-0.01429 -0.25838,-0.05167 -0.0754,-0.0377 -0.0827,-0.08268 -0.10335,-0.103373 -0.0196,-0.01958 -0.35484,-0.135493 -0.41341,-0.155019 -0.15344,-0.05114 -0.31382,-0.05294 -0.46509,-0.103346 -0.0878,-0.02926 -0.22324,0.01931 -0.31006,0 -0.10635,-0.02355 -0.20371,-0.07972 -0.31006,-0.103373 -0.14784,-0.03283 -0.31635,-0.02196 -0.46509,-0.05167 -0.25814,-0.05162 -0.52074,-0.143087 -0.77514,-0.206693 -0.0501,-0.01243 -0.10881,0.02302 -0.15503,0 -0.0602,-0.03011 -0.0948,-0.07326 -0.15503,-0.103346 -0.0413,-0.02064 -0.11369,0.02064 -0.15503,0 -0.0218,-0.01085 -0.028,-0.04577 -0.0517,-0.0517 -0.0623,-0.01561 -0.42042,-0.02934 -0.46509,-0.05167 -0.072,-0.03601 -0.11422,-0.08485 -0.20671,-0.103346 -0.0507,-0.01005 -0.106,0.0164 -0.15502,0 -0.0163,-0.0056 0.0154,-0.04397 0,-0.05167 -0.0189,-0.0095 -0.18497,0.0217 -0.20671,0 -0.0122,-0.01217 0.0122,-0.0395 0,-0.05167 -0.0239,-0.02381 -0.12383,0.01561 -0.15503,0 -0.1086,-0.05432 -0.15667,-0.02667 -0.2067,-0.05167 -0.0218,-0.01085 -0.0286,-0.04397 -0.0517,-0.05167 -0.0654,-0.0217 -0.14508,0.0308 -0.20671,0 -0.077,-0.03852 -0.13781,-0.103372 -0.20671,-0.155045 z"
       id="path112" />
    <g
       id="g47"
       transform="matrix(0.59999291,0,0,0.59917242,237.1587,-50.80658)"
       style="stroke-width:1.66783">
      <path
         style="fill:#ffffff;fill-opacity:1;stroke:none;stroke-width:2.00139;stroke-dasharray:none;stroke-opacity:1"
         d="m -157.0032,-165.17504 c 1.70381,-0.25242 13.25188,0.56794 13.25188,0.56794 l 12.1791,-0.37863 8.20355,-0.75725 0.44173,0.56794 0.44173,9.33942 2.52416,20.00402 0.63104,4.79592 1.57761,6.43663 -0.88346,0.82035 -2.65037,1.00967 -10.03357,1.13587 -8.45596,-0.12621 -12.62084,-0.25241 -10.15977,-1.19898 -7.69871,-1.64071 -0.31552,-0.44173 0.88346,-11.73738 0.37862,-6.49973 0.88346,-6.75215 0.37863,-5.42696 0.50483,-3.47073 0.37863,-4.48039 0.50483,-2.39796 z"
         id="path47" />
      <path
         style="fill:#717171;fill-opacity:1;stroke:#717171;stroke-width:0.667131;stroke-dasharray:none;stroke-opacity:1"
         d="m -139.92405,-121.08702 c -0.11618,-0.11618 -5.64012,-0.3562 -12.03498,-0.52293 -2.58444,-0.0674 -4.37908,-0.19416 -4.94448,-0.34928 -0.48814,-0.13394 -1.67876,-0.29175 -2.64583,-0.35071 -0.96706,-0.059 -2.03611,-0.21502 -2.37566,-0.3468 -0.33955,-0.13179 -1.2621,-0.27661 -2.05012,-0.32183 -0.78802,-0.0452 -1.61294,-0.17865 -1.83316,-0.2965 -0.22021,-0.11786 -0.93484,-0.28139 -1.58805,-0.36341 -0.65322,-0.082 -1.45548,-0.26676 -1.78282,-0.41052 -0.32733,-0.14377 -0.79439,-0.30266 -1.0379,-0.3531 -0.24352,-0.0504 -0.57699,-0.31896 -0.74106,-0.5967 -0.2736,-0.46317 -0.27616,-0.59157 -0.0309,-1.55066 0.14704,-0.57513 0.33447,-2.23631 0.41649,-3.69151 0.082,-1.45521 0.27295,-3.83646 0.42426,-5.29167 0.15131,-1.45521 0.27838,-3.59833 0.28237,-4.7625 0.005,-1.38438 0.10101,-2.42179 0.27827,-2.99861 0.15983,-0.52013 0.30904,-1.89504 0.36371,-3.35139 0.051,-1.3582 0.19959,-2.98538 0.33025,-3.61597 0.13066,-0.63059 0.28984,-2.09903 0.35373,-3.2632 0.0639,-1.16416 0.22896,-2.43417 0.36682,-2.82222 0.14351,-0.40395 0.32462,-2.02509 0.42368,-3.79236 0.0952,-1.69774 0.31768,-3.76149 0.49448,-4.58611 l 0.32145,-1.49931 3.16573,0.0601 c 1.74115,0.033 3.8801,0.17135 4.75323,0.30735 0.87793,0.13675 3.81493,0.29993 6.57089,0.36508 l 4.98339,0.11781 0.67911,-0.7139 c 0.74777,-0.78606 0.90758,-1.30853 0.90758,-2.96716 0,-0.92766 -0.0727,-1.1974 -0.44097,-1.63501 -0.89853,-1.06784 -0.36079,-1.65728 1.73686,-1.90382 1.24056,-0.1458 1.84227,0.0103 2.0839,0.54063 0.15738,0.34541 0.12388,0.53465 -0.18239,1.03019 -0.55589,0.89946 -0.5249,2.62723 0.0658,3.66858 0.24253,0.42757 0.56052,1.03397 0.70663,1.34757 0.15,0.32194 0.444,0.61493 0.67531,0.67299 0.2253,0.0566 3.49904,0.0203 7.27496,-0.0806 5.11133,-0.13658 7.11317,-0.25166 7.83546,-0.45041 1.3674,-0.37627 2.68347,-0.35185 3.19113,0.0592 0.38892,0.31493 0.40957,0.44891 0.44176,2.86632 0.0186,1.39477 0.15989,3.25032 0.31403,4.12344 0.15414,0.87313 0.28164,2.34936 0.28333,3.28052 0.002,1.00196 0.14595,2.36994 0.35309,3.35139 0.19251,0.91211 0.35126,2.15864 0.35278,2.77008 0.002,0.61144 0.11633,1.64331 0.25513,2.29306 0.13881,0.64974 0.30196,1.89572 0.36256,2.76884 0.0606,0.87313 0.2166,2.02407 0.34667,2.55764 0.13006,0.53358 0.28228,1.88295 0.33825,2.99861 0.056,1.11566 0.18857,2.30629 0.29466,2.64584 0.10608,0.33955 0.2576,1.38025 0.33671,2.31268 0.13515,1.59303 0.39816,3.04963 0.99972,5.53662 0.1408,0.58209 0.33009,1.39459 0.42064,1.80557 0.0906,0.41098 0.29277,0.995 0.44936,1.29782 0.15659,0.30282 0.23911,0.73231 0.18336,0.95443 -0.12752,0.50805 -1.06027,1.06765 -2.06157,1.23682 -0.42267,0.0714 -0.92898,0.2301 -1.12512,0.35265 -0.19615,0.12254 -0.93447,0.2763 -1.64071,0.34167 -0.70625,0.0654 -1.55989,0.2341 -1.89699,0.37495 -0.33761,0.14106 -1.74154,0.3357 -3.12564,0.43334 -1.38201,0.0975 -3.14774,0.24938 -3.92385,0.33753 -1.58587,0.18011 -8.79061,0.24359 -8.9553,0.0789 z m 15.55165,-1.58927 c 3.09771,-0.43078 5.2202,-1.0074 5.86881,-1.59437 0.39105,-0.3539 0.33367,-1.12826 -0.15342,-2.07018 -0.1484,-0.28697 -0.3392,-1.07433 -0.424,-1.74968 -0.0848,-0.67535 -0.24476,-1.33705 -0.35547,-1.47045 -0.11071,-0.1334 -0.25577,-1.01566 -0.32236,-1.96058 -0.0666,-0.94492 -0.21412,-1.88983 -0.32785,-2.09981 -0.11373,-0.20998 -0.25425,-1.20217 -0.31226,-2.20486 -0.058,-1.0027 -0.22068,-2.24273 -0.36147,-2.75563 -0.1408,-0.5129 -0.29777,-1.86227 -0.34884,-2.99861 -0.0511,-1.13634 -0.20299,-2.54232 -0.33761,-3.1244 -0.13461,-0.58209 -0.28728,-1.8124 -0.33925,-2.73403 -0.052,-0.92163 -0.21448,-2.06534 -0.36113,-2.54158 -0.14665,-0.47623 -0.26923,-1.38904 -0.27241,-2.02847 -0.006,-1.12611 -0.15638,-2.4146 -0.51766,-4.42338 -0.0957,-0.53225 -0.18305,-2.59481 -0.19405,-4.58345 -0.0113,-2.03505 -0.0973,-3.76004 -0.1967,-3.94586 -0.1403,-0.26215 -0.29137,-0.30504 -0.73368,-0.20828 -0.30635,0.067 -1.86669,0.19683 -3.46742,0.28848 -1.60072,0.0916 -3.62479,0.2368 -4.49791,0.32256 -0.87313,0.0858 -3.69094,0.16401 -6.26181,0.17389 -3.32931,0.0128 -4.79755,0.0807 -5.10262,0.23584 -0.39557,0.20122 -0.42508,0.30659 -0.38584,1.37775 0.0323,0.88048 -0.0247,1.21563 -0.23644,1.39136 -0.23346,0.19375 -0.33509,0.18068 -0.62332,-0.0802 -0.29226,-0.26449 -0.32863,-0.46252 -0.24023,-1.3082 0.0853,-0.81645 0.0486,-1.04262 -0.20312,-1.25154 -0.31381,-0.26044 -2.52366,-0.42348 -11.81746,-0.87187 -2.1343,-0.10297 -4.75368,-0.30307 -5.82083,-0.44467 -2.91553,-0.38687 -3.37357,-0.42028 -3.62564,-0.26449 -0.14649,0.0905 -0.27863,0.74471 -0.36119,1.78818 -0.0716,0.90499 -0.20849,1.96293 -0.3042,2.35098 -0.0957,0.38806 -0.23029,1.89538 -0.29909,3.3496 -0.0688,1.45423 -0.20295,2.84329 -0.29812,3.08681 -0.0952,0.24352 -0.24062,1.55746 -0.32325,2.91987 -0.0826,1.36241 -0.23626,2.83085 -0.34141,3.26319 -0.10516,0.43235 -0.26068,2.0164 -0.3456,3.52012 -0.0849,1.50371 -0.23651,2.94543 -0.33687,3.20381 -0.10036,0.25838 -0.26482,2.4015 -0.36546,4.7625 -0.10065,2.36099 -0.30012,5.24521 -0.44328,6.40938 -0.29436,2.39388 -0.42742,5.63974 -0.23892,5.82842 0.0689,0.069 0.4261,0.1884 0.79375,0.26538 0.36764,0.077 1.10501,0.2644 1.63859,0.41648 0.53357,0.15208 1.24795,0.27831 1.5875,0.28051 0.33955,0.002 0.97455,0.11177 1.41111,0.2435 0.43656,0.13172 1.50812,0.29797 2.38125,0.36944 0.87312,0.0715 1.72868,0.20498 1.90123,0.29668 0.17256,0.0917 1.28381,0.24474 2.46945,0.3401 1.18564,0.0954 2.55258,0.26466 3.03765,0.37622 1.10314,0.25372 12.73895,0.44639 21.16667,0.35049 5.30851,-0.0604 6.6036,-0.13005 9.24218,-0.49698 z"
         id="path41"
         sodipodi:nodetypes="sssssssssssssscsssssssccsscsssssssssssssscscssssssssssssssssssssssssssssssscssssssssssssssssssssssssssssscssssssss" />
    </g>
    <path
       style="fill:none;fill-opacity:1;stroke:#aaaaaa;stroke-width:0.7;stroke-linecap:round;stroke-linejoin:round;stroke-dasharray:none;stroke-opacity:1"
       d="m 140.37231,-143.20003 c 0.2436,0.0487 0.48721,0.0975 0.73081,0.14617 0.57072,0.11414 1.95622,0.51723 2.63094,0.29232 0.93506,-0.31168 0.51119,-0.58469 1.75395,-0.43849 1.16312,0.13684 1.73839,0.47114 2.7771,0.73082 0.41111,0.10278 0.70903,-0.28144 1.02314,-0.43849 0.4406,-0.2203 1.31767,0.0838 1.75396,0.14616 0.44282,0.0633 1.35306,0.13363 1.75395,0 0.0462,-0.0154 -0.0345,-0.11171 0,-0.14616 0.0487,-0.0487 0.0974,0.0974 0.14616,0.14616 0.0387,0.0387 0.3783,0 0.43849,0"
       id="path103" />
    <path
       style="fill:none;fill-opacity:1;stroke:#aaaaaa;stroke-width:0.7;stroke-linecap:round;stroke-linejoin:round;stroke-dasharray:none;stroke-opacity:1"
       d="m 140.51848,-137.93815 c 1.09318,0.24742 2.21216,0.42006 3.36175,0.29232 0.54138,-0.0602 1.06606,-0.2353 1.60779,-0.29232 0.9702,-0.10213 2.09354,0 3.06942,0 0.25738,0 0.63298,-0.0813 0.87698,0 0.0654,0.0218 0.0845,0.11535 0.14616,0.14616 0.31029,0.15515 0.7285,0.145 1.02315,0.29233 0.0616,0.0308 0.0808,0.12437 0.14616,0.14616 0.33868,0.11289 0.30729,-0.14616 0.58465,-0.14616"
       id="path104" />
    <path
       style="fill:none;fill-opacity:1;stroke:#aaaaaa;stroke-width:0.7;stroke-linecap:round;stroke-linejoin:round;stroke-dasharray:none;stroke-opacity:1"
       d="m 140.95697,-132.67629 c 2.70386,0.24511 5.48377,-0.27014 8.18513,0 0.1084,0.0109 0.18549,0.1248 0.29232,0.14616 0.27935,0.0559 0.76071,0.0149 1.02314,0.14617 0.28486,0.14242 0.23171,0.29232 0.58466,0.29232"
       id="path105" />
    <path
       style="fill:none;fill-opacity:1;stroke:#aaaaaa;stroke-width:0.7;stroke-linecap:round;stroke-linejoin:round;stroke-dasharray:none;stroke-opacity:1"
       d="m 156.1579,-137.57276 c 0.16855,0.0172 0.24661,-0.43237 0.36541,-0.51157 0.0641,-0.0427 0.16478,-0.0186 0.21925,-0.0731 0.0172,-0.0172 -0.0172,-0.0559 0,-0.0731 0.0344,-0.0344 0.10258,0.0218 0.14616,0 0.55851,-0.27925 0.86377,-0.29233 1.53471,-0.29233 0.0862,0 0.45316,-0.0584 0.51157,0 0.0172,0.0172 -0.0172,0.0559 0,0.0731 0.0611,0.0611 0.3694,0.004 0.43849,0.0731 0.0172,0.0172 -0.0172,0.0558 0,0.0731 0.0344,0.0344 0.11171,-0.0345 0.14616,0 0.0172,0.0172 -0.0172,0.0558 0,0.0731 0.0244,0.0244 0.19489,0.0487 0.21925,0.0731 0.0365,0.0365 0.0365,0.10962 0.0731,0.14616 0.0172,0.0172 0.0559,-0.0172 0.0731,0 0.0345,0.0345 -0.0218,0.10259 0,0.14617 0.0533,0.10658 0.11691,0.11691 0.14616,0.14616 0.0691,0.0691 0.012,0.37735 0.0731,0.43849 0.0172,0.0172 0.0558,-0.0172 0.0731,0 0.0463,0.0463 -0.0304,0.23148 0,0.29232 0.17405,0.34811 0.007,0.717 -0.14617,1.02314 -0.0221,0.0443 -0.0424,0.18863 -0.0731,0.21925 -0.063,0.063 -0.36666,0.14679 -0.51157,0.21924 -0.0436,0.0218 -0.10258,-0.0218 -0.14616,0 -0.1999,0.1 -0.38476,0.19238 -0.58465,0.29233 -0.0436,0.0218 -0.11172,-0.0345 -0.14617,0 -0.0172,0.0172 0.0172,0.0559 0,0.0731 -0.0366,0.0366 -0.24441,0.0252 -0.29232,0.0731 -0.0365,0.0365 -0.0365,0.10963 -0.0731,0.14616 -0.0172,0.0172 -0.0559,-0.0172 -0.0731,0 -0.19867,0.19868 0.0365,1.16948 -0.0731,1.38855 -0.0154,0.0308 -0.0577,0.0423 -0.0731,0.0731 -0.0497,0.0995 0.0872,0.21924 -0.0731,0.21924"
       id="path106" />
    <path
       style="fill:none;fill-opacity:1;stroke:#aaaaaa;stroke-width:0.7;stroke-linecap:round;stroke-linejoin:round;stroke-dasharray:none;stroke-opacity:1"
       d="m 157.69262,-131.43391 0.29232,0.14616"
       id="path107" />
    <rect
       style="fill:#ffffff;fill-opacity:1;stroke:#717171;stroke-width:1.2;stroke-dasharray:none;stroke-opacity:1"
       id="rect12"
       width="42.858932"
       height="57.241833"
       x="18.97871"
       y="25.934662" />
    <ellipse
       style="fill:#aaaaaa;fill-opacity:1;stroke:none;stroke-width:1.2;stroke-dasharray:none;stroke-opacity:1"
       id="path50"
       cx="30.568142"
       cy="56.988495"
       rx="5.1114383"
       ry="4.8590217" />
    <rect
       style="fill:none;fill-opacity:1;stroke:#aaaaaa;stroke-width:0.7;stroke-linecap:round;stroke-linejoin:round;stroke-dasharray:none;stroke-opacity:1"
       id="rect50"
       width="27.513422"
       height="30.163799"
       x="22.680126"
       y="48.974251" />
    <path
       style="fill:#aaaaaa;fill-opacity:1;stroke:none;stroke-width:1.2;stroke-linecap:round;stroke-linejoin:round;stroke-dasharray:none;stroke-opacity:1"
       d="m 24.69948,77.497409 v -5.305081 l 5.19515,-5.305024 3.06143,3.018386 8.8132,-8.689226 6.21566,6.128199 v 10.15265 H 24.69948"
       id="path51"
       sodipodi:nodetypes="cccccccc" />
    <path
       style="fill:#aaaaaa;fill-opacity:1;stroke:#aaaaaa;stroke-width:0.7;stroke-linecap:round;stroke-linejoin:round;stroke-dasharray:none;stroke-opacity:1"
       d="m 22.829,35.217539 c 34.53577,0 34.53577,0 34.53577,0"
       id="path52" />
    <g
       id="g55"
       transform="translate(-106.47987,26.729885)">
      <ellipse
         style="fill:none;fill-opacity:1;stroke:#aaaaaa;stroke-width:0.5;stroke-dasharray:none;stroke-opacity:1"
         id="ellipse53"
         cx="161.54668"
         cy="3.7548561"
         rx="2.3979585"
         ry="2.3348544" />
      <path
         style="fill:none;fill-opacity:1;stroke:#aaaaaa;stroke-width:0.4;stroke-linecap:round;stroke-linejoin:round;stroke-dasharray:none;stroke-opacity:1"
         d="m 160.47577,3.1234874 c 2.14182,0 2.14182,0 2.14182,0"
         id="path53" />
      <path
         style="fill:none;fill-opacity:1;stroke:#aaaaaa;stroke-width:0.4;stroke-linecap:round;stroke-linejoin:round;stroke-dasharray:none;stroke-opacity:1"
         d="m 160.47577,4.2390223 c 2.14182,0 2.14182,0 2.14182,0"
         id="path55" />
    </g>
    <rect
       style="fill:#aaaaaa;fill-opacity:1;stroke:#aaaaaa;stroke-width:0.400737;stroke-linecap:round;stroke-linejoin:round;stroke-dasharray:none;stroke-opacity:1"
       id="rect55"
       width="4.1682873"
       height="4.6637192"
       x="-7.1495218"
       y="37.943062"
       transform="matrix(0.73677014,-0.67614329,0.73677014,0.67614329,0,0)" />
    <rect
       style="fill:#aaaaaa;fill-opacity:1;stroke:#aaaaaa;stroke-width:0.400737;stroke-linecap:round;stroke-linejoin:round;stroke-dasharray:none;stroke-opacity:1"
       id="rect56"
       width="4.1682873"
       height="4.6637192"
       x="-5.6462946"
       y="39.710266"
       transform="matrix(0.73677014,-0.67614329,0.73677014,0.67614329,0,0)" />
    <path
       style="fill:#aaaaaa;fill-opacity:1;stroke:#aaaaaa;stroke-width:0.4;stroke-linecap:round;stroke-linejoin:round;stroke-dasharray:none;stroke-opacity:1"
       d="M 23.58651,40.125892 H 57.22985"
       id="path59"
       sodipodi:nodetypes="cc" />
    <path
       style="fill:#aaaaaa;fill-opacity:1;stroke:#aaaaaa;stroke-width:0.4;stroke-linecap:round;stroke-linejoin:round;stroke-dasharray:none;stroke-opacity:1"
       d="M 23.58651,42.356962 H 57.22985"
       id="path60"
       sodipodi:nodetypes="cc" />
    <path
       style="fill:#aaaaaa;fill-opacity:1;stroke:#aaaaaa;stroke-width:0.4;stroke-linecap:round;stroke-linejoin:round;stroke-dasharray:none;stroke-opacity:1"
       d="M 23.58651,44.945003 H 57.22985"
       id="path61"
       sodipodi:nodetypes="cc" />
    <rect
       style="fill:#ffffff;fill-opacity:1;stroke:#717171;stroke-width:1.2;stroke-dasharray:none;stroke-opacity:1"
       id="rect11"
       width="42.858932"
       height="57.241833"
       x="39.444107"
       y="41.714218" />
    <path
       style="fill:#aaaaaa;fill-opacity:1;stroke:#aaaaaa;stroke-width:0.4;stroke-linecap:round;stroke-linejoin:round;stroke-dasharray:none;stroke-opacity:1"
       d="M 44.051905,48.619422 H 77.695244"
       id="path71"
       sodipodi:nodetypes="cc" />
    <path
       style="fill:#aaaaaa;fill-opacity:1;stroke:#aaaaaa;stroke-width:0.4;stroke-linecap:round;stroke-linejoin:round;stroke-dasharray:none;stroke-opacity:1"
       d="M 44.051905,51.082523 H 77.695244"
       id="path72"
       sodipodi:nodetypes="cc" />
    <path
       style="fill:#aaaaaa;fill-opacity:1;stroke:#aaaaaa;stroke-width:0.4;stroke-linecap:round;stroke-linejoin:round;stroke-dasharray:none;stroke-opacity:1"
       d="M 44.051905,53.545624 H 77.695244"
       id="path73"
       sodipodi:nodetypes="cc" />
    <path
       style="fill:#aaaaaa;fill-opacity:1;stroke:#aaaaaa;stroke-width:0.4;stroke-linecap:round;stroke-linejoin:round;stroke-dasharray:none;stroke-opacity:1"
       d="M 44.051905,56.008725 H 77.695244"
       id="path74"
       sodipodi:nodetypes="cc" />
    <path
       style="fill:#aaaaaa;fill-opacity:1;stroke:#aaaaaa;stroke-width:0.4;stroke-linecap:round;stroke-linejoin:round;stroke-dasharray:none;stroke-opacity:1"
       d="M 44.051905,58.471826 H 77.695244"
       id="path75"
       sodipodi:nodetypes="cc" />
    <path
       style="fill:#aaaaaa;fill-opacity:1;stroke:#aaaaaa;stroke-width:0.4;stroke-linecap:round;stroke-linejoin:round;stroke-dasharray:none;stroke-opacity:1"
       d="M 44.051905,60.934927 H 77.695244"
       id="path76"
       sodipodi:nodetypes="cc" />
    <rect
       style="fill:#aaaaaa;fill-opacity:1;stroke:#aaaaaa;stroke-width:0.7;stroke-linecap:round;stroke-linejoin:round;stroke-dasharray:none;stroke-opacity:1"
       id="rect76"
       width="33.109074"
       height="18.919472"
       x="44.134949"
       y="63.863972" />
    <rect
       style="fill:#ffffff;fill-opacity:1;stroke:#aaaaaa;stroke-width:0.7;stroke-linecap:round;stroke-linejoin:round;stroke-dasharray:none;stroke-opacity:1"
       id="rect87"
       width="26.975107"
       height="9.5084658"
       x="47.201935"
       y="68.430557"
       ry="4.7542329" />
    <path
       style="fill:#aaaaaa;fill-opacity:1;stroke:#aaaaaa;stroke-width:0.4;stroke-linecap:round;stroke-linejoin:round;stroke-dasharray:none;stroke-opacity:1"
       d="m 63.768484,89.988731 h 17.10688"
       id="path88"
       sodipodi:nodetypes="cc" />
    <path
       style="fill:#aaaaaa;fill-opacity:1;stroke:#aaaaaa;stroke-width:0.4;stroke-linecap:round;stroke-linejoin:round;stroke-dasharray:none;stroke-opacity:1"
       d="m 69.039484,92.727581 h 11.83588"
       id="path89"
       sodipodi:nodetypes="cc" />
    <path
       style="fill:#aaaaaa;fill-opacity:1;stroke:#aaaaaa;stroke-width:0.4;stroke-linecap:round;stroke-linejoin:round;stroke-dasharray:none;stroke-opacity:1"
       d="m 73.690364,95.466431 h 7.185"
       id="path90"
       sodipodi:nodetypes="cc" />
    <path
       style="fill:#aaaaaa;fill-opacity:1;stroke:#aaaaaa;stroke-width:0.4;stroke-linecap:round;stroke-linejoin:round;stroke-dasharray:none;stroke-opacity:1"
       d="m 78.186214,98.205281 h 2.68915"
       id="path91"
       sodipodi:nodetypes="cc" />
    <rect
       style="fill:#ffffff;fill-opacity:1;stroke:#aaaaaa;stroke-width:0.699998;stroke-linecap:round;stroke-linejoin:round;stroke-dasharray:none;stroke-opacity:1"
       id="rect91"
       width="13.528109"
       height="4.2465968"
       x="44.352127"
       y="90.593109"
       ry="2.1232984" />
    <path
       style="fill:#aaaaaa;fill-opacity:1;stroke:#aaaaaa;stroke-width:0.4;stroke-linecap:round;stroke-linejoin:round;stroke-dasharray:none;stroke-opacity:1"
       d="m 47.819505,92.762414 h 7.185"
       id="path92"
       sodipodi:nodetypes="cc" />
    <rect
       style="fill:#ffffff;fill-opacity:1;stroke:#717171;stroke-width:1.2;stroke-dasharray:none;stroke-opacity:1"
       id="rect61"
       width="42.858932"
       height="57.241833"
       x="60.673058"
       y="61.492889" />
    <g
       id="g69"
       transform="matrix(0.61467889,0,0,0.61924687,-47.104555,61.174944)"
       style="stroke-width:1.62085">
      <ellipse
         style="fill:#aaaaaa;fill-opacity:1;stroke:none;stroke-width:1.94503;stroke-dasharray:none;stroke-opacity:1"
         id="ellipse61"
         cx="189.24942"
         cy="30.889654"
         rx="5.1114383"
         ry="4.8590217" />
      <rect
         style="fill:none;fill-opacity:1;stroke:#aaaaaa;stroke-width:1.1346;stroke-linecap:round;stroke-linejoin:round;stroke-dasharray:none;stroke-opacity:1"
         id="rect62"
         width="27.513422"
         height="30.163799"
         x="181.3614"
         y="22.875408" />
      <path
         style="fill:#aaaaaa;fill-opacity:1;stroke:none;stroke-width:1.94503;stroke-linecap:round;stroke-linejoin:round;stroke-dasharray:none;stroke-opacity:1"
         d="m 183.38076,51.398567 v -5.305081 l 5.19515,-5.305024 3.06143,3.018386 8.8132,-8.689226 6.21566,6.128199 v 10.15265 h -23.28544"
         id="path62"
         sodipodi:nodetypes="cccccccc" />
    </g>
    <g
       id="g65"
       transform="translate(-64.785515,62.28811)">
      <ellipse
         style="fill:#ababab;fill-opacity:1;stroke:none;stroke-width:0.5;stroke-dasharray:none;stroke-opacity:1"
         id="ellipse63"
         cx="163.12427"
         cy="3.8810647"
         rx="1.7038125"
         ry="1.5776042" />
      <ellipse
         style="fill:#ababab;fill-opacity:1;stroke:none;stroke-width:0.5;stroke-dasharray:none;stroke-opacity:1"
         id="ellipse68"
         cx="163.12427"
         cy="8.1721487"
         rx="1.7038125"
         ry="1.5776042" />
      <ellipse
         style="fill:#ababab;fill-opacity:1;stroke:none;stroke-width:0.5;stroke-dasharray:none;stroke-opacity:1"
         id="ellipse69"
         cx="163.12427"
         cy="12.463233"
         rx="1.7038125"
         ry="1.5776042" />
    </g>
    <rect
       style="fill:#aaaaaa;fill-opacity:1;stroke:#aaaaaa;stroke-width:0.400737;stroke-linecap:round;stroke-linejoin:round;stroke-dasharray:none;stroke-opacity:1"
       id="rect65"
       width="4.1682873"
       height="4.6637192"
       x="-5.1490602"
       y="92.53331"
       transform="matrix(0.73677014,-0.67614329,0.73677014,0.67614329,0,0)" />
    <rect
       style="fill:#aaaaaa;fill-opacity:1;stroke:#aaaaaa;stroke-width:0.400737;stroke-linecap:round;stroke-linejoin:round;stroke-dasharray:none;stroke-opacity:1"
       id="rect66"
       width="4.1682873"
       height="4.6637192"
       x="-3.6458237"
       y="94.300507"
       transform="matrix(0.73677014,-0.67614329,0.73677014,0.67614329,0,0)" />
    <path
       style="fill:#aaaaaa;fill-opacity:1;stroke:#aaaaaa;stroke-width:0.4;stroke-linecap:round;stroke-linejoin:round;stroke-dasharray:none;stroke-opacity:1"
       d="m 65.280854,107.50507 h 33.64334"
       id="path66"
       sodipodi:nodetypes="cc" />
    <path
       style="fill:#aaaaaa;fill-opacity:1;stroke:#aaaaaa;stroke-width:0.4;stroke-linecap:round;stroke-linejoin:round;stroke-dasharray:none;stroke-opacity:1"
       d="m 65.280854,110.45786 h 33.64334"
       id="path67"
       sodipodi:nodetypes="cc" />
    <path
       style="fill:#aaaaaa;fill-opacity:1;stroke:#aaaaaa;stroke-width:0.4;stroke-linecap:round;stroke-linejoin:round;stroke-dasharray:none;stroke-opacity:1"
       d="m 65.280854,113.41064 h 33.64334"
       id="path68"
       sodipodi:nodetypes="cc" />
    <g
       id="g70"
       transform="matrix(0.61467889,0,0,0.61924687,-28.203926,69.117552)"
       style="stroke-width:1.62085">
      <ellipse
         style="fill:#aaaaaa;fill-opacity:1;stroke:none;stroke-width:1.94503;stroke-dasharray:none;stroke-opacity:1"
         id="ellipse70"
         cx="189.24942"
         cy="30.889654"
         rx="5.1114383"
         ry="4.8590217" />
      <rect
         style="fill:none;fill-opacity:1;stroke:#aaaaaa;stroke-width:1.1346;stroke-linecap:round;stroke-linejoin:round;stroke-dasharray:none;stroke-opacity:1"
         id="rect70"
         width="27.513422"
         height="30.163799"
         x="181.3614"
         y="22.875408" />
      <path
         style="fill:#aaaaaa;fill-opacity:1;stroke:none;stroke-width:1.94503;stroke-linecap:round;stroke-linejoin:round;stroke-dasharray:none;stroke-opacity:1"
         d="m 183.38076,51.398567 v -5.305081 l 5.19515,-5.305024 3.06143,3.018386 8.8132,-8.689226 6.21566,6.128199 v 10.15265 h -23.28544"
         id="path70"
         sodipodi:nodetypes="cccccccc" />
    </g>
    <path
       style="fill:#aaaaaa;fill-opacity:1;stroke:#aaaaaa;stroke-width:0.400001;stroke-linecap:round;stroke-linejoin:round;stroke-dasharray:none;stroke-opacity:1"
       d="m 65.154564,104.55229 h 12.39853"
       id="path93"
       sodipodi:nodetypes="cc" />
    <path
       style="fill:#aaaaaa;fill-opacity:1;stroke:#aaaaaa;stroke-width:0.400001;stroke-linecap:round;stroke-linejoin:round;stroke-dasharray:none;stroke-opacity:1"
       d="m 65.154564,101.5995 h 12.39853"
       id="path94"
       sodipodi:nodetypes="cc" />
    <path
       style="fill:#aaaaaa;fill-opacity:1;stroke:#aaaaaa;stroke-width:0.400001;stroke-linecap:round;stroke-linejoin:round;stroke-dasharray:none;stroke-opacity:1"
       d="m 65.154564,98.646716 h 12.39853"
       id="path95"
       sodipodi:nodetypes="cc" />
  </g>
</svg>
