<?xml version="1.0" encoding="UTF-8" standalone="no"?>
<svg
   width="210mm"
   height="630mm"
   version="1.1"
   viewBox="0 0 210 630"
   id="svg18"
   sodipodi:docname="running-thread-mockup.svg"
   inkscape:version="1.4.2 (ebf0e940, 2025-05-08)"
   xmlns:inkscape="http://www.inkscape.org/namespaces/inkscape"
   xmlns:sodipodi="http://sodipodi.sourceforge.net/DTD/sodipodi-0.dtd"
   xmlns="http://www.w3.org/2000/svg"
   xmlns:svg="http://www.w3.org/2000/svg">
  <sodipodi:namedview
     id="namedview18"
     pagecolor="#ffffff"
     bordercolor="#000000"
     borderopacity="0.25"
     inkscape:showpageshadow="2"
     inkscape:pageopacity="0.0"
     inkscape:pagecheckerboard="0"
     inkscape:deskcolor="#d1d1d1"
     inkscape:document-units="mm"
     inkscape:zoom="0.34941799"
     inkscape:cx="399.23531"
     inkscape:cy="1206.2916"
     inkscape:window-width="1744"
     inkscape:window-height="826"
     inkscape:window-x="2104"
     inkscape:window-y="25"
     inkscape:window-maximized="0"
     inkscape:current-layer="svg18" />
  <defs
     id="defs6">
    <linearGradient
       id="b"
       x1="-31.601"
       x2="258.21"
       y1="-59.064"
       y2="-59.064"
       gradientUnits="userSpaceOnUse">
      <stop
         stop-color="#f2d552"
         stop-opacity=".8453"
         offset="0"
         id="stop1" />
      <stop
         stop-color="#f1d941"
         stop-opacity=".91765"
         offset=".4715"
         id="stop2" />
      <stop
         stop-color="#f2e552"
         offset="1"
         id="stop3" />
    </linearGradient>
    <linearGradient
       id="a"
       x1="-32.814"
       x2="257"
       y1="-53.781"
       y2="-53.781"
       gradientUnits="userSpaceOnUse">
      <stop
         stop-color="#f2d552"
         stop-opacity=".8453"
         offset="0"
         id="stop4" />
      <stop
         stop-color="#f2e152"
         stop-opacity=".88843"
         offset=".26166"
         id="stop5" />
      <stop
         stop-color="#f2d152"
         stop-opacity=".8902"
         offset=".70725"
         id="stop6" />
    </linearGradient>
  </defs>
  <g
     transform="translate(0,333)"
     fill="none"
     stroke-linecap="round"
     stroke-linejoin="round"
     id="g18">
    <path
       d="m-32.098-281.61c9.2696 2.6048 21.858 8.123 32.984 9.3989 19.979 6.7041 41.556 6.3521 61.991 12.04 16.27 4.194 28.448 6.0509 39.711 12.255 16.158 10.003 34.908 19.799 44.792 35.221 9.9674 16.807 15.018 37.184 9.3132 55.934-5.105 12.16-12.302 24.079-23.068 30.595-6.7496 4.3021-17.031 9.1823-25.743 13.737-10.461 4.944-18.431 12.156-24.939 20.244-4.4144 7.1092-8.6017 11.307-12.067 20.244-5.4335 16.594-14.786 31.914-20.916 48.44-8.7086 29.242-3.7582 32.387 1.2963 48.061 3.8017 17.121 9.6164 31.261 18.011 45.204 8.592 13.021 19.323 25.977 28.147 38.427 11.065 6.149 23.232 16.258 35.697 22.678 16.995 9.5114 34.855 15.479 53.609 21.316 21.674 10.479 46.999 11.666 70.794 16.629"
       stroke="#f1dd8b"
       stroke-opacity=".34254"
       stroke-width=".5"
       id="path6" />
    <path
       d="m-31.904-282.56c9.2696 2.6048 21.858 8.123 32.984 9.3989 19.979 6.7041 41.556 6.3521 61.991 12.04 16.27 4.194 28.448 6.0509 39.711 12.255 16.158 10.003 34.908 19.799 44.792 35.221 9.9674 16.807 15.018 37.184 9.3132 55.934-5.105 12.16-12.302 24.079-23.068 30.595-6.7496 4.3021-17.031 9.1823-25.743 13.737-10.461 4.944-18.431 12.156-24.939 20.244-4.4144 7.1092-8.6017 11.307-12.067 20.244-5.4335 16.594-14.786 31.914-20.916 48.44-8.7086 29.242-3.7582 32.387 1.2963 48.061 3.8017 17.121 9.6164 31.261 18.011 45.204 8.592 13.021 19.323 25.977 28.147 38.427 11.065 6.149 23.232 16.258 35.697 22.678 16.995 9.5114 34.855 15.479 53.609 21.316 21.674 10.479 46.999 11.666 70.794 16.629"
       stroke="#f1dd8b"
       stroke-opacity=".37937"
       stroke-width=".5"
       id="path7" />
    <path
       d="m-32.2-281.15c9.2696 2.6048 21.858 8.123 32.984 9.3989 19.979 6.7041 41.556 6.3521 61.991 12.04 16.27 4.194 28.448 6.0509 39.711 12.255 16.158 10.003 34.908 19.799 44.792 35.221 9.9674 16.807 15.018 37.184 9.3132 55.934-5.105 12.16-12.302 24.079-23.068 30.595-6.7496 4.3021-17.031 9.1823-25.743 13.737-10.461 4.944-18.431 12.156-24.939 20.244-4.4144 7.1092-8.6017 11.307-12.067 20.244-5.4335 16.594-14.786 31.914-20.916 48.44-8.7086 29.242-3.7582 32.387 1.2963 48.061 3.8017 17.121 9.6164 31.261 18.011 45.204 8.592 13.021 19.323 25.977 28.147 38.427 11.065 6.149 23.232 16.258 35.697 22.678 16.995 9.5114 34.855 15.479 53.609 21.316 21.674 10.479 46.999 11.666 70.794 16.629"
       stroke="#f1dd8b"
       stroke-opacity=".32965"
       stroke-width=".5"
       id="path8" />
    <path
       d="m-31.988-282.08c9.2696 2.6048 21.858 8.123 32.984 9.3989 19.979 6.7041 41.556 6.3521 61.991 12.04 16.27 4.194 28.448 6.0509 39.711 12.255 16.158 10.003 34.908 19.799 44.792 35.221 9.9674 16.807 15.018 37.184 9.3132 55.934-5.105 12.16-12.302 24.079-23.068 30.595-6.7496 4.3021-17.031 9.1823-25.743 13.737-10.461 4.944-18.431 12.156-24.939 20.244-4.4144 7.1092-8.6017 11.307-12.067 20.244-5.4335 16.594-14.786 31.914-20.916 48.44-8.7086 29.242-3.7582 32.387 1.2963 48.061 3.8017 17.121 9.6164 31.261 18.011 45.204 8.592 13.021 19.323 25.977 28.147 38.427 11.065 6.149 23.232 16.258 35.697 22.678 16.995 9.5114 34.855 15.479 53.609 21.316 21.674 10.479 46.999 11.666 70.794 16.629"
       stroke="#f1dd8b"
       stroke-opacity=".32965"
       stroke-width=".5"
       id="path9" />
    <path
       d="m-31.797-283.03c9.2696 2.6048 21.858 8.123 32.984 9.3989 19.979 6.7041 41.556 6.3521 61.991 12.04 16.27 4.194 28.448 6.0509 39.711 12.255 16.158 10.003 34.908 19.799 44.792 35.221 9.9674 16.807 15.018 37.184 9.3132 55.934-5.105 12.16-12.302 24.079-23.068 30.595-6.7496 4.3021-17.031 9.1823-25.743 13.737-10.461 4.944-18.431 12.156-24.939 20.244-4.4144 7.1092-8.6017 11.307-12.067 20.244-5.4335 16.594-14.786 31.914-20.916 48.44-8.7086 29.242-3.7582 32.387 1.2963 48.061 3.8017 17.121 9.6164 31.261 18.011 45.204 8.592 13.021 19.323 25.977 28.147 38.427 11.065 6.149 23.232 16.258 35.697 22.678 16.995 9.5114 34.855 15.479 53.609 21.316 21.674 10.479 46.999 11.666 70.794 16.629"
       stroke="#f1dd8b"
       stroke-opacity=".32965"
       stroke-width=".5"
       id="path10" />
    <path
       d="m-31.507-283.93c9.2696 2.6048 21.858 8.123 32.984 9.3989 19.979 6.7041 41.556 6.3521 61.991 12.04 16.27 4.194 28.448 6.0509 39.711 12.255 16.158 10.003 34.908 19.799 44.792 35.221 9.9674 16.807 15.018 37.184 9.3132 55.934-5.105 12.16-12.302 24.079-23.068 30.595-6.7496 4.3021-17.031 9.1823-25.743 13.737-10.461 4.944-18.431 12.156-24.939 20.244-4.4144 7.1092-8.6017 11.307-12.067 20.244-5.4335 16.594-14.786 31.914-20.916 48.44-8.7086 29.242-3.7582 32.387 1.2963 48.061 3.8017 17.121 9.6164 31.261 18.011 45.204 8.592 13.021 19.323 25.977 28.147 38.427 11.065 6.149 23.232 16.258 35.697 22.678 16.995 9.5114 34.855 15.479 53.609 21.316 21.674 10.479 46.999 11.666 70.794 16.629"
       stroke="#f1dd8b"
       stroke-opacity=".32965"
       stroke-width=".5"
       id="path11" />
    <path
       d="m-32.294-280.68c9.2696 2.6048 21.858 8.123 32.984 9.3989 19.979 6.7041 41.556 6.3521 61.991 12.04 16.27 4.194 28.448 6.0509 39.711 12.255 16.158 10.003 34.908 19.799 44.792 35.221 9.9674 16.807 15.018 37.184 9.3132 55.934-5.105 12.16-12.302 24.079-23.068 30.595-6.7496 4.3021-17.031 9.1823-25.743 13.737-10.461 4.944-18.431 12.156-24.939 20.244-4.4144 7.1092-8.6017 11.307-12.067 20.244-5.4335 16.594-14.786 31.914-20.916 48.44-8.7086 29.242-3.7582 32.387 1.2963 48.061 3.8017 17.121 9.6164 31.261 18.011 45.204 8.592 13.021 19.323 25.977 28.147 38.427 11.065 6.149 23.232 16.258 35.697 22.678 16.995 9.5114 34.855 15.479 53.609 21.316 21.674 10.479 46.999 11.666 70.794 16.629"
       stroke="#f1dd8b"
       stroke-opacity=".33886"
       stroke-width=".5"
       id="path12" />
    <path
       d="m-32.379-280.21c9.2696 2.6048 21.858 8.123 32.984 9.3989 19.979 6.7041 41.556 6.3521 61.991 12.04 16.27 4.194 28.448 6.0509 39.711 12.255 16.158 10.003 34.908 19.799 44.792 35.221 9.9674 16.807 15.018 37.184 9.3132 55.934-5.105 12.16-12.302 24.079-23.068 30.595-6.7496 4.3021-17.031 9.1823-25.743 13.737-10.461 4.944-18.431 12.156-24.939 20.244-4.4144 7.1092-8.6017 11.307-12.067 20.244-5.4335 16.594-14.786 31.914-20.916 48.44-8.7086 29.242-3.7582 32.387 1.2963 48.061 3.8017 17.121 9.6164 31.261 18.011 45.204 8.592 13.021 19.323 25.977 28.147 38.427 11.065 6.149 23.232 16.258 35.697 22.678 16.995 9.5114 34.855 15.479 53.609 21.316 21.674 10.479 46.999 11.666 70.794 16.629"
       stroke="#f1dd8b"
       stroke-opacity=".32965"
       stroke-width=".5"
       id="path13" />
    <path
       d="m-32.449-279.74c9.2696 2.6048 21.858 8.123 32.984 9.3989 19.979 6.7041 41.556 6.3521 61.991 12.04 16.27 4.194 28.448 6.0509 39.711 12.255 16.158 10.003 34.908 19.799 44.792 35.221 9.9674 16.807 15.018 37.184 9.3132 55.934-5.105 12.16-12.302 24.079-23.068 30.595-6.7496 4.3021-17.031 9.1823-25.743 13.737-10.461 4.944-18.431 12.156-24.939 20.244-4.4144 7.1092-8.6017 11.307-12.067 20.244-5.4335 16.594-14.786 31.914-20.916 48.44-8.7086 29.242-3.7582 32.387 1.2963 48.061 3.8017 17.121 9.6164 31.261 18.011 45.204 8.592 13.021 19.323 25.977 28.147 38.427 11.065 6.149 23.232 16.258 35.697 22.678 16.995 9.5114 34.855 15.479 53.609 21.316 21.674 10.479 46.999 11.666 70.794 16.629"
       stroke="#f1dd8b"
       stroke-opacity=".35727"
       stroke-width=".5"
       id="path14" />
    <path
       d="m-32.539-279.27c9.2696 2.6048 21.858 8.123 32.984 9.3989 19.979 6.7041 41.556 6.3521 61.991 12.04 16.27 4.194 28.448 6.0509 39.711 12.255 16.158 10.003 34.908 19.799 44.792 35.221 9.9674 16.807 15.018 37.184 9.3132 55.934-5.105 12.16-12.302 24.079-23.068 30.595-6.7496 4.3021-17.031 9.1823-25.743 13.737-10.461 4.944-18.431 12.156-24.939 20.244-4.4144 7.1092-8.6017 11.307-12.067 20.244-5.4335 16.594-14.786 31.914-20.916 48.44-8.7086 29.242-3.7582 32.387 1.2963 48.061 3.8017 17.121 9.6164 31.261 18.011 45.204 8.592 13.021 19.323 25.977 28.147 38.427 11.065 6.149 23.232 16.258 35.697 22.678 16.995 9.5114 34.855 15.479 53.609 21.316 21.674 10.479 46.999 11.666 70.794 16.629"
       stroke="#f1dd8b"
       stroke-opacity=".32965"
       stroke-width=".5"
       id="path15" />
    <path
       d="m-31.698-283.49c9.2696 2.6048 21.858 8.123 32.984 9.3989 19.979 6.7041 41.556 6.3521 61.991 12.04 16.27 4.194 28.448 6.0509 39.711 12.255 16.158 10.003 34.908 19.799 44.792 35.221 9.9674 16.807 15.018 37.184 9.3132 55.934-5.105 12.16-12.302 24.079-23.068 30.595-6.7496 4.3021-17.031 9.1823-25.743 13.737-10.461 4.944-18.431 12.156-24.939 20.244-4.4144 7.1092-8.6017 11.307-12.067 20.244-5.4335 16.594-14.786 31.914-20.916 48.44-8.7086 29.242-3.7582 32.387 1.2963 48.061 3.8017 17.121 9.6164 31.261 18.011 45.204 8.592 13.021 19.323 25.977 28.147 38.427 11.065 6.149 23.232 16.258 35.697 22.678 16.995 9.5114 34.855 15.479 53.609 21.316 21.674 10.479 46.999 11.666 70.794 16.629"
       stroke="#f1dd8b"
       stroke-opacity=".37201"
       stroke-width=".5"
       id="path16" />
    <path
       d="m-31.501-284.27c9.2696 2.6048 21.858 8.123 32.984 9.3989 19.979 6.7041 41.556 6.3521 61.991 12.04 16.27 4.194 28.448 6.0509 39.711 12.255 16.158 10.003 34.908 19.799 44.792 35.221 9.9674 16.807 15.018 37.184 9.3132 55.934-5.105 12.16-12.302 24.079-23.068 30.595-6.7496 4.3021-17.031 9.1823-25.743 13.737-10.461 4.944-18.431 12.156-24.939 20.244-4.4144 7.1092-8.6017 11.307-12.067 20.244-5.4335 16.594-14.786 31.914-20.916 48.44-8.7086 29.242-3.7582 32.387 1.2963 48.061 3.8017 17.121 9.6164 31.261 18.011 45.204 8.592 13.021 19.323 25.977 28.147 38.427 11.065 6.149 23.232 16.258 35.697 22.678 16.995 9.5114 34.855 15.479 53.609 21.316 21.674 10.479 46.999 11.666 70.794 16.629"
       stroke="url(#b)"
       stroke-opacity=".8453"
       stroke-width=".2"
       id="path17" />
    <path
       d="m-32.714-278.99c9.2696 2.6048 21.858 8.123 32.984 9.3989 19.979 6.7041 41.556 6.3521 61.991 12.04 16.27 4.194 28.448 6.0509 39.711 12.255 16.158 10.003 34.908 19.799 44.792 35.221 9.9674 16.807 15.018 37.184 9.3132 55.934-5.105 12.16-12.302 24.079-23.068 30.595-6.7496 4.3021-17.031 9.1823-25.743 13.737-10.461 4.944-18.431 12.156-24.939 20.244-4.4144 7.1092-8.6017 11.307-12.067 20.244-5.4335 16.594-14.786 31.914-20.916 48.44-8.7086 29.242-3.7582 32.387 1.2963 48.061 4.1489 16.975 9.6164 31.261 18.011 45.204 8.4781 11.736 10.642 14.715 28.129 38.209 6.207 3.7719 23.341 16.092 35.716 22.896 16.995 9.5114 34.855 15.479 53.609 21.316 21.674 10.479 46.999 11.666 70.794 16.629"
       stroke="url(#a)"
       stroke-opacity=".8453"
       stroke-width=".2"
       id="path18" />
  </g>
  <g
     id="person-right"
     transform="matrix(0.64509112,0,0,0.64981427,95.221242,34.010814)"
     style="stroke-width:1.54452">
    <circle
       style="fill:#fcf0e6;fill-opacity:1;stroke:#717171;stroke-width:1.54452;stroke-linecap:round;stroke-linejoin:round;stroke-dasharray:none;stroke-opacity:1"
       id="circle4"
       cx="108.6654"
       cy="139.55507"
       r="9" />
    <path
       id="path4"
       style="fill:#fcf0e6;fill-opacity:1;stroke:#717171;stroke-width:1.54452;stroke-linecap:round;stroke-linejoin:round;stroke-opacity:1"
       d="m 123.34478,167.32091 c 0,3.91609 1.47324,10.36426 -1.56022,12.91481 -2.81456,2.36648 -9.22072,1.82581 -13.15613,1.82581 -5.01696,0 -10.420559,0.49629 -13.735345,-2.43708 -2.087824,-1.84759 -1.159479,-9.38603 -1.159479,-12.30354 1e-6,-7.54957 6.628684,-13.66971 14.805584,-13.66971 8.1769,0 14.80559,6.12014 14.80559,13.66971 z"
       sodipodi:nodetypes="sssssss" />
  </g>
  <path
     id="bubble-right"
     style="fill:#fcf0e6;fill-opacity:1;stroke:#717171;stroke-width:0.999998;stroke-linecap:round;stroke-linejoin:round;stroke-opacity:1"
     d="m 192.75689,100.63207 c 0,5.74607 -5.51177,10.40417 -12.31089,10.40417 -2.10812,0 -4.0925,-0.44781 -5.82718,-1.23702 -0.82228,-0.3741 -5.98605,3.65709 -5.98605,3.65709 0,0 2.4678,-6.01254 1.95175,-6.59511 -1.53831,-1.73658 -2.44941,-3.89293 -2.44941,-6.22913 0,-5.746066 5.51177,-10.404186 12.31089,-10.404186 6.79912,0 12.31089,4.65812 12.31089,10.404186 z"
     sodipodi:nodetypes="ssscssss" />
  <g
     id="person-left"
     transform="matrix(0.64509112,0,0,0.64981427,51.849247,34.010814)"
     style="stroke-width:1.54452">
    <circle
       style="fill:#fcf0e6;fill-opacity:1;stroke:#717171;stroke-width:1.54452;stroke-linecap:round;stroke-linejoin:round;stroke-dasharray:none;stroke-opacity:1"
       id="circle5"
       cx="108.6654"
       cy="139.55507"
       r="9" />
    <path
       id="path5"
       style="fill:#fcf0e6;fill-opacity:1;stroke:#717171;stroke-width:1.54452;stroke-linecap:round;stroke-linejoin:round;stroke-opacity:1"
       d="m 123.34478,167.32091 c 0,3.91609 1.47324,10.36426 -1.56022,12.91481 -2.81456,2.36648 -9.22072,1.82581 -13.15613,1.82581 -5.01696,0 -10.420559,0.49629 -13.735345,-2.43708 -2.087824,-1.84759 -1.159479,-9.38603 -1.159479,-12.30354 1e-6,-7.54957 6.628684,-13.66971 14.805584,-13.66971 8.1769,0 14.80559,6.12014 14.80559,13.66971 z"
       sodipodi:nodetypes="sssssss" />
  </g>
  <path
     id="bubble-left"
     style="fill:#fcf0e6;fill-opacity:1;stroke:#717171;stroke-width:0.999998;stroke-linecap:round;stroke-linejoin:round;stroke-opacity:1"
     d="m 95.214422,100.63207 c 0,5.74607 5.511818,10.40417 12.310998,10.40417 2.10815,0 4.09253,-0.44781 5.82725,-1.23702 0.82228,-0.3741 5.9861,3.65709 5.9861,3.65709 0,0 -2.46783,-6.01254 -1.95177,-6.59511 1.53832,-1.73658 2.44944,-3.89293 2.44944,-6.22913 0,-5.746066 -5.51182,-10.404186 -12.31102,-10.404186 -6.79918,0 -12.310998,4.65812 -12.310998,10.404186 z"
     sodipodi:nodetypes="ssscssss" />
  <g
     id="person middle"
     transform="translate(34.98675,-22.416886)">
    <circle
       style="fill:#fcf0e6;fill-opacity:1;stroke:#717171;stroke-width:1;stroke-linecap:round;stroke-linejoin:round;stroke-dasharray:none;stroke-opacity:1"
       id="path2"
       cx="108.6654"
       cy="139.55507"
       r="9" />
    <path
       id="circle2"
       style="fill:#fcf0e6;fill-opacity:1;stroke:#717171;stroke-linecap:round;stroke-linejoin:round;stroke-opacity:1"
       d="m 123.34478,167.32091 c 0,3.91609 1.47324,10.36426 -1.56022,12.91481 -2.81456,2.36648 -9.22072,1.82581 -13.15613,1.82581 -5.01696,0 -10.420559,0.49629 -13.735345,-2.43708 -2.087824,-1.84759 -1.159479,-9.38603 -1.159479,-12.30354 1e-6,-7.54957 6.628684,-13.66971 14.805584,-13.66971 8.1769,0 14.80559,6.12014 14.80559,13.66971 z"
       sodipodi:nodetypes="sssssss" />
  </g>
  <rect
     style="fill:#fcf0e6;fill-opacity:1;stroke:#717171;stroke-width:1.2;stroke-dasharray:none;stroke-opacity:1"
     id="rect12"
     width="42.858932"
     height="57.241833"
     x="87.136375"
     y="399.49966" />
  <ellipse
     style="fill:#aaaaaa;fill-opacity:1;stroke:none;stroke-width:1.2;stroke-dasharray:none;stroke-opacity:1"
     id="path50"
     cx="98.725807"
     cy="430.5535"
     rx="5.1114383"
     ry="4.8590217" />
  <rect
     style="fill:none;fill-opacity:1;stroke:#aaaaaa;stroke-width:0.7;stroke-linecap:round;stroke-linejoin:round;stroke-dasharray:none;stroke-opacity:1"
     id="rect50"
     width="27.513422"
     height="30.163799"
     x="90.837791"
     y="422.53925" />
  <path
     style="fill:#aaaaaa;fill-opacity:1;stroke:none;stroke-width:1.2;stroke-linecap:round;stroke-linejoin:round;stroke-dasharray:none;stroke-opacity:1"
     d="m 92.857149,451.06243 v -5.30508 l 5.19515,-5.30503 3.061431,3.01839 8.8132,-8.68923 6.21566,6.1282 v 10.15265 H 92.857149"
     id="path51"
     sodipodi:nodetypes="cccccccc" />
  <path
     style="fill:#aaaaaa;fill-opacity:1;stroke:#aaaaaa;stroke-width:0.7;stroke-linecap:round;stroke-linejoin:round;stroke-dasharray:none;stroke-opacity:1"
     d="m 90.986669,408.78256 c 34.535771,0 34.535771,0 34.535771,0"
     id="path52" />
  <g
     id="g55"
     transform="translate(-38.322201,400.29491)">
    <ellipse
       style="fill:none;fill-opacity:1;stroke:#aaaaaa;stroke-width:0.5;stroke-dasharray:none;stroke-opacity:1"
       id="ellipse53"
       cx="161.54668"
       cy="3.7548561"
       rx="2.3979585"
       ry="2.3348544" />
    <path
       style="fill:none;fill-opacity:1;stroke:#aaaaaa;stroke-width:0.4;stroke-linecap:round;stroke-linejoin:round;stroke-dasharray:none;stroke-opacity:1"
       d="m 160.47577,3.1234874 c 2.14182,0 2.14182,0 2.14182,0"
       id="path53" />
    <path
       style="fill:none;fill-opacity:1;stroke:#aaaaaa;stroke-width:0.4;stroke-linecap:round;stroke-linejoin:round;stroke-dasharray:none;stroke-opacity:1"
       d="m 160.47577,4.2390223 c 2.14182,0 2.14182,0 2.14182,0"
       id="path55" />
  </g>
  <rect
     style="fill:#aaaaaa;fill-opacity:1;stroke:#aaaaaa;stroke-width:0.400737;stroke-linecap:round;stroke-linejoin:round;stroke-dasharray:none;stroke-opacity:1"
     id="rect55"
     width="4.1682873"
     height="4.6637192"
     x="-237.14209"
     y="360.44437"
     transform="matrix(0.73677014,-0.67614329,0.73677014,0.67614329,0,0)" />
  <rect
     style="fill:#aaaaaa;fill-opacity:1;stroke:#aaaaaa;stroke-width:0.400737;stroke-linecap:round;stroke-linejoin:round;stroke-dasharray:none;stroke-opacity:1"
     id="rect56"
     width="4.1682873"
     height="4.6637192"
     x="-235.63885"
     y="362.21155"
     transform="matrix(0.73677014,-0.67614329,0.73677014,0.67614329,0,0)" />
  <path
     style="fill:#aaaaaa;fill-opacity:1;stroke:#aaaaaa;stroke-width:0.4;stroke-linecap:round;stroke-linejoin:round;stroke-dasharray:none;stroke-opacity:1"
     d="M 91.744179,413.69091 H 125.38752"
     id="path59"
     sodipodi:nodetypes="cc" />
  <path
     style="fill:#aaaaaa;fill-opacity:1;stroke:#aaaaaa;stroke-width:0.4;stroke-linecap:round;stroke-linejoin:round;stroke-dasharray:none;stroke-opacity:1"
     d="M 91.744179,415.92198 H 125.38752"
     id="path60"
     sodipodi:nodetypes="cc" />
  <path
     style="fill:#aaaaaa;fill-opacity:1;stroke:#aaaaaa;stroke-width:0.4;stroke-linecap:round;stroke-linejoin:round;stroke-dasharray:none;stroke-opacity:1"
     d="M 91.744179,418.51002 H 125.38752"
     id="path61"
     sodipodi:nodetypes="cc" />
  <rect
     style="fill:#fcf0e6;fill-opacity:1;stroke:#717171;stroke-width:1.2;stroke-dasharray:none;stroke-opacity:1"
     id="rect11"
     width="42.858932"
     height="57.241833"
     x="107.60178"
     y="415.27924" />
  <path
     style="fill:#aaaaaa;fill-opacity:1;stroke:#aaaaaa;stroke-width:0.4;stroke-linecap:round;stroke-linejoin:round;stroke-dasharray:none;stroke-opacity:1"
     d="m 112.20957,422.18444 h 33.64334"
     id="path71"
     sodipodi:nodetypes="cc" />
  <path
     style="fill:#aaaaaa;fill-opacity:1;stroke:#aaaaaa;stroke-width:0.4;stroke-linecap:round;stroke-linejoin:round;stroke-dasharray:none;stroke-opacity:1"
     d="m 112.20957,424.64754 h 33.64334"
     id="path72"
     sodipodi:nodetypes="cc" />
  <path
     style="fill:#aaaaaa;fill-opacity:1;stroke:#aaaaaa;stroke-width:0.4;stroke-linecap:round;stroke-linejoin:round;stroke-dasharray:none;stroke-opacity:1"
     d="m 112.20957,427.11064 h 33.64334"
     id="path73"
     sodipodi:nodetypes="cc" />
  <path
     style="fill:#aaaaaa;fill-opacity:1;stroke:#aaaaaa;stroke-width:0.4;stroke-linecap:round;stroke-linejoin:round;stroke-dasharray:none;stroke-opacity:1"
     d="m 112.20957,429.57374 h 33.64334"
     id="path74"
     sodipodi:nodetypes="cc" />
  <path
     style="fill:#aaaaaa;fill-opacity:1;stroke:#aaaaaa;stroke-width:0.4;stroke-linecap:round;stroke-linejoin:round;stroke-dasharray:none;stroke-opacity:1"
     d="m 112.20957,432.03685 h 33.64334"
     id="path75"
     sodipodi:nodetypes="cc" />
  <path
     style="fill:#aaaaaa;fill-opacity:1;stroke:#aaaaaa;stroke-width:0.4;stroke-linecap:round;stroke-linejoin:round;stroke-dasharray:none;stroke-opacity:1"
     d="m 112.20957,434.49995 h 33.64334"
     id="path76"
     sodipodi:nodetypes="cc" />
  <rect
     style="fill:#aaaaaa;fill-opacity:1;stroke:#aaaaaa;stroke-width:0.7;stroke-linecap:round;stroke-linejoin:round;stroke-dasharray:none;stroke-opacity:1"
     id="rect76"
     width="33.109074"
     height="18.919472"
     x="112.29262"
     y="437.42899" />
  <rect
     style="fill:#fcf0e6;fill-opacity:1;stroke:#aaaaaa;stroke-width:0.7;stroke-linecap:round;stroke-linejoin:round;stroke-dasharray:none;stroke-opacity:1"
     id="rect87"
     width="26.975107"
     height="9.5084658"
     x="115.3596"
     y="441.99557"
     ry="4.7542329" />
  <path
     style="fill:#aaaaaa;fill-opacity:1;stroke:#aaaaaa;stroke-width:0.4;stroke-linecap:round;stroke-linejoin:round;stroke-dasharray:none;stroke-opacity:1"
     d="m 131.92615,463.55375 h 17.10688"
     id="path88"
     sodipodi:nodetypes="cc" />
  <path
     style="fill:#aaaaaa;fill-opacity:1;stroke:#aaaaaa;stroke-width:0.4;stroke-linecap:round;stroke-linejoin:round;stroke-dasharray:none;stroke-opacity:1"
     d="m 137.19715,466.2926 h 11.83588"
     id="path89"
     sodipodi:nodetypes="cc" />
  <path
     style="fill:#aaaaaa;fill-opacity:1;stroke:#aaaaaa;stroke-width:0.4;stroke-linecap:round;stroke-linejoin:round;stroke-dasharray:none;stroke-opacity:1"
     d="m 141.84803,469.03145 h 7.185"
     id="path90"
     sodipodi:nodetypes="cc" />
  <path
     style="fill:#aaaaaa;fill-opacity:1;stroke:#aaaaaa;stroke-width:0.4;stroke-linecap:round;stroke-linejoin:round;stroke-dasharray:none;stroke-opacity:1"
     d="m 146.34388,471.7703 h 2.68915"
     id="path91"
     sodipodi:nodetypes="cc" />
  <rect
     style="fill:#fcf0e6;fill-opacity:1;stroke:#aaaaaa;stroke-width:0.699998;stroke-linecap:round;stroke-linejoin:round;stroke-dasharray:none;stroke-opacity:1"
     id="rect91"
     width="13.528109"
     height="4.2465968"
     x="112.5098"
     y="464.15811"
     ry="2.1232984" />
  <path
     style="fill:#aaaaaa;fill-opacity:1;stroke:#aaaaaa;stroke-width:0.4;stroke-linecap:round;stroke-linejoin:round;stroke-dasharray:none;stroke-opacity:1"
     d="m 115.97717,466.32743 h 7.185"
     id="path92"
     sodipodi:nodetypes="cc" />
  <rect
     style="fill:#fcf0e6;fill-opacity:1;stroke:#717171;stroke-width:1.2;stroke-dasharray:none;stroke-opacity:1"
     id="rect61"
     width="42.858932"
     height="57.241833"
     x="128.83073"
     y="435.05789" />
  <g
     id="g69"
     transform="matrix(0.61467889,0,0,0.61924687,21.053114,434.73996)"
     style="stroke-width:1.62085">
    <ellipse
       style="fill:#aaaaaa;fill-opacity:1;stroke:none;stroke-width:1.94503;stroke-dasharray:none;stroke-opacity:1"
       id="ellipse61"
       cx="189.24942"
       cy="30.889654"
       rx="5.1114383"
       ry="4.8590217" />
    <rect
       style="fill:none;fill-opacity:1;stroke:#aaaaaa;stroke-width:1.1346;stroke-linecap:round;stroke-linejoin:round;stroke-dasharray:none;stroke-opacity:1"
       id="rect62"
       width="27.513422"
       height="30.163799"
       x="181.3614"
       y="22.875408" />
    <path
       style="fill:#aaaaaa;fill-opacity:1;stroke:none;stroke-width:1.94503;stroke-linecap:round;stroke-linejoin:round;stroke-dasharray:none;stroke-opacity:1"
       d="m 183.38076,51.398567 v -5.305081 l 5.19515,-5.305024 3.06143,3.018386 8.8132,-8.689226 6.21566,6.128199 v 10.15265 h -23.28544"
       id="path62"
       sodipodi:nodetypes="cccccccc" />
  </g>
  <g
     id="g65"
     transform="translate(3.3721536,435.85313)">
    <ellipse
       style="fill:#ababab;fill-opacity:1;stroke:none;stroke-width:0.5;stroke-dasharray:none;stroke-opacity:1"
       id="ellipse63"
       cx="163.12427"
       cy="3.8810647"
       rx="1.7038125"
       ry="1.5776042" />
    <ellipse
       style="fill:#ababab;fill-opacity:1;stroke:none;stroke-width:0.5;stroke-dasharray:none;stroke-opacity:1"
       id="ellipse68"
       cx="163.12427"
       cy="8.1721487"
       rx="1.7038125"
       ry="1.5776042" />
    <ellipse
       style="fill:#ababab;fill-opacity:1;stroke:none;stroke-width:0.5;stroke-dasharray:none;stroke-opacity:1"
       id="ellipse69"
       cx="163.12427"
       cy="12.463233"
       rx="1.7038125"
       ry="1.5776042" />
  </g>
  <rect
     style="fill:#aaaaaa;fill-opacity:1;stroke:#aaaaaa;stroke-width:0.400737;stroke-linecap:round;stroke-linejoin:round;stroke-dasharray:none;stroke-opacity:1"
     id="rect65"
     width="4.1682873"
     height="4.6637192"
     x="-235.14162"
     y="415.03461"
     transform="matrix(0.73677014,-0.67614329,0.73677014,0.67614329,0,0)" />
  <rect
     style="fill:#aaaaaa;fill-opacity:1;stroke:#aaaaaa;stroke-width:0.400737;stroke-linecap:round;stroke-linejoin:round;stroke-dasharray:none;stroke-opacity:1"
     id="rect66"
     width="4.1682873"
     height="4.6637192"
     x="-233.63838"
     y="416.80179"
     transform="matrix(0.73677014,-0.67614329,0.73677014,0.67614329,0,0)" />
  <path
     style="fill:#aaaaaa;fill-opacity:1;stroke:#aaaaaa;stroke-width:0.4;stroke-linecap:round;stroke-linejoin:round;stroke-dasharray:none;stroke-opacity:1"
     d="m 133.43852,481.07009 h 33.64334"
     id="path66"
     sodipodi:nodetypes="cc" />
  <path
     style="fill:#aaaaaa;fill-opacity:1;stroke:#aaaaaa;stroke-width:0.4;stroke-linecap:round;stroke-linejoin:round;stroke-dasharray:none;stroke-opacity:1"
     d="m 133.43852,484.02288 h 33.64334"
     id="path67"
     sodipodi:nodetypes="cc" />
  <path
     style="fill:#aaaaaa;fill-opacity:1;stroke:#aaaaaa;stroke-width:0.4;stroke-linecap:round;stroke-linejoin:round;stroke-dasharray:none;stroke-opacity:1"
     d="m 133.43852,486.97566 h 33.64334"
     id="path68"
     sodipodi:nodetypes="cc" />
  <g
     id="g70"
     transform="matrix(0.61467889,0,0,0.61924687,39.953743,442.68257)"
     style="stroke-width:1.62085">
    <ellipse
       style="fill:#aaaaaa;fill-opacity:1;stroke:none;stroke-width:1.94503;stroke-dasharray:none;stroke-opacity:1"
       id="ellipse70"
       cx="189.24942"
       cy="30.889654"
       rx="5.1114383"
       ry="4.8590217" />
    <rect
       style="fill:none;fill-opacity:1;stroke:#aaaaaa;stroke-width:1.1346;stroke-linecap:round;stroke-linejoin:round;stroke-dasharray:none;stroke-opacity:1"
       id="rect70"
       width="27.513422"
       height="30.163799"
       x="181.3614"
       y="22.875408" />
    <path
       style="fill:#aaaaaa;fill-opacity:1;stroke:none;stroke-width:1.94503;stroke-linecap:round;stroke-linejoin:round;stroke-dasharray:none;stroke-opacity:1"
       d="m 183.38076,51.398567 v -5.305081 l 5.19515,-5.305024 3.06143,3.018386 8.8132,-8.689226 6.21566,6.128199 v 10.15265 h -23.28544"
       id="path70"
       sodipodi:nodetypes="cccccccc" />
  </g>
  <path
     style="fill:#aaaaaa;fill-opacity:1;stroke:#aaaaaa;stroke-width:0.400001;stroke-linecap:round;stroke-linejoin:round;stroke-dasharray:none;stroke-opacity:1"
     d="m 133.31223,478.11731 h 12.39853"
     id="path93"
     sodipodi:nodetypes="cc" />
  <path
     style="fill:#aaaaaa;fill-opacity:1;stroke:#aaaaaa;stroke-width:0.400001;stroke-linecap:round;stroke-linejoin:round;stroke-dasharray:none;stroke-opacity:1"
     d="m 133.31223,475.16452 h 12.39853"
     id="path94"
     sodipodi:nodetypes="cc" />
  <path
     style="fill:#aaaaaa;fill-opacity:1;stroke:#aaaaaa;stroke-width:0.400001;stroke-linecap:round;stroke-linejoin:round;stroke-dasharray:none;stroke-opacity:1"
     d="m 133.31223,472.21174 h 12.39853"
     id="path95"
     sodipodi:nodetypes="cc" />
  <g
     id="g116"
     transform="translate(-22.78742,376.12926)">
    <g
       id="g49"
       transform="matrix(0.64352215,0,0,0.71817702,34.063257,4.7717224)"
       style="stroke-width:1.47097">
      <path
         style="fill:#fcf0e6;fill-opacity:1;stroke:none;stroke-width:1.76516;stroke-dasharray:none;stroke-opacity:1"
         d="m 11.705825,-183.19129 21.10835,-0.53638 17.416753,-1.5145 0.252415,2.9659 0.946563,8.70837 2.965897,11.10634 2.082438,4.73281 2.713479,4.5435 2.965897,3.91246 -0.378624,0.56794 -3.092106,1.00967 -10.096669,2.27175 -5.931792,0.82035 -6.184209,1.00967 -3.407627,0.0631 -3.596939,-0.31552 -1.893125,-1.19898 -2.524166,-0.94656 -5.490064,-3.09211 -1.135875,-0.82035 -1.19898,-1.4514 -1.956229,-5.30075 -2.208647,-7.76181 -0.820354,-4.85902 -0.567938,-7.88803 z"
         id="path44" />
      <path
         style="fill:#717171;fill-opacity:1;stroke:#717171;stroke-width:0.588386;stroke-dasharray:none;stroke-opacity:1"
         d="m 32.035425,-142.93496 c -0.58208,-0.13117 -1.25677,-0.24407 -1.4993,-0.25089 -0.24254,-0.007 -0.65391,-0.12351 -0.91416,-0.25929 -0.26026,-0.13577 -0.71118,-0.29914 -1.00205,-0.36302 -0.29087,-0.0639 -0.62344,-0.23012 -0.73904,-0.36941 -0.11559,-0.13928 -0.30409,-0.25324 -0.41889,-0.25324 -0.11479,0 -0.47768,-0.19844 -0.80642,-0.44097 -0.32874,-0.24254 -0.73131,-0.44098 -0.89461,-0.44098 -0.1633,0 -0.38884,-0.11076 -0.50119,-0.24613 -0.11235,-0.13537 -0.48342,-0.2985 -0.82461,-0.36251 -0.3412,-0.064 -0.6632,-0.22804 -0.71557,-0.36451 -0.0524,-0.13648 -0.26648,-0.29783 -0.4758,-0.35856 -0.20932,-0.0607 -1.18838,-0.50558 -2.17569,-0.98855 -1.48777,-0.72778 -1.9936,-1.08761 -2.95451,-2.10176 -0.63767,-0.673 -1.15941,-1.33271 -1.15941,-1.46602 0,-0.1333 -0.11396,-0.33695 -0.25324,-0.45255 -0.13929,-0.11559 -0.3072,-0.46266 -0.37315,-0.77125 -0.0659,-0.30859 -0.22871,-0.75951 -0.36171,-1.00205 -0.31852,-0.58083 -0.74823,-1.80406 -1.04123,-2.96403 -0.12998,-0.51456 -0.31085,-1.03049 -0.40194,-1.14653 -0.0911,-0.11603 -0.21066,-0.50456 -0.26573,-0.86341 -0.0551,-0.35884 -0.21728,-0.91447 -0.36048,-1.23472 -0.14321,-0.32025 -0.3081,-0.974 -0.36643,-1.45276 -0.0583,-0.47877 -0.22463,-1.05145 -0.36955,-1.27262 -0.14491,-0.22117 -0.26348,-0.70999 -0.26348,-1.08627 0,-0.37628 -0.14653,-1.11329 -0.32561,-1.6378 -0.17909,-0.52452 -0.37837,-1.77405 -0.44285,-2.77675 -0.0645,-1.00269 -0.20734,-1.99144 -0.31747,-2.19722 -0.1953,-0.36493 -0.57708,-12.95037 -0.39943,-13.12802 0.188,-0.188 0.579663,0.1137 0.61956,2.01436 0.0099,0.47172 0.14395,2.84552 0.14973,5.28881 0.006,2.72557 0.084,4.63423 0.2007,4.93889 0.10461,0.2731 0.25754,1.38221 0.33985,2.46468 0.0823,1.08247 0.26358,2.19372 0.4028,2.46945 0.13923,0.27572 0.29734,0.95064 0.35134,1.49982 0.054,0.54918 0.21442,1.18418 0.35646,1.41111 0.14205,0.22693 0.30045,0.84916 0.35202,1.38274 0.0516,0.53357 0.21913,1.20826 0.37237,1.4993 0.15325,0.29104 0.27912,0.70482 0.27972,0.91951 6e-4,0.21469 0.15984,0.7931 0.35386,1.28535 0.19403,0.49226 0.35548,1.03098 0.35877,1.19716 0.003,0.16618 0.15935,0.61965 0.34679,1.00771 0.18744,0.38805 0.3435,0.84881 0.34679,1.02391 0.005,0.27561 0.13281,0.61433 0.77727,2.06289 0.0647,0.14552 0.31073,0.58208 0.54664,0.97014 0.23591,0.38805 0.51749,0.8643 0.62575,1.05833 0.10825,0.19403 0.54387,0.61635 0.96803,0.93849 0.99815,0.75805 3.07085,1.16958 4.52061,0.89755 0.52039,-0.0977 1.39192,-0.22213 1.93674,-0.27663 0.89584,-0.0896 1.01815,-0.0597 1.27882,0.31243 0.15853,0.22634 0.28824,0.59456 0.28824,0.81827 0,0.65684 0.98316,2.41458 1.61854,2.8937 0.32248,0.24317 1.06019,0.66454 1.63937,0.93637 1.04788,0.49182 1.06693,0.49381 3.88056,0.4061 2.05736,-0.0641 3.01353,-0.16663 3.5105,-0.37631 0.39138,-0.16513 1.18216,-0.29115 1.85208,-0.29516 0.643,-0.004 1.7644,-0.12272 2.492,-0.26416 0.72761,-0.14143 1.87854,-0.33252 2.55764,-0.42463 0.6791,-0.0921 1.6316,-0.28989 2.11667,-0.4395 0.48507,-0.1496 1.14403,-0.27286 1.46435,-0.27391 0.32033,-0.001 1.43158,-0.16655 2.46945,-0.36777 2.03394,-0.39434 9.492763,-2.1961 10.192268,-2.46205 0.640747,-0.24361 0.554383,-0.90545 -0.210301,-1.61158 -0.528125,-0.48769 -1.659836,-2.08513 -2.665628,-3.7626 -0.750392,-1.25151 -1.532124,-2.67559 -1.999342,-3.64219 -0.297831,-0.61617 -0.69532,-1.41384 -0.883308,-1.77261 -0.187988,-0.35877 -0.341797,-0.77578 -0.341797,-0.92668 0,-0.15091 -0.15875,-0.57057 -0.352777,-0.93258 -0.194028,-0.36202 -0.355472,-0.77845 -0.358763,-0.92541 -0.0033,-0.14695 -0.159349,-0.58469 -0.346793,-0.97275 -0.187444,-0.38805 -0.343501,-0.83579 -0.346793,-0.99497 -0.0033,-0.15918 -0.162992,-0.63543 -0.354886,-1.05833 -0.1919,-0.42291 -0.35065,-0.99114 -0.35278,-1.26275 -0.002,-0.2716 -0.11412,-0.70817 -0.24886,-0.97014 -0.13475,-0.26197 -0.32896,-1.0187 -0.43158,-1.68163 -0.10262,-0.66293 -0.26254,-1.29793 -0.35537,-1.41111 -0.0928,-0.11319 -0.22078,-0.68204 -0.28433,-1.26412 -0.0636,-0.58209 -0.22328,-1.37584 -0.35495,-1.76389 -0.13168,-0.38806 -0.29183,-1.51488 -0.3559,-2.50406 -0.0641,-0.98918 -0.22854,-2.21949 -0.3655,-2.73403 -0.15141,-0.56881 -0.24985,-1.81215 -0.25112,-3.17188 -0.002,-1.82943 -0.0544,-2.28864 -0.28942,-2.52369 -0.16619,-0.16619 -0.40788,-0.23795 -0.57327,-0.17021 -0.15726,0.0644 -1.19875,0.15313 -2.31441,0.19715 -1.11566,0.044 -3.02066,0.24116 -4.23333,0.43808 -2.12827,0.34559 -2.2242,0.38006 -2.7616,0.99238 -0.54738,0.62369 -0.56863,0.6308 -1.26355,0.4226 -0.65678,-0.19678 -0.79927,-0.16963 -2.01307,0.38351 -1.01682,0.46338 -1.39149,0.73974 -1.69091,1.24723 l -0.38466,0.65195 -0.52922,-0.31262 c -0.29107,-0.17194 -0.52921,-0.37616 -0.52921,-0.45382 0,-0.0777 -0.2703,-0.27011 -0.60066,-0.42765 -0.57186,-0.2727 -0.62996,-0.26833 -1.21145,0.091 -0.64997,0.4017 -1.61781,0.50214 -1.81193,0.18803 -0.16578,-0.26822 0.6145,-1.04474 1.05305,-1.04797 0.49134,-0.004 0.86681,-0.25915 0.77694,-0.52875 -0.0572,-0.17171 -2.21533,-0.21722 -9.91636,-0.20911 -5.41376,0.006 -9.88843,0.0556 -9.94371,0.11088 -0.2459,0.2459 -0.57088,0.0644 -0.57088,-0.31886 0,-0.65453 0.39975,-0.86889 1.36279,-0.73077 0.46314,0.0664 3.85832,0.15737 7.54485,0.20211 7.88685,0.0957 11.55891,-0.13994 12.45031,-0.79898 0.46311,-0.34239 0.59043,-0.361 1.20676,-0.17634 0.93548,0.28028 2.58588,-0.2044 3.47775,-1.02133 0.86274,-0.79023 1.30979,-0.76006 1.80544,0.12185 0.21826,0.38833 0.57422,0.74962 0.79258,0.80442 0.4949,0.12421 6.23791,-0.23216 7.43104,-0.46113 0.48507,-0.0931 1.36097,-0.21776 1.94645,-0.27706 1.0271,-0.10404 1.07203,-0.0913 1.27882,0.36255 0.11883,0.26081 0.21432,1.19753 0.21432,2.10249 0,1.00407 0.0788,1.71095 0.20485,1.83697 0.13134,0.13134 0.24402,1.33916 0.31401,3.36597 0.0745,2.15683 0.18047,3.24706 0.33364,3.43162 0.12346,0.14876 0.29436,0.93198 0.37977,1.74048 0.0854,0.8085 0.27966,1.81732 0.43165,2.24182 0.152,0.42451 0.27636,1.00277 0.27636,1.28503 0,0.28226 0.11015,0.689 0.24478,0.90386 0.13463,0.21487 0.299255,0.70817 0.365827,1.09623 0.06657,0.38805 0.222257,0.8643 0.345965,1.05833 0.123708,0.19403 0.282458,0.67028 0.352778,1.05833 0.07032,0.38806 0.235271,0.87255 0.366558,1.07665 0.131287,0.2041 0.296141,0.68034 0.36634,1.05833 0.0702,0.37799 0.226933,0.846 0.348294,1.04002 0.121362,0.19403 0.273239,0.60527 0.337505,0.91386 0.06427,0.30859 0.230807,0.65565 0.370092,0.77125 0.139285,0.11559 0.253245,0.36824 0.253245,0.56143 0,0.37311 0.180769,0.73648 1.822016,3.66249 1.14142,2.03492 1.898691,3.23135 2.102637,3.32199 0.07276,0.0323 0.132292,0.15526 0.132292,0.27315 0,0.11789 0.438615,0.64706 0.974701,1.17593 0.536086,0.52886 1.146185,1.23299 1.355774,1.56472 l 0.381073,0.60315 -0.629065,0.54338 c -0.596555,0.51529 -1.039888,0.68095 -3.317205,1.2395 -0.533577,0.13086 -1.265246,0.36512 -1.625932,0.52056 -0.360686,0.15544 -0.940097,0.28262 -1.287579,0.28262 -0.347482,0 -0.864601,0.12039 -1.149153,0.26754 -0.284552,0.14715 -0.895767,0.31575 -1.358255,0.37466 -0.462488,0.0589 -1.294788,0.25602 -1.849558,0.43801 -0.55477,0.182 -1.45024,0.3309 -1.98994,0.3309 -0.5397,0 -1.47486,0.16657 -2.07813,0.37016 -0.74726,0.25217 -1.34986,0.34173 -1.89062,0.28098 -0.49652,-0.0558 -1.02493,0.009 -1.41111,0.17305 -0.33955,0.14423 -1.49049,0.32663 -2.55764,0.40534 -1.06715,0.0787 -2.15824,0.22906 -2.42464,0.3341 -0.26641,0.10505 -1.41734,0.26932 -2.55764,0.36506 -1.1403,0.0957 -2.35056,0.25657 -2.68947,0.35741 -0.7288,0.21685 -0.68291,0.21877 -2.02964,-0.0847 z m -5.41442,-3.05826 c 0.18413,-0.11679 0.18902,-0.30874 0.0245,-0.9621 -0.11304,-0.44892 -0.31534,-0.90735 -0.44956,-1.01875 -0.34522,-0.28651 -2.89177,-0.042 -2.89177,0.27769 0,0.24301 0.77551,0.76805 2.11667,1.43306 0.93416,0.46319 0.90579,0.45681 1.20016,0.2701 z"
         id="path43"
         sodipodi:nodetypes="scsssssssssssssssssssssssssssscssssssssscscsssssssssssscsssssssssssssssscssssssscsssssssscssssscscsssssssssssssssssssssssssssssssssscsssssssssssssssssssssss" />
    </g>
    <path
       style="fill:none;fill-opacity:1;stroke:#aaaaaa;stroke-width:0.7;stroke-linecap:round;stroke-linejoin:round;stroke-dasharray:none;stroke-opacity:1"
       d="m 44.872048,-120.44162 c 0.345972,-0.0119 0.535678,-0.37747 0.803897,-0.51157 0.16147,-0.0807 0.295859,0.2312 0.438488,0.29232 0.185399,0.0795 0.595921,0.1028 0.803897,0.0731 0.197813,0.12421 0.188973,-0.11171 0.292328,-0.14616 0.08042,-0.0268 0.392909,-0.0434 0.511569,-0.0731 0.15014,-0.0375 0.211889,0.0859 0.365408,0.0731 0.268142,-0.0224 0.537086,-0.0383 0.803897,-0.0731 0.9697,-0.12648 0.797393,-0.14466 1.753954,-0.36541 0.122246,-0.0282 0.179457,0.0355 0.292328,0.0731 0.124513,0.0415 0.322101,-0.0582 0.438489,0 0.03081,0.0154 0.04227,0.0577 0.07308,0.0731 0.232889,0.11645 1.309209,-0.15242 1.315469,-0.14616 0.151206,0.15121 -0.231066,-0.006 0.07308,0.14616 0.257273,0.12864 0.756031,0.10277 1.023141,0.0731 0.323022,-0.0359 0.648296,-0.0985 0.950061,-0.21925 0.20715,-0.0829 0.421873,-0.23991 0.657733,-0.29232 0.670155,-0.14893 1.371153,-0.23039 2.046282,-0.36541 0.107461,-0.0215 0.206809,0.1034 0.292328,0.14616 0.111101,0.0556 0.243604,-0.0487 0.365405,-0.0731 0.23458,-0.0469 0.600337,0.0107 0.803897,0 0.652478,-0.0343 1.197986,-0.16652 1.827038,-0.29233 0.177252,-0.0354 0.280008,0.10655 0.438488,0.14617 0.187275,0.0468 0.161068,-0.0293 0.292328,-0.0731 0.174524,-0.0582 0.17208,0.033 0.292325,0.0731 0.110299,0.0368 0.317899,0 0.438488,0"
       id="path96" />
    <path
       style="fill:none;fill-opacity:1;stroke:#aaaaaa;stroke-width:0.7;stroke-linecap:round;stroke-linejoin:round;stroke-dasharray:none;stroke-opacity:1"
       d="m 47.356819,-115.91057 c 0.360846,-0.10067 0.738253,-0.14765 1.096224,-0.21925 0.106828,-0.0213 0.188973,-0.11171 0.292325,-0.14616 0.102264,-0.0341 1.206349,-0.0671 1.242385,-0.0731 0.396299,-0.0661 0.790948,-0.1572 1.169305,-0.29232 0.153895,-0.055 0.285478,-0.16187 0.438489,-0.21925 0.04562,-0.0171 0.102587,0.0218 0.146164,0 0.0218,-0.0109 -0.01723,-0.0558 0,-0.0731 0.05536,-0.0554 0.301802,0.0731 0.365408,0.0731 0.736732,0 1.00135,-0.0576 1.753954,-0.14616 0.286888,-0.0338 0.66262,0 0.950061,0 0.730813,0 1.46163,0 2.192446,0 0.232876,0 0.698098,0.063 0.950058,0 0.10569,-0.0264 0.184224,-0.13265 0.292327,-0.14617 0.145034,-0.0181 0.294026,0.0222 0.438489,0 0.175284,-0.027 0.337666,-0.11138 0.511569,-0.14616 0.09555,-0.0191 0.205171,0.0436 0.292328,0 0.03081,-0.0154 0.0404,-0.0622 0.07308,-0.0731 0.08947,-0.0298 0.20092,0.0229 0.292328,0 0.156982,-0.0392 0.523512,-0.079 0.657733,-0.14616 0.06163,-0.0308 0.08453,-0.11535 0.146164,-0.14617 0.14243,-0.0712 0.403193,0.0189 0.511569,0.0731 0.118083,0.059 0.250491,-0.0731 0.365408,-0.0731"
       id="path97" />
    <path
       style="fill:none;fill-opacity:1;stroke:#757575;stroke-width:0.7;stroke-linecap:round;stroke-linejoin:round;stroke-dasharray:none;stroke-opacity:1"
       d="m 47.722227,-111.89109 c 1.149231,-0.38307 0.295563,-0.13651 1.973201,-0.43849 2.373649,-0.42725 2.143419,-0.48414 4.457973,-0.65773 0.267213,-0.02 0.535929,0 0.803897,0 0.02437,0 0.05586,-0.0172 0.07308,0 0.01723,0.0172 -0.0218,0.0622 0,0.0731 0.04358,0.0218 0.0989,-0.0118 0.146164,0 0.541078,0.13527 -0.621324,0.0752 0.584652,0.14617 0.886,0.0521 1.823284,0.0305 2.704016,-0.0731 0.199506,-0.0235 0.398137,-0.0716 0.584652,-0.14616 0.03199,-0.0128 0.03966,-0.0647 0.07308,-0.0731 0.0709,-0.0177 0.147582,0.0143 0.219244,0 0.336579,-0.0673 0.674267,-0.22255 1.023141,-0.29233 0.02389,-0.005 0.04872,0 0.07308,0 0.04872,0 0.09839,0.01 0.146163,0 0.02543,-0.005 0.32979,-0.11054 0.365408,-0.14616 0.01722,-0.0172 -0.01722,-0.0559 0,-0.0731 0.152686,-0.15269 1.158352,-0.14616 1.38855,-0.14616"
       id="path98" />
    <path
       style="fill:none;fill-opacity:1;stroke:#aaaaaa;stroke-width:0.7;stroke-linecap:round;stroke-linejoin:round;stroke-dasharray:none;stroke-opacity:1"
       d="m 48.37996,-107.72544 c 0.292328,-0.0974 0.58846,-0.18414 0.876978,-0.29233 0.275002,-0.10313 0.48809,-0.31713 0.730816,-0.43849 0.441349,-0.22067 1.453327,0.0812 1.900118,0 0.348975,-0.0634 0.674524,-0.22696 1.023141,-0.29233 1.407578,-0.26392 2.830063,-0.44908 4.238728,-0.73081 0.331201,-0.0662 0.580478,0.0473 0.87698,0.14616 0.206518,0.0688 0.998596,0.0853 1.169303,0 0.240038,-0.12002 0.03524,-0.18901 0.292327,-0.14616 1.518253,0.25304 2.530044,0.45867 4.092565,0.14616 0.161713,-0.0323 0.439163,0.0727 0.584652,0 0.213167,-0.10658 0.23382,-0.23382 0.292325,-0.29232 0.03445,-0.0345 0.111712,0.0344 0.146164,0 0.03445,-0.0345 -0.03445,-0.11172 0,-0.14617 0.03445,-0.0345 0.09744,0 0.146163,0 0.04872,-0.0487 0.09744,-0.0974 0.146161,-0.14616"
       id="path99" />
    <path
       style="fill:none;fill-opacity:1;stroke:#aaaaaa;stroke-width:0.7;stroke-linecap:round;stroke-linejoin:round;stroke-dasharray:none;stroke-opacity:1"
       d="m 49.84159,-103.34055 c 0.292328,-0.0974 0.58846,-0.18414 0.876978,-0.29233 0.275002,-0.10313 0.48809,-0.31713 0.730816,-0.43849 0.441349,-0.22067 1.453327,0.0812 1.900118,0 0.348975,-0.0634 0.674524,-0.22696 1.023141,-0.29233 1.407578,-0.26392 2.830063,-0.44908 4.238728,-0.73081 0.331201,-0.0662 0.580478,0.0473 0.87698,0.14616 0.206518,0.0688 0.998596,0.0853 1.169303,0 0.240038,-0.12002 0.03524,-0.18901 0.292327,-0.14616 1.518253,0.25304 2.530044,0.45867 4.092565,0.14616 0.161713,-0.0323 0.439163,0.0727 0.584652,0 0.213167,-0.10658 0.23382,-0.23382 0.292325,-0.29232 0.03445,-0.0345 0.111712,0.0344 0.146164,0 0.03445,-0.0345 -0.03445,-0.11172 0,-0.14617 0.03445,-0.0345 0.09744,0 0.146163,0 0.04872,-0.0487 0.09744,-0.0974 0.146161,-0.14616"
       id="path100" />
    <path
       style="fill:none;fill-opacity:1;stroke:#aaaaaa;stroke-width:0.7;stroke-linecap:round;stroke-linejoin:round;stroke-dasharray:none;stroke-opacity:1"
       d="m 47.722227,-111.89109 c 1.149231,-0.38307 0.295563,-0.13651 1.973201,-0.43849 2.373649,-0.42725 2.143419,-0.48414 4.457973,-0.65773 0.267213,-0.02 0.535929,0 0.803897,0 0.02437,0 0.05586,-0.0172 0.07308,0 0.01723,0.0172 -0.0218,0.0622 0,0.0731 0.04358,0.0218 0.0989,-0.0118 0.146164,0 0.541078,0.13527 -0.621324,0.0752 0.584652,0.14617 0.886,0.0521 1.823284,0.0305 2.704016,-0.0731 0.199506,-0.0235 0.398137,-0.0716 0.584652,-0.14616 0.03199,-0.0128 0.03966,-0.0647 0.07308,-0.0731 0.0709,-0.0177 0.147582,0.0143 0.219244,0 0.336579,-0.0673 0.674267,-0.22255 1.023141,-0.29233 0.02389,-0.005 0.04872,0 0.07308,0 0.04872,0 0.09839,0.01 0.146163,0 0.02543,-0.005 0.32979,-0.11054 0.365408,-0.14616 0.01722,-0.0172 -0.01722,-0.0559 0,-0.0731 0.152686,-0.15269 1.158352,-0.14616 1.38855,-0.14616"
       id="path102" />
  </g>
  <path
     style="fill:none;fill-opacity:1;stroke:#aaaaaa;stroke-width:0.7;stroke-linecap:round;stroke-linejoin:round;stroke-dasharray:none;stroke-opacity:1"
     d="m 53.107726,298.54995 c -0.13398,-0.2436 -0.28487,-0.47865 -0.40194,-0.73081 -0.91005,-1.9601 -0.77443,-1.96593 -1.6078,-3.47137 -0.17198,-0.31069 -0.37898,-0.60127 -0.54811,-0.91352 -0.2776,-0.51249 -0.46048,-0.96021 -0.65773,-1.49817 -0.0711,-0.1939 -0.21925,-0.57658 -0.21925,-0.8039 -0.27138,0.3018 -0.38585,0.69462 -0.54811,1.05968 -0.23784,0.53516 -0.51866,1.06225 -0.73081,1.6078 -0.1382,0.35537 -0.0145,0.16763 -0.0731,0.40195 -0.004,0.0167 -0.0311,0.0202 -0.0365,0.0365 -0.0473,0.14191 -0.0855,0.39111 -0.10963,0.54811 -0.0166,0.10759 -0.02,0.42191 -0.10962,0.51157"
     id="path108" />
  <path
     style="fill:none;fill-opacity:1;stroke:#aaaaaa;stroke-width:0.7;stroke-linecap:round;stroke-linejoin:round;stroke-dasharray:none;stroke-opacity:1"
     d="m 49.709436,291.13218 c 0.69309,0.26968 1.3823,0.55093 2.08283,0.8039 0.14151,0.0511 0.91044,0.31394 1.09622,0.40195 0.17302,0.082 0.31965,0.22527 0.47503,0.32886 0.15675,0.1045 0.37981,0.16057 0.51157,0.29233 0.0569,0.0569 0.0204,0.0935 0.0731,0.14616"
     id="path109" />
  <path
     style="fill:none;fill-opacity:1;stroke:#aaaaaa;stroke-width:0.7;stroke-linecap:round;stroke-linejoin:round;stroke-dasharray:none;stroke-opacity:1"
     d="m 44.997366,288.11044 c 0.65158,0.30498 1.37019,0.32336 1.96371,0.62012 0.22766,0.11383 0.7805,0 1.03353,0 0.93017,0 1.86035,0 2.79052,0 0.22589,0 0.6764,-0.0507 0.93018,0 0.21548,0.0431 0.41445,0.16557 0.62012,0.2067 0.10134,0.0203 0.20979,-0.0251 0.31005,0 0.0473,0.0118 0.0556,0.0938 0.10336,0.10336 0.13513,0.027 0.27667,-0.0171 0.41341,0 0.53011,0.0663 1.12087,0.22126 1.65365,0.31005 0.21492,0.0358 0.40646,0.16398 0.62011,0.20671 0.46519,0.093 0.97656,-0.0672 1.44694,0 0.10785,0.0154 0.20671,0.0689 0.31006,0.10335 0.17225,0 0.34556,-0.019 0.51677,0 0.55075,0.0612 1.09474,0.2728 1.65364,0.31006 1.39106,0.0927 2.97435,-0.17081 4.34082,0 0.38977,0.0487 0.75171,0.23302 1.13688,0.31006 0.95028,0.19006 1.95466,0.1786 2.89388,0.41341 0.31707,0.0793 0.6131,0.23079 0.93018,0.31006 0.82778,0.20695 1.74942,0.29421 2.58382,0.41341 0.35904,0.0513 1.01181,0.31006 1.34359,0.31006"
     id="path110" />
  <path
     style="fill:none;fill-opacity:1;stroke:#aaaaaa;stroke-width:0.7;stroke-linecap:round;stroke-linejoin:round;stroke-dasharray:none;stroke-opacity:1"
     d="m 51.456926,306.8173 c 0.0393,-0.0996 0.25378,-0.14581 0.31005,-0.25836 0.008,-0.0153 -0.0122,-0.0395 0,-0.0517 0.0122,-0.0122 0.0395,0.0122 0.0517,0 0.0244,-0.0243 -0.0244,-0.079 0,-0.10335 0.0122,-0.0122 0.0395,0.0122 0.0517,0 0.0339,-0.0339 0.0258,-0.18081 0.0517,-0.20669 0.0122,-0.0122 0.0395,0.0122 0.0517,0 0.0393,-0.0393 0.0246,-0.20418 0.0517,-0.25839 0.0377,-0.0753 0.0827,-0.0827 0.10336,-0.10335 0.0244,-0.0243 -0.0244,-0.079 0,-0.10335 0.0122,-0.0122 0.0395,0.0122 0.0517,0 0.0259,-0.0259 0.0178,-0.17285 0.0517,-0.20671 0.0122,-0.0122 0.0395,0.0122 0.0517,0 0.0244,-0.0244 -0.0244,-0.079 0,-0.10336 0.0122,-0.0122 0.0395,0.0122 0.0517,0 0.0275,-0.0275 0.22423,-0.44846 0.25838,-0.51676 0.0154,-0.0308 -0.0154,-0.0725 0,-0.10335 0.0218,-0.0436 0.0816,-0.0598 0.10335,-0.10336 0.029,-0.058 0.0217,-0.14684 0.0517,-0.2067 0.0351,-0.0702 0.11992,-0.13647 0.15503,-0.20671 0.0207,-0.0413 -0.0207,-0.11369 0,-0.15503 0.0331,-0.0663 0.1321,-0.1379 0.15503,-0.2067 0.0109,-0.0327 -0.0109,-0.0707 0,-0.10336 0.0293,-0.0881 0.13267,-0.16895 0.15503,-0.25838 0.0125,-0.0501 -0.0125,-0.10489 0,-0.15503 0.0212,-0.0847 0.16391,-0.27614 0.20671,-0.36173 0.0154,-0.0308 -0.0154,-0.0725 0,-0.10335 0.0529,-0.10574 0.10153,-0.20306 0.15503,-0.31006 0.0475,-0.0951 0.0267,-0.21019 0.0517,-0.31006 0.006,-0.0236 0.044,-0.0286 0.0517,-0.0517 0.0163,-0.049 -0.0231,-0.10881 0,-0.15503 0.11825,-0.2365 -0.0214,0.21929 0.10335,-0.15503 0.0383,-0.11489 0.0215,-0.48662 0.10335,-0.56844 0.0122,-0.0122 0.0395,0.0122 0.0517,0 0.0755,-0.0755 -0.0497,-0.36564 0,-0.46509 0.0109,-0.0218 0.0408,-0.0299 0.0517,-0.0517 0.0156,-0.0312 -0.0239,-0.13114 0,-0.15503 0.0122,-0.0122 0.0395,0.0122 0.0517,0 0.0244,-0.0244 -0.0109,-0.0707 0,-0.10335 0.0428,-0.12854 0.0478,-0.25065 0.10336,-0.36174 0.0551,-0.11024 -0.0551,-0.30317 0,-0.41341 0.0237,-0.0473 0.11726,-0.0908 0.15502,-0.10335 0.15886,-0.053 0.2752,0.0688 0.41341,0.10335 0.0334,0.008 0.0725,-0.0154 0.10336,0 0.0154,0.008 -0.0122,0.0395 0,0.0517 0.0272,0.0272 0.0689,0.0345 0.10335,0.0517 0.0312,0.0156 0.13114,-0.0239 0.15503,0 0.0122,0.0122 -0.0122,0.0395 0,0.0517 0.0258,0.0258 0.12919,-0.0258 0.15503,0 0.0122,0.0122 -0.0122,0.0395 0,0.0517 0.0431,0.0431 0.21532,-0.0431 0.25838,0 0.0122,0.0122 -0.0122,0.0395 0,0.0517 0.0244,0.0244 0.0725,-0.0154 0.10336,0 0.1349,0.0675 0.27949,0.0881 0.41341,0.15503 0.0689,0.0345 0.18948,-0.0344 0.25838,0 0.0602,0.0301 0.0948,0.0733 0.15503,0.10335 0.0549,0.0275 0.16064,0.006 0.2067,0.0517 0.0207,0.0207 0.028,0.0657 0.10336,0.10335 0.0308,0.0154 0.079,-0.0244 0.10335,0 0.0122,0.0122 -0.0122,0.0395 0,0.0517 0.0244,0.0244 0.0725,-0.0154 0.10335,0 0.0746,0.0373 0.1321,0.066 0.20671,0.10335 0.0312,0.0156 0.13114,-0.0239 0.15503,0 0.0122,0.0122 -0.0122,0.0395 0,0.0517 0.0172,0.0172 0.19627,-0.004 0.2067,0 0.0231,0.008 0.0299,0.0408 0.0517,0.0517 0.0689,0.0344 0.18948,-0.0344 0.25838,0 0.10301,0.0515 0.20706,0.0519 0.31006,0.10336 0.0542,0.0271 0.21714,-0.0412 0.25839,0 0.0122,0.0122 -0.0154,0.044 0,0.0517 0.0189,0.01 0.18496,-0.0217 0.2067,0 0.0122,0.0122 -0.0154,0.044 0,0.0517 0.0189,0.009 0.18497,-0.0218 0.20671,0 0.0122,0.0122 -0.0122,0.0395 0,0.0517 0.0259,0.0259 0.12919,-0.0258 0.15503,0 0.0122,0.0122 -0.0122,0.0395 0,0.0517 0.0101,0.0101 0.2627,0.0398 0.31005,0.0517 0.34809,0.087 8e-4,7.9e-4 0.10336,0.10335 0.0239,0.0239 0.12383,-0.0156 0.15503,0 0.14267,0.0713 0.32501,0.085 0.46509,0.15503 0.0914,0.0457 0.2623,0.002 0.36173,0.0517 0.24951,0.12476 0.52564,0.1853 0.77515,0.31006 0.0308,0.0154 0.0725,-0.0154 0.10335,0 0.14267,0.0713 0.32501,0.085 0.46509,0.15503 0.0308,0.0154 0.079,-0.0244 0.10335,0 0.0335,0.0335 -0.0517,0.10909 -0.0517,0.15503 0,0.0405 0.0258,0.2326 0,0.25838 -0.0122,0.0122 -0.0395,-0.0122 -0.0517,0 -0.0517,0.0517 0,0.20671 -0.0517,0.25838 -0.0122,0.0122 -0.0395,-0.0122 -0.0517,0 -0.0259,0.0258 0.0258,0.12919 0,0.15503 -0.0122,0.0122 -0.0395,-0.0122 -0.0517,0 -0.0358,0.0358 -0.0159,0.22258 -0.0517,0.25839 -0.0122,0.0122 -0.0395,-0.0122 -0.0517,0 -0.0258,0.0258 0.0259,0.12919 0,0.15503 -0.0122,0.0122 -0.0395,-0.0122 -0.0517,0 -0.0365,0.0365 0.0164,0.106 0,0.15502 -0.008,0.0231 -0.044,0.0286 -0.0517,0.0517 -0.0109,0.0327 0.007,0.0696 0,0.10335 -0.0291,0.14548 -0.10909,0.27561 -0.15503,0.41342 -0.0163,0.049 0.0163,0.106 0,0.15503 -0.008,0.0231 -0.0408,0.0299 -0.0517,0.0517 -0.0156,0.0312 0.0239,0.13114 0,0.15503 -0.0122,0.0122 -0.0395,-0.0122 -0.0517,0 -0.0258,0.0258 0.0259,0.12919 0,0.15503 -0.0122,0.0122 -0.0395,-0.0122 -0.0517,0 -0.0244,0.0244 0.0154,0.0725 0,0.10335 -0.0109,0.0218 -0.0408,0.0299 -0.0517,0.0517 -0.0217,0.0434 -0.0233,0.22997 -0.0517,0.25838 -0.0122,0.0122 -0.0395,-0.0122 -0.0517,0 -0.0365,0.0365 0.0125,0.1049 0,0.15503 -0.0285,0.11405 -0.0556,0.21449 -0.10335,0.31006 -0.0207,0.0413 0.0207,0.11369 0,0.15503 -0.0628,0.12552 -0.0223,0.19966 -0.0517,0.25837 -0.0109,0.0217 -0.044,0.0286 -0.0517,0.0517 -0.0109,0.0327 0.0154,0.0725 0,0.10335 -0.008,0.0153 -0.0395,-0.0122 -0.0517,0 -0.0244,0.0243 0.0154,0.0725 0,0.10334 -0.0203,0.0406 -0.0796,0.18296 -0.10335,0.20672 -0.0122,0.0122 -0.0395,-0.0122 -0.0517,0 -0.0122,0.0122 0.008,0.0362 0,0.0517 -0.0218,0.0436 -0.0816,0.0598 -0.10335,0.10335 -0.0154,0.0308 0.0244,0.079 0,0.10334 -0.0122,0.0122 -0.044,-0.0154 -0.0517,0 -0.0154,0.0308 0.0154,0.0725 0,0.10335 -0.008,0.0154 -0.0395,-0.0122 -0.0517,0 -0.0172,0.0172 -0.0344,0.13782 -0.0517,0.15505 -0.0122,0.0122 -0.0395,-0.0122 -0.0517,0 -0.0122,0.0122 0.0122,0.0395 0,0.0517 -0.0122,0.0122 -0.0395,-0.0122 -0.0517,0 -0.0122,0.0122 0.008,0.0363 0,0.0517 -0.031,0.062 -0.12403,0.093 -0.15503,0.15502 -0.0147,0.0293 -0.14371,0.24706 -0.15503,0.25839 -0.0122,0.0122 -0.0363,-0.008 -0.0517,0 -0.0938,0.0469 -0.18018,0.23185 -0.20671,0.25839 -0.0273,0.0273 -0.23108,0.12771 -0.25838,0.15502 -0.0122,0.0122 0.0122,0.0395 0,0.0517 -0.0122,0.0122 -0.0363,-0.008 -0.0517,0 -0.0637,0.0319 -0.22652,0.19468 -0.25838,0.25839 -0.008,0.0154 0.0122,0.0395 0,0.0517 -0.0453,0.0453 -0.26478,0.10975 -0.31006,0.15502 -0.003,0.003 -0.10055,0.15224 -0.10335,0.15505 -0.0244,0.0243 -0.079,-0.0243 -0.10336,0 -0.0122,0.0122 0.0122,0.0395 0,0.0517 -0.0244,0.0243 -0.079,-0.0243 -0.10335,0 -0.0258,0.0259 -0.0258,0.0775 -0.0517,0.10334 -0.0244,0.0243 -0.079,-0.0243 -0.10335,0 -0.0122,0.0122 0.0122,0.0395 0,0.0517 -0.0514,0.0514 -0.26599,-0.0813 -0.31006,-0.10334 -0.0429,-0.0214 -0.15771,0 -0.2067,0 -0.34226,0 -0.40604,-0.0241 -0.72348,-0.10335 -0.0801,-0.0201 -0.1836,-0.0143 -0.25838,-0.0517 -0.0754,-0.0377 -0.0827,-0.0827 -0.10335,-0.10337 -0.0196,-0.0196 -0.35483,-0.1355 -0.41341,-0.15502 -0.15344,-0.0511 -0.31382,-0.0529 -0.46509,-0.10335 -0.0878,-0.0293 -0.22324,0.0193 -0.31006,0 -0.10635,-0.0236 -0.20371,-0.0797 -0.31006,-0.10337 -0.14784,-0.0328 -0.31635,-0.022 -0.46508,-0.0517 -0.25815,-0.0516 -0.52074,-0.14309 -0.77515,-0.20669 -0.0501,-0.0124 -0.10881,0.023 -0.15503,0 -0.0602,-0.0301 -0.0948,-0.0733 -0.15503,-0.10335 -0.0413,-0.0206 -0.11369,0.0206 -0.15503,0 -0.0218,-0.0109 -0.028,-0.0458 -0.0517,-0.0517 -0.0623,-0.0156 -0.42042,-0.0293 -0.46509,-0.0517 -0.072,-0.036 -0.11421,-0.0849 -0.2067,-0.10335 -0.0507,-0.0101 -0.10601,0.0164 -0.15503,0 -0.0163,-0.006 0.0154,-0.044 0,-0.0517 -0.0189,-0.01 -0.18497,0.0217 -0.20671,0 -0.0122,-0.0122 0.0122,-0.0395 0,-0.0517 -0.0239,-0.0238 -0.12383,0.0156 -0.15503,0 -0.1086,-0.0543 -0.15667,-0.0267 -0.2067,-0.0517 -0.0218,-0.0109 -0.0286,-0.044 -0.0517,-0.0517 -0.0654,-0.0217 -0.14508,0.0308 -0.20671,0 -0.077,-0.0385 -0.1378,-0.10337 -0.2067,-0.15504 z"
     id="path111" />
  <path
     style="fill:none;fill-opacity:1;stroke:#aaaaaa;stroke-width:0.7;stroke-linecap:round;stroke-linejoin:round;stroke-dasharray:none;stroke-opacity:1"
     d="m 53.937396,310.27962 c 0.0394,-0.0996 0.25377,-0.14581 0.31005,-0.25836 0.008,-0.0153 -0.0122,-0.0395 0,-0.0517 0.0122,-0.0122 0.0395,0.0122 0.0517,0 0.0244,-0.0243 -0.0244,-0.079 0,-0.10335 0.0122,-0.0122 0.0395,0.0122 0.0517,0 0.0339,-0.0339 0.0258,-0.18081 0.0517,-0.20669 0.0122,-0.0122 0.0395,0.0122 0.0517,0 0.0393,-0.0393 0.0246,-0.20418 0.0517,-0.25839 0.0377,-0.0754 0.0827,-0.0827 0.10336,-0.10335 0.0244,-0.0243 -0.0244,-0.079 0,-0.10334 0.0122,-0.0122 0.0395,0.0122 0.0517,0 0.0259,-0.0259 0.0178,-0.17286 0.0517,-0.20672 0.0122,-0.0122 0.0395,0.0122 0.0517,0 0.0244,-0.0244 -0.0244,-0.079 0,-0.10335 0.0122,-0.0122 0.0395,0.0122 0.0517,0 0.0275,-0.0275 0.22423,-0.44847 0.25838,-0.51677 0.0154,-0.0308 -0.0154,-0.0725 0,-0.10335 0.0218,-0.0436 0.0816,-0.0598 0.10335,-0.10336 0.029,-0.058 0.0217,-0.14684 0.0517,-0.2067 0.0351,-0.0702 0.11991,-0.13647 0.15503,-0.20671 0.0207,-0.0413 -0.0207,-0.11369 0,-0.15503 0.0331,-0.0663 0.1321,-0.1379 0.15503,-0.2067 0.0109,-0.0327 -0.0109,-0.0707 0,-0.10335 0.0293,-0.0881 0.13267,-0.16895 0.15503,-0.25839 0.0125,-0.0501 -0.0125,-0.10489 0,-0.15503 0.0212,-0.0847 0.16391,-0.27614 0.20671,-0.36173 0.0154,-0.0308 -0.0154,-0.0725 0,-0.10335 0.0529,-0.10574 0.10152,-0.20306 0.15503,-0.31006 0.0475,-0.0951 0.0267,-0.21019 0.0517,-0.31006 0.006,-0.0236 0.044,-0.0286 0.0517,-0.0517 0.0163,-0.049 -0.0231,-0.10881 0,-0.15503 0.11825,-0.2365 -0.0214,0.21929 0.10335,-0.15503 0.0383,-0.11488 0.0215,-0.48662 0.10335,-0.56844 0.0122,-0.0122 0.0395,0.0122 0.0517,0 0.0755,-0.0756 -0.0497,-0.36564 0,-0.46509 0.0109,-0.0218 0.0408,-0.0299 0.0517,-0.0517 0.0156,-0.0312 -0.0239,-0.13114 0,-0.15503 0.0122,-0.0122 0.0395,0.0122 0.0517,0 0.0244,-0.0244 -0.0109,-0.0707 0,-0.10335 0.0428,-0.12854 0.0478,-0.25065 0.10335,-0.36173 0.0551,-0.11025 -0.0551,-0.30317 0,-0.41342 0.0236,-0.0473 0.11727,-0.0908 0.15503,-0.10335 0.15886,-0.053 0.2752,0.0688 0.41341,0.10335 0.0334,0.008 0.0725,-0.0154 0.10336,0 0.0154,0.008 -0.0122,0.0395 0,0.0517 0.0272,0.0272 0.0689,0.0345 0.10335,0.0517 0.0312,0.0156 0.13114,-0.0239 0.15503,0 0.0122,0.0122 -0.0122,0.0395 0,0.0517 0.0259,0.0258 0.12919,-0.0258 0.15503,0 0.0122,0.0122 -0.0122,0.0395 0,0.0517 0.0431,0.043 0.21532,-0.0431 0.25838,0 0.0122,0.0122 -0.0122,0.0395 0,0.0517 0.0244,0.0244 0.0725,-0.0154 0.10335,0 0.13491,0.0674 0.2795,0.0881 0.41342,0.15503 0.0689,0.0345 0.18948,-0.0344 0.25838,0 0.0602,0.0301 0.0948,0.0733 0.15503,0.10336 0.0549,0.0274 0.16064,0.006 0.2067,0.0517 0.0207,0.0207 0.028,0.0657 0.10336,0.10335 0.0308,0.0154 0.079,-0.0244 0.10335,0 0.0122,0.0122 -0.0122,0.0395 0,0.0517 0.0244,0.0244 0.0725,-0.0154 0.10335,0 0.0746,0.0373 0.1321,0.0661 0.20671,0.10335 0.0312,0.0156 0.13114,-0.0239 0.15503,0 0.0122,0.0122 -0.0122,0.0395 0,0.0517 0.0172,0.0172 0.19627,-0.004 0.2067,0 0.0231,0.008 0.0299,0.0408 0.0517,0.0517 0.0689,0.0344 0.18948,-0.0344 0.25838,0 0.10301,0.0515 0.20706,0.0519 0.31006,0.10336 0.0542,0.0271 0.21714,-0.0413 0.25838,0 0.0122,0.0122 -0.0154,0.044 0,0.0517 0.0189,0.009 0.18497,-0.0218 0.20671,0 0.0122,0.0122 -0.0154,0.044 0,0.0517 0.0189,0.01 0.18497,-0.0217 0.20671,0 0.0122,0.0122 -0.0122,0.0395 0,0.0517 0.0259,0.0258 0.12919,-0.0258 0.15503,0 0.0122,0.0122 -0.0122,0.0395 0,0.0517 0.0101,0.0101 0.2627,0.0398 0.31005,0.0517 0.34808,0.087 8e-4,7.9e-4 0.10336,0.10335 0.0239,0.0239 0.12383,-0.0156 0.15503,0 0.14267,0.0713 0.325,0.085 0.46509,0.15503 0.0914,0.0457 0.2623,0.002 0.36173,0.0517 0.24951,0.12476 0.52564,0.18531 0.77515,0.31006 0.0308,0.0154 0.0725,-0.0154 0.10335,0 0.14267,0.0713 0.32501,0.085 0.46509,0.15503 0.0308,0.0154 0.079,-0.0244 0.10335,0 0.0335,0.0335 -0.0517,0.10909 -0.0517,0.15503 0,0.0405 0.0258,0.2326 0,0.25838 -0.0122,0.0122 -0.0395,-0.0122 -0.0517,0 -0.0517,0.0517 0,0.20671 -0.0517,0.25838 -0.0122,0.0122 -0.0395,-0.0122 -0.0517,0 -0.0258,0.0258 0.0258,0.1292 0,0.15503 -0.0122,0.0122 -0.0395,-0.0122 -0.0517,0 -0.0358,0.0358 -0.0159,0.22258 -0.0517,0.25839 -0.0122,0.0122 -0.0395,-0.0122 -0.0517,0 -0.0258,0.0258 0.0259,0.12919 0,0.15503 -0.0122,0.0122 -0.0395,-0.0122 -0.0517,0 -0.0365,0.0365 0.0163,0.106 0,0.15502 -0.008,0.0231 -0.044,0.0286 -0.0517,0.0517 -0.0109,0.0327 0.007,0.0696 0,0.10336 -0.0291,0.14547 -0.10909,0.2756 -0.15503,0.41341 -0.0163,0.049 0.0163,0.106 0,0.15503 -0.008,0.0231 -0.0408,0.0299 -0.0517,0.0517 -0.0156,0.0312 0.0239,0.13114 0,0.15503 -0.0122,0.0122 -0.0395,-0.0122 -0.0517,0 -0.0258,0.0258 0.0259,0.12919 0,0.15503 -0.0122,0.0122 -0.0395,-0.0122 -0.0517,0 -0.0244,0.0244 0.0154,0.0725 0,0.10335 -0.0109,0.0218 -0.0408,0.0299 -0.0517,0.0517 -0.0217,0.0434 -0.0233,0.22997 -0.0517,0.25838 -0.0122,0.0122 -0.0395,-0.0122 -0.0517,0 -0.0365,0.0365 0.0125,0.1049 0,0.15503 -0.0285,0.11405 -0.0556,0.21449 -0.10335,0.31006 -0.0207,0.0413 0.0207,0.11369 0,0.15503 -0.0628,0.12552 -0.0223,0.19966 -0.0517,0.25837 -0.0109,0.0217 -0.044,0.0286 -0.0517,0.0517 -0.0109,0.0327 0.0154,0.0725 0,0.10335 -0.008,0.0153 -0.0395,-0.0122 -0.0517,0 -0.0244,0.0243 0.0154,0.0725 0,0.10334 -0.0203,0.0406 -0.0796,0.18296 -0.10335,0.20672 -0.0122,0.0122 -0.0395,-0.0122 -0.0517,0 -0.0122,0.0122 0.008,0.0362 0,0.0517 -0.0218,0.0436 -0.0816,0.0598 -0.10335,0.10335 -0.0154,0.0308 0.0244,0.079 0,0.10335 -0.0122,0.0122 -0.044,-0.0153 -0.0517,0 -0.0154,0.0308 0.0154,0.0726 0,0.10334 -0.008,0.0154 -0.0395,-0.0122 -0.0517,0 -0.0172,0.0172 -0.0345,0.13782 -0.0517,0.15505 -0.0122,0.0122 -0.0395,-0.0122 -0.0517,0 -0.0122,0.0122 0.0122,0.0395 0,0.0517 -0.0122,0.0122 -0.0395,-0.0122 -0.0517,0 -0.0122,0.0122 0.008,0.0363 0,0.0517 -0.031,0.062 -0.12403,0.093 -0.15503,0.15502 -0.0147,0.0293 -0.14371,0.24706 -0.15503,0.25839 -0.0122,0.0122 -0.0363,-0.008 -0.0517,0 -0.0938,0.0469 -0.18018,0.23185 -0.20671,0.25839 -0.0273,0.0273 -0.23108,0.12771 -0.25838,0.15502 -0.0122,0.0122 0.0122,0.0395 0,0.0517 -0.0122,0.0122 -0.0363,-0.008 -0.0517,0 -0.0637,0.0319 -0.22653,0.19468 -0.25838,0.25839 -0.008,0.0153 0.0122,0.0395 0,0.0517 -0.0453,0.0453 -0.26478,0.10975 -0.31006,0.15502 -0.003,0.003 -0.10055,0.15224 -0.10335,0.15505 -0.0244,0.0243 -0.079,-0.0243 -0.10336,0 -0.0122,0.0122 0.0122,0.0395 0,0.0517 -0.0244,0.0243 -0.079,-0.0243 -0.10335,0 -0.0258,0.0259 -0.0258,0.0775 -0.0517,0.10334 -0.0244,0.0243 -0.079,-0.0243 -0.10335,0 -0.0122,0.0122 0.0122,0.0395 0,0.0517 -0.0514,0.0514 -0.26599,-0.0813 -0.31006,-0.10334 -0.0429,-0.0214 -0.15772,0 -0.20671,0 -0.34226,0 -0.40604,-0.0241 -0.72347,-0.10335 -0.0801,-0.0201 -0.1836,-0.0143 -0.25838,-0.0517 -0.0754,-0.0377 -0.0827,-0.0827 -0.10335,-0.10337 -0.0196,-0.0196 -0.35484,-0.1355 -0.41341,-0.15502 -0.15344,-0.0511 -0.31382,-0.0529 -0.46509,-0.10335 -0.0878,-0.0293 -0.22324,0.0193 -0.31006,0 -0.10635,-0.0236 -0.20371,-0.0797 -0.31006,-0.10337 -0.14784,-0.0328 -0.31635,-0.022 -0.46509,-0.0517 -0.25814,-0.0516 -0.52074,-0.14309 -0.77514,-0.20669 -0.0501,-0.0124 -0.10881,0.023 -0.15503,0 -0.0602,-0.0301 -0.0948,-0.0733 -0.15503,-0.10335 -0.0413,-0.0206 -0.11369,0.0206 -0.15503,0 -0.0218,-0.0109 -0.028,-0.0458 -0.0517,-0.0517 -0.0623,-0.0156 -0.42042,-0.0293 -0.46509,-0.0517 -0.072,-0.036 -0.11422,-0.0848 -0.20671,-0.10335 -0.0507,-0.0101 -0.106,0.0164 -0.15502,0 -0.0163,-0.006 0.0154,-0.044 0,-0.0517 -0.0189,-0.01 -0.18497,0.0217 -0.20671,0 -0.0122,-0.0122 0.0122,-0.0395 0,-0.0517 -0.0239,-0.0238 -0.12383,0.0156 -0.15503,0 -0.1086,-0.0543 -0.15667,-0.0267 -0.2067,-0.0517 -0.0218,-0.0109 -0.0286,-0.044 -0.0517,-0.0517 -0.0654,-0.0217 -0.14508,0.0308 -0.20671,0 -0.077,-0.0385 -0.13781,-0.10337 -0.20671,-0.15504 z"
     id="path112" />
  <g
     id="g47"
     transform="matrix(0.59999291,0,0,0.59917242,160.81981,347.20411)"
     style="stroke-width:1.66783">
    <path
       style="fill:#fcf0e6;fill-opacity:1;stroke:none;stroke-width:2.00139;stroke-dasharray:none;stroke-opacity:1"
       d="m -157.0032,-165.17504 c 1.70381,-0.25242 13.25188,0.56794 13.25188,0.56794 l 12.1791,-0.37863 8.20355,-0.75725 0.44173,0.56794 0.44173,9.33942 2.52416,20.00402 0.63104,4.79592 1.57761,6.43663 -0.88346,0.82035 -2.65037,1.00967 -10.03357,1.13587 -8.45596,-0.12621 -12.62084,-0.25241 -10.15977,-1.19898 -7.69871,-1.64071 -0.31552,-0.44173 0.88346,-11.73738 0.37862,-6.49973 0.88346,-6.75215 0.37863,-5.42696 0.50483,-3.47073 0.37863,-4.48039 0.50483,-2.39796 z"
       id="path47" />
    <path
       style="fill:#717171;fill-opacity:1;stroke:#717171;stroke-width:0.667131;stroke-dasharray:none;stroke-opacity:1"
       d="m -139.92405,-121.08702 c -0.11618,-0.11618 -5.64012,-0.3562 -12.03498,-0.52293 -2.58444,-0.0674 -4.37908,-0.19416 -4.94448,-0.34928 -0.48814,-0.13394 -1.67876,-0.29175 -2.64583,-0.35071 -0.96706,-0.059 -2.03611,-0.21502 -2.37566,-0.3468 -0.33955,-0.13179 -1.2621,-0.27661 -2.05012,-0.32183 -0.78802,-0.0452 -1.61294,-0.17865 -1.83316,-0.2965 -0.22021,-0.11786 -0.93484,-0.28139 -1.58805,-0.36341 -0.65322,-0.082 -1.45548,-0.26676 -1.78282,-0.41052 -0.32733,-0.14377 -0.79439,-0.30266 -1.0379,-0.3531 -0.24352,-0.0504 -0.57699,-0.31896 -0.74106,-0.5967 -0.2736,-0.46317 -0.27616,-0.59157 -0.0309,-1.55066 0.14704,-0.57513 0.33447,-2.23631 0.41649,-3.69151 0.082,-1.45521 0.27295,-3.83646 0.42426,-5.29167 0.15131,-1.45521 0.27838,-3.59833 0.28237,-4.7625 0.005,-1.38438 0.10101,-2.42179 0.27827,-2.99861 0.15983,-0.52013 0.30904,-1.89504 0.36371,-3.35139 0.051,-1.3582 0.19959,-2.98538 0.33025,-3.61597 0.13066,-0.63059 0.28984,-2.09903 0.35373,-3.2632 0.0639,-1.16416 0.22896,-2.43417 0.36682,-2.82222 0.14351,-0.40395 0.32462,-2.02509 0.42368,-3.79236 0.0952,-1.69774 0.31768,-3.76149 0.49448,-4.58611 l 0.32145,-1.49931 3.16573,0.0601 c 1.74115,0.033 3.8801,0.17135 4.75323,0.30735 0.87793,0.13675 3.81493,0.29993 6.57089,0.36508 l 4.98339,0.11781 0.67911,-0.7139 c 0.74777,-0.78606 0.90758,-1.30853 0.90758,-2.96716 0,-0.92766 -0.0727,-1.1974 -0.44097,-1.63501 -0.89853,-1.06784 -0.36079,-1.65728 1.73686,-1.90382 1.24056,-0.1458 1.84227,0.0103 2.0839,0.54063 0.15738,0.34541 0.12388,0.53465 -0.18239,1.03019 -0.55589,0.89946 -0.5249,2.62723 0.0658,3.66858 0.24253,0.42757 0.56052,1.03397 0.70663,1.34757 0.15,0.32194 0.444,0.61493 0.67531,0.67299 0.2253,0.0566 3.49904,0.0203 7.27496,-0.0806 5.11133,-0.13658 7.11317,-0.25166 7.83546,-0.45041 1.3674,-0.37627 2.68347,-0.35185 3.19113,0.0592 0.38892,0.31493 0.40957,0.44891 0.44176,2.86632 0.0186,1.39477 0.15989,3.25032 0.31403,4.12344 0.15414,0.87313 0.28164,2.34936 0.28333,3.28052 0.002,1.00196 0.14595,2.36994 0.35309,3.35139 0.19251,0.91211 0.35126,2.15864 0.35278,2.77008 0.002,0.61144 0.11633,1.64331 0.25513,2.29306 0.13881,0.64974 0.30196,1.89572 0.36256,2.76884 0.0606,0.87313 0.2166,2.02407 0.34667,2.55764 0.13006,0.53358 0.28228,1.88295 0.33825,2.99861 0.056,1.11566 0.18857,2.30629 0.29466,2.64584 0.10608,0.33955 0.2576,1.38025 0.33671,2.31268 0.13515,1.59303 0.39816,3.04963 0.99972,5.53662 0.1408,0.58209 0.33009,1.39459 0.42064,1.80557 0.0906,0.41098 0.29277,0.995 0.44936,1.29782 0.15659,0.30282 0.23911,0.73231 0.18336,0.95443 -0.12752,0.50805 -1.06027,1.06765 -2.06157,1.23682 -0.42267,0.0714 -0.92898,0.2301 -1.12512,0.35265 -0.19615,0.12254 -0.93447,0.2763 -1.64071,0.34167 -0.70625,0.0654 -1.55989,0.2341 -1.89699,0.37495 -0.33761,0.14106 -1.74154,0.3357 -3.12564,0.43334 -1.38201,0.0975 -3.14774,0.24938 -3.92385,0.33753 -1.58587,0.18011 -8.79061,0.24359 -8.9553,0.0789 z m 15.55165,-1.58927 c 3.09771,-0.43078 5.2202,-1.0074 5.86881,-1.59437 0.39105,-0.3539 0.33367,-1.12826 -0.15342,-2.07018 -0.1484,-0.28697 -0.3392,-1.07433 -0.424,-1.74968 -0.0848,-0.67535 -0.24476,-1.33705 -0.35547,-1.47045 -0.11071,-0.1334 -0.25577,-1.01566 -0.32236,-1.96058 -0.0666,-0.94492 -0.21412,-1.88983 -0.32785,-2.09981 -0.11373,-0.20998 -0.25425,-1.20217 -0.31226,-2.20486 -0.058,-1.0027 -0.22068,-2.24273 -0.36147,-2.75563 -0.1408,-0.5129 -0.29777,-1.86227 -0.34884,-2.99861 -0.0511,-1.13634 -0.20299,-2.54232 -0.33761,-3.1244 -0.13461,-0.58209 -0.28728,-1.8124 -0.33925,-2.73403 -0.052,-0.92163 -0.21448,-2.06534 -0.36113,-2.54158 -0.14665,-0.47623 -0.26923,-1.38904 -0.27241,-2.02847 -0.006,-1.12611 -0.15638,-2.4146 -0.51766,-4.42338 -0.0957,-0.53225 -0.18305,-2.59481 -0.19405,-4.58345 -0.0113,-2.03505 -0.0973,-3.76004 -0.1967,-3.94586 -0.1403,-0.26215 -0.29137,-0.30504 -0.73368,-0.20828 -0.30635,0.067 -1.86669,0.19683 -3.46742,0.28848 -1.60072,0.0916 -3.62479,0.2368 -4.49791,0.32256 -0.87313,0.0858 -3.69094,0.16401 -6.26181,0.17389 -3.32931,0.0128 -4.79755,0.0807 -5.10262,0.23584 -0.39557,0.20122 -0.42508,0.30659 -0.38584,1.37775 0.0323,0.88048 -0.0247,1.21563 -0.23644,1.39136 -0.23346,0.19375 -0.33509,0.18068 -0.62332,-0.0802 -0.29226,-0.26449 -0.32863,-0.46252 -0.24023,-1.3082 0.0853,-0.81645 0.0486,-1.04262 -0.20312,-1.25154 -0.31381,-0.26044 -2.52366,-0.42348 -11.81746,-0.87187 -2.1343,-0.10297 -4.75368,-0.30307 -5.82083,-0.44467 -2.91553,-0.38687 -3.37357,-0.42028 -3.62564,-0.26449 -0.14649,0.0905 -0.27863,0.74471 -0.36119,1.78818 -0.0716,0.90499 -0.20849,1.96293 -0.3042,2.35098 -0.0957,0.38806 -0.23029,1.89538 -0.29909,3.3496 -0.0688,1.45423 -0.20295,2.84329 -0.29812,3.08681 -0.0952,0.24352 -0.24062,1.55746 -0.32325,2.91987 -0.0826,1.36241 -0.23626,2.83085 -0.34141,3.26319 -0.10516,0.43235 -0.26068,2.0164 -0.3456,3.52012 -0.0849,1.50371 -0.23651,2.94543 -0.33687,3.20381 -0.10036,0.25838 -0.26482,2.4015 -0.36546,4.7625 -0.10065,2.36099 -0.30012,5.24521 -0.44328,6.40938 -0.29436,2.39388 -0.42742,5.63974 -0.23892,5.82842 0.0689,0.069 0.4261,0.1884 0.79375,0.26538 0.36764,0.077 1.10501,0.2644 1.63859,0.41648 0.53357,0.15208 1.24795,0.27831 1.5875,0.28051 0.33955,0.002 0.97455,0.11177 1.41111,0.2435 0.43656,0.13172 1.50812,0.29797 2.38125,0.36944 0.87312,0.0715 1.72868,0.20498 1.90123,0.29668 0.17256,0.0917 1.28381,0.24474 2.46945,0.3401 1.18564,0.0954 2.55258,0.26466 3.03765,0.37622 1.10314,0.25372 12.73895,0.44639 21.16667,0.35049 5.30851,-0.0604 6.6036,-0.13005 9.24218,-0.49698 z"
       id="path41"
       sodipodi:nodetypes="sssssssssssssscsssssssccsscsssssssssssssscscssssssssssssssssssssssssssssssscssssssssssssssssssssssssssssscssssssss" />
  </g>
  <path
     style="fill:none;fill-opacity:1;stroke:#aaaaaa;stroke-width:0.7;stroke-linecap:round;stroke-linejoin:round;stroke-dasharray:none;stroke-opacity:1"
     d="m 64.033416,254.81066 c 0.2436,0.0487 0.48721,0.0975 0.73081,0.14617 0.57072,0.11414 1.95622,0.51723 2.63094,0.29232 0.93506,-0.31168 0.51119,-0.58469 1.75395,-0.43849 1.16312,0.13684 1.73839,0.47114 2.7771,0.73082 0.41111,0.10278 0.70903,-0.28144 1.02314,-0.43849 0.4406,-0.2203 1.31767,0.0838 1.75396,0.14616 0.44282,0.0633 1.35306,0.13363 1.75395,0 0.0462,-0.0154 -0.0345,-0.11171 0,-0.14616 0.0487,-0.0487 0.0974,0.0974 0.14616,0.14616 0.0387,0.0387 0.3783,0 0.43849,0"
     id="path103" />
  <path
     style="fill:none;fill-opacity:1;stroke:#aaaaaa;stroke-width:0.7;stroke-linecap:round;stroke-linejoin:round;stroke-dasharray:none;stroke-opacity:1"
     d="m 64.179586,260.07254 c 1.09318,0.24742 2.21216,0.42006 3.36175,0.29232 0.54138,-0.0602 1.06606,-0.2353 1.60779,-0.29232 0.9702,-0.10213 2.09354,0 3.06942,0 0.25738,0 0.63298,-0.0813 0.87698,0 0.0654,0.0218 0.0845,0.11535 0.14616,0.14616 0.31029,0.15515 0.7285,0.145 1.02315,0.29233 0.0616,0.0308 0.0808,0.12437 0.14616,0.14616 0.33868,0.11289 0.30729,-0.14616 0.58465,-0.14616"
     id="path104" />
  <path
     style="fill:none;fill-opacity:1;stroke:#aaaaaa;stroke-width:0.7;stroke-linecap:round;stroke-linejoin:round;stroke-dasharray:none;stroke-opacity:1"
     d="m 64.618076,265.3344 c 2.70386,0.24511 5.48377,-0.27014 8.18513,0 0.1084,0.0109 0.18549,0.1248 0.29232,0.14616 0.27935,0.0559 0.76071,0.0149 1.02314,0.14617 0.28486,0.14242 0.23171,0.29232 0.58466,0.29232"
     id="path105" />
  <path
     style="fill:none;fill-opacity:1;stroke:#aaaaaa;stroke-width:0.7;stroke-linecap:round;stroke-linejoin:round;stroke-dasharray:none;stroke-opacity:1"
     d="m 79.819006,260.43793 c 0.16855,0.0172 0.24661,-0.43237 0.36541,-0.51157 0.0641,-0.0427 0.16478,-0.0186 0.21925,-0.0731 0.0172,-0.0172 -0.0172,-0.0559 0,-0.0731 0.0344,-0.0344 0.10258,0.0218 0.14616,0 0.55851,-0.27925 0.86377,-0.29233 1.53471,-0.29233 0.0862,0 0.45316,-0.0584 0.51157,0 0.0172,0.0172 -0.0172,0.0559 0,0.0731 0.0611,0.0611 0.3694,0.004 0.43849,0.0731 0.0172,0.0172 -0.0172,0.0558 0,0.0731 0.0344,0.0344 0.11171,-0.0345 0.14616,0 0.0172,0.0172 -0.0172,0.0558 0,0.0731 0.0244,0.0244 0.19489,0.0487 0.21925,0.0731 0.0365,0.0365 0.0365,0.10962 0.0731,0.14616 0.0172,0.0172 0.0559,-0.0172 0.0731,0 0.0345,0.0345 -0.0218,0.10259 0,0.14617 0.0533,0.10658 0.11691,0.11691 0.14616,0.14616 0.0691,0.0691 0.012,0.37735 0.0731,0.43849 0.0172,0.0172 0.0558,-0.0172 0.0731,0 0.0463,0.0463 -0.0304,0.23148 0,0.29232 0.17405,0.34811 0.007,0.717 -0.14617,1.02314 -0.0221,0.0443 -0.0424,0.18863 -0.0731,0.21925 -0.063,0.063 -0.36666,0.14679 -0.51157,0.21924 -0.0436,0.0218 -0.10258,-0.0218 -0.14616,0 -0.1999,0.1 -0.38476,0.19238 -0.58465,0.29233 -0.0436,0.0218 -0.11172,-0.0345 -0.14617,0 -0.0172,0.0172 0.0172,0.0559 0,0.0731 -0.0366,0.0366 -0.24441,0.0252 -0.29232,0.0731 -0.0365,0.0365 -0.0365,0.10963 -0.0731,0.14616 -0.0172,0.0172 -0.0559,-0.0172 -0.0731,0 -0.19867,0.19868 0.0365,1.16948 -0.0731,1.38855 -0.0154,0.0308 -0.0577,0.0423 -0.0731,0.0731 -0.0497,0.0995 0.0872,0.21924 -0.0731,0.21924"
     id="path106" />
  <path
     style="fill:none;fill-opacity:1;stroke:#aaaaaa;stroke-width:0.7;stroke-linecap:round;stroke-linejoin:round;stroke-dasharray:none;stroke-opacity:1"
     d="m 81.353726,266.57678 0.29232,0.14616"
     id="path107"
     sodipodi:nodetypes="cc" />
  <path
     style="fill:#fcf0e6;fill-opacity:1;stroke:none;stroke-width:1.2;stroke-dasharray:none;stroke-opacity:1"
     d="m 64.997171,283.46273 c 0.322242,0 10.182826,-0.19873 10.182826,-0.19873 l -0.128896,5.29937 -0.257793,3.6433 -0.580034,4.30573 -0.708931,4.04077 -1.353414,4.50445 -1.611207,4.70318 -1.546758,1.32484 -3.544655,2.25223 -5.413656,2.45095 -2.900171,0.26497 -11.149552,-1.72229 -10.44062,-2.38471 -0.386689,-0.86115 2.062345,-3.11337 2.320138,-3.57707 1.675654,-4.23949 1.288966,-4.23949 0.773379,-3.31209 0.77338,-5.56433 0.257793,-5.23312 4.962516,0.7949 4.575827,0.13249 z"
     id="path46" />
  <path
     id="path40"
     style="fill:#717171;fill-opacity:1;stroke:#717171;stroke-width:0.4;stroke-dasharray:none;stroke-opacity:1"
     d="m 54.400732,279.93248 c -0.1813,0 -0.385982,0.0965 -0.553442,0.2896 -0.34183,0.39417 -0.746897,1.13919 -0.850874,1.565 -0.135014,0.55294 -0.694353,0.67013 -2.335427,0.48983 -0.758811,-0.0834 -1.427749,-0.18144 -1.486418,-0.21788 -0.05867,-0.0364 -0.90481,-0.11436 -1.880507,-0.17299 -0.975697,-0.0586 -1.976197,-0.17516 -2.223097,-0.25891 -0.373218,-0.1266 -0.501693,-0.11653 -0.762428,0.0591 -0.305125,0.20549 -0.313761,0.25639 -0.322809,1.87761 -0.0051,0.91647 -0.06145,1.99017 -0.125019,2.38623 -0.06357,0.39605 -0.174719,1.57453 -0.247052,2.61868 -0.07233,1.04415 -0.211462,2.13425 -0.309376,2.4223 -0.09791,0.28804 -0.216305,0.90401 -0.262726,1.36898 -0.04643,0.46497 -0.157488,1.02553 -0.247052,1.24586 -0.08956,0.22032 -0.204364,0.69444 -0.255262,1.0533 -0.0509,0.35886 -0.165204,0.77004 -0.25377,0.91406 -0.08856,0.14403 -0.198298,0.54573 -0.243694,0.89259 -0.04539,0.34685 -0.168877,0.75768 -0.274668,0.91291 -0.10579,0.15525 -0.192566,0.40261 -0.192566,0.54967 0,0.14707 -0.114395,0.48733 -0.254516,0.75603 -0.140121,0.26871 -0.254889,0.60888 -0.254889,0.75603 0,0.14715 -0.114769,0.49866 -0.254889,0.78096 -0.14012,0.2823 -0.254516,0.60423 -0.254516,0.71538 0,0.11114 -0.114769,0.42173 -0.254889,0.69044 -0.140121,0.26872 -0.254889,0.55119 -0.254889,0.62753 0,0.1782 -1.146095,2.59332 -1.271834,2.68005 -0.0522,0.036 -0.130818,0.18367 -0.174653,0.32834 -0.04384,0.14467 -0.280722,0.57679 -0.526572,0.96048 -0.24585,0.3837 -0.447083,0.74252 -0.447083,0.79708 0,0.0546 -0.114769,0.20567 -0.254889,0.33601 -0.140121,0.13033 -0.254516,0.29862 -0.254516,0.3736 0,0.26715 -0.702951,1.21184 -1.572998,2.11428 -0.686246,0.7118 -0.884246,1.00255 -0.886701,1.30187 -0.0019,0.2342 0.08641,0.43952 0.225034,0.52358 0.125463,0.0761 0.42428,0.27104 0.663906,0.43306 0.239626,0.16202 0.620028,0.29458 0.84565,0.29458 0.225623,0 0.624146,0.11758 0.885581,0.2616 0.261435,0.14402 0.662109,0.26318 0.89006,0.26467 0.22795,10e-4 0.664142,0.11954 0.969549,0.26198 0.305407,0.14244 0.747644,0.25892 0.982611,0.25892 0.234967,0 0.717807,0.11796 1.073296,0.26198 0.355489,0.14402 0.859439,0.26231 1.119572,0.26275 0.260132,4.4e-4 0.644798,0.095 0.854979,0.2102 0.214611,0.11768 0.895559,0.25134 1.553219,0.30456 0.644088,0.0521 1.253946,0.16545 1.355429,0.25201 0.101482,0.0866 0.757214,0.20831 1.456936,0.27081 0.699722,0.0625 1.37961,0.17073 1.510675,0.2405 0.131066,0.0698 0.806309,0.1684 1.500599,0.21902 0.69429,0.0506 1.468138,0.17108 1.719662,0.26774 0.251524,0.0967 1.001843,0.20871 1.667416,0.24894 0.665573,0.0402 1.467833,0.15875 1.783105,0.26352 v -3.9e-4 c 1.136479,0.37768 4.755798,0.0838 5.604949,-0.4553 0.10509,-0.0667 0.334254,-0.18023 0.509405,-0.25201 0.175151,-0.0718 0.404688,-0.1908 0.509779,-0.26429 0.105089,-0.0735 0.363039,-0.22146 0.57322,-0.3291 0.210181,-0.10765 0.468131,-0.24401 0.573221,-0.30265 0.764106,-0.42644 1.28184,-0.67471 1.406182,-0.67471 0.08016,0 0.291713,-0.11796 0.469847,-0.26198 0.178135,-0.14403 0.423511,-0.26199 0.545605,-0.26199 0.122094,0 0.28831,-0.0818 0.369085,-0.18181 0.08077,-0.10004 0.701698,-0.46814 1.380059,-0.81817 1.426203,-0.7359 2.835195,-2.05576 3.307588,-3.09854 0.154647,-0.34138 0.398196,-0.86972 0.541499,-1.17413 0.143305,-0.30441 0.260309,-0.64273 0.260114,-0.75181 -1.95e-4,-0.10908 0.114395,-0.41828 0.254516,-0.68699 0.14012,-0.26871 0.254889,-0.60888 0.254889,-0.75603 0,-0.14715 0.114395,-0.49865 0.254516,-0.78096 0.140121,-0.2823 0.254889,-0.66501 0.254889,-0.85077 0,-0.18577 0.114769,-0.56886 0.254889,-0.85116 0.140121,-0.28231 0.254517,-0.68615 0.254517,-0.89719 0,-0.21104 0.113694,-0.64043 0.252276,-0.95434 0.138583,-0.3139 0.253,-0.76507 0.254517,-1.00267 0.0015,-0.23761 0.08497,-0.59498 0.185102,-0.79401 0.100134,-0.19902 0.218975,-0.74094 0.264219,-1.20443 0.04524,-0.46349 0.159476,-1.13743 0.25377,-1.49749 0.09429,-0.36005 0.236716,-1.37757 0.316465,-2.26118 0.07975,-0.88361 0.194022,-1.76738 0.254143,-1.96392 0.06012,-0.19654 0.143869,-2.51577 0.185849,-5.15413 l 0.07613,-4.79701 -0.416854,-0.0503 c -0.22934,-0.0275 -1.190442,0.006 -2.13577,0.074 -2.106975,0.1523 -8.564644,0.14947 -11.603241,-0.004 -2.361609,-0.11974 -2.571351,-0.17945 -2.716455,-0.77368 -0.07199,-0.29478 -0.140203,-0.32226 -0.808703,-0.32374 -0.401513,-7.4e-4 -0.873142,-0.0868 -1.048293,-0.19064 -0.175151,-0.10385 -0.461885,-0.25402 -0.637036,-0.3337 -0.42652,-0.19405 -1.018666,-0.77955 -1.156145,-1.14307 -0.07303,-0.1931 -0.230702,-0.2896 -0.412002,-0.2896 z m -9.363725,2.41155 c 0.52282,-0.023 1.528686,0.099 2.524634,0.32335 0.315272,0.071 1.183357,0.13167 1.929022,0.13464 0.745665,0.003 2.173378,0.0945 3.172494,0.20291 1.699017,0.18429 1.858538,0.22562 2.46567,0.64019 0.803652,0.54876 1.059277,0.83738 1.115093,1.25775 0.05844,0.44013 0.619112,0.51256 1.080387,0.13963 0.187744,-0.15179 0.523132,-0.27081 0.763548,-0.27081 0.220519,0 0.524457,0.0965 0.721004,0.1611 0.03975,0.20601 0.198714,0.3366 0.599344,0.50287 0.749727,0.31114 0.857527,0.3076 0.962459,-0.0322 0.06892,-0.22318 -0.0051,-0.36341 -0.341843,-0.64748 -0.428206,-0.36129 -0.778602,-0.50775 -0.995299,-0.4461 -0.07039,-0.16342 -0.262353,-0.44228 -0.262353,-0.51553 0,-0.37532 0.42884,-0.4599 1.221453,-0.24127 0.994027,0.27418 11.294105,0.40876 12.947847,0.16916 0.579108,-0.0839 1.22511,-0.16194 1.435291,-0.17338 l 0.382147,-0.0207 0.03321,2.94587 c 0.01824,1.62023 -0.0216,3.59371 -0.08845,4.38582 -0.187726,2.22464 -0.387497,3.99418 -0.532169,4.71339 -0.07243,0.36006 -0.188113,1.12624 -0.256755,1.70232 -0.06864,0.57608 -0.18574,1.22393 -0.260487,1.43995 -0.07475,0.21604 -0.20851,0.7267 -0.297433,1.13463 -0.08892,0.40792 -0.19707,0.8007 -0.240335,0.87263 -0.04326,0.0719 -0.158238,0.53342 -0.255262,1.02569 -0.09702,0.49225 -0.233783,1.07164 -0.304151,1.28767 -0.07037,0.21603 -0.224198,0.68749 -0.341842,1.04754 -0.117643,0.36005 -0.274381,0.9199 -0.348187,1.24395 -0.07381,0.32404 -0.212862,0.70528 -0.309002,0.84732 -0.09614,0.14204 -0.175026,0.37128 -0.175026,0.50939 0,0.13811 -0.107813,0.49309 -0.239962,0.78902 -0.132148,0.29592 -0.302667,0.68532 -0.378788,0.86535 -0.673563,1.59296 -1.255181,2.32027 -2.247354,2.81085 -0.746631,0.36917 -3.469323,0.44915 -4.45403,0.1308 -0.796099,-0.25737 -1.087103,-0.14457 -1.087103,0.42155 0,0.42913 -0.471079,1.54442 -0.953502,2.25736 -0.287384,0.42469 -0.646749,0.71737 -1.343487,1.09396 -0.923846,0.49936 -0.993238,0.51552 -2.416035,0.55656 -1.646491,0.0475 -3.787455,-0.11589 -4.382377,-0.33409 -0.216944,-0.0796 -1.053542,-0.19901 -1.859236,-0.26581 -0.805693,-0.0668 -1.746319,-0.21066 -2.09024,-0.31953 -0.343921,-0.10886 -0.893794,-0.19792 -1.221827,-0.19792 -0.328031,0 -0.869036,-0.0842 -1.202046,-0.18719 -0.33301,-0.10301 -0.986901,-0.22902 -1.453204,-0.28001 -0.466303,-0.0509 -1.054607,-0.16731 -1.307287,-0.25853 -0.25268,-0.0912 -0.854562,-0.20786 -1.337515,-0.2593 -0.482953,-0.0514 -1.062118,-0.1712 -1.287134,-0.26582 -0.225017,-0.0946 -0.683717,-0.21296 -1.019184,-0.26313 -0.335465,-0.0502 -0.752974,-0.16373 -0.928125,-0.2524 -0.175151,-0.0887 -0.661416,-0.20116 -1.080387,-0.2497 -0.41897,-0.0486 -0.889864,-0.17458 -1.046426,-0.28002 -0.156562,-0.10543 -0.444145,-0.1938 -0.639275,-0.19677 -0.503964,-0.007 -1.748328,-0.58546 -1.797659,-0.83505 -0.02279,-0.11528 0.281822,-0.57654 0.676594,-1.02492 0.69836,-0.79318 1.441521,-1.85425 1.856996,-2.65166 0.11256,-0.21603 0.434504,-0.77588 0.715407,-1.24395 0.865695,-1.4425 2.270687,-4.62426 2.659356,-6.02255 0.05004,-0.18003 0.168939,-0.44368 0.264592,-0.58572 0.09565,-0.14204 0.173907,-0.36288 0.173907,-0.49059 0,-0.12772 0.115698,-0.60065 0.257129,-1.051 0.406318,-1.29382 0.737359,-2.47102 0.874385,-3.11005 0.06949,-0.32404 0.18404,-0.82472 0.254516,-1.11275 0.07048,-0.28805 0.183618,-0.81831 0.25153,-1.17835 0.06791,-0.36006 0.18169,-0.89032 0.25265,-1.17835 0.07096,-0.28805 0.191991,-1.11302 0.26907,-1.83312 0.07708,-0.7201 0.191714,-1.63306 0.25489,-2.02912 0.06318,-0.39605 0.119145,-1.69981 0.124272,-2.89716 0.0075,-1.7563 0.04606,-2.20822 0.198538,-2.33829 0.04867,-0.0415 0.169062,-0.0653 0.343335,-0.0729 z m 13.767374,2.27039 c -0.0027,0.0167 -0.0048,0.0341 -0.0064,0.0522 6e-4,-0.0177 0.0027,-0.0353 0.0064,-0.0522 z m 5.168689,27.43997 c 0.197395,-0.005 0.455844,0.0252 0.777356,0.0901 0.420628,0.0851 0.881108,0.12338 1.023289,0.0851 0.30809,-0.0828 0.32445,0.0125 0.06718,0.3901 -0.105178,0.15434 -0.359011,0.31885 -0.564264,0.36517 -0.205254,0.0463 -0.4416,0.16856 -0.525079,0.27195 -0.08348,0.10338 -0.246788,0.18795 -0.362742,0.18795 -0.115952,0 -0.323815,0.0804 -0.462009,0.17875 -0.789474,0.56165 -1.136125,0.30519 -0.704958,-0.52167 0.144546,-0.27719 0.262727,-0.60425 0.262727,-0.72649 0,-0.20616 0.159515,-0.31255 0.488506,-0.32105 z"
     sodipodi:nodetypes="cssssssccssscsssssssssssscsssssscssssssssccccssssscccssscssssssssssssssssssssscccccscsssccscsssssscssccsssccccsssssssssssscsssscssscssccscsssscscssssssssssssccsscccsccsssscssss" />
</svg>
