<?xml version="1.0" encoding="UTF-8"?>
<svg width="210mm" height="630mm" version="1.1" viewBox="0 0 210 630" xmlns="http://www.w3.org/2000/svg" xmlns:xlink="http://www.w3.org/1999/xlink">
   <defs>
   <linearGradient id="b" x1="-31.601" x2="258.21" y1="-59.064" y2="-59.064" gradientUnits="userSpaceOnUse">
      <stop stop-color="#f2d552" stop-opacity=".8453" offset="0"/>
      <stop stop-color="#f1d941" stop-opacity=".91765" offset=".4715"/>
      <stop stop-color="#f2e552" offset="1"/>
   </linearGradient>
   <linearGradient id="a" x1="-32.814" x2="257" y1="-53.781" y2="-53.781" gradientUnits="userSpaceOnUse">
      <stop stop-color="#f2d552" stop-opacity=".8453" offset="0"/>
      <stop stop-color="#f2e152" stop-opacity=".88843" offset=".26166"/>
      <stop stop-color="#f2d152" stop-opacity=".8902" offset=".70725"/>
   </linearGradient>
   </defs>
   <g transform="translate(0,333)" fill="none" stroke-linecap="round" stroke-linejoin="round">
      <path d="m-32.098-281.61c9.2696 2.6048 21.858 8.123 32.984 9.3989 19.979 6.7041 41.556 6.3521 61.991 12.04 16.27 4.194 28.448 6.0509 39.711 12.255 16.158 10.003 34.908 19.799 44.792 35.221 9.9674 16.807 15.018 37.184 9.3132 55.934-5.105 12.16-12.302 24.079-23.068 30.595-6.7496 4.3021-17.031 9.1823-25.743 13.737-10.461 4.944-18.431 12.156-24.939 20.244-4.4144 7.1092-8.6017 11.307-12.067 20.244-5.4335 16.594-14.786 31.914-20.916 48.44-8.7086 29.242-3.7582 32.387 1.2963 48.061 3.8017 17.121 9.6164 31.261 18.011 45.204 8.592 13.021 19.323 25.977 28.147 38.427 11.065 6.149 23.232 16.258 35.697 22.678 16.995 9.5114 34.855 15.479 53.609 21.316 21.674 10.479 46.999 11.666 70.794 16.629" stroke="#f1dd8b" stroke-opacity=".34254" stroke-width=".5"/>
      <path d="m-31.904-282.56c9.2696 2.6048 21.858 8.123 32.984 9.3989 19.979 6.7041 41.556 6.3521 61.991 12.04 16.27 4.194 28.448 6.0509 39.711 12.255 16.158 10.003 34.908 19.799 44.792 35.221 9.9674 16.807 15.018 37.184 9.3132 55.934-5.105 12.16-12.302 24.079-23.068 30.595-6.7496 4.3021-17.031 9.1823-25.743 13.737-10.461 4.944-18.431 12.156-24.939 20.244-4.4144 7.1092-8.6017 11.307-12.067 20.244-5.4335 16.594-14.786 31.914-20.916 48.44-8.7086 29.242-3.7582 32.387 1.2963 48.061 3.8017 17.121 9.6164 31.261 18.011 45.204 8.592 13.021 19.323 25.977 28.147 38.427 11.065 6.149 23.232 16.258 35.697 22.678 16.995 9.5114 34.855 15.479 53.609 21.316 21.674 10.479 46.999 11.666 70.794 16.629" stroke="#f1dd8b" stroke-opacity=".37937" stroke-width=".5"/>
      <path d="m-32.2-281.15c9.2696 2.6048 21.858 8.123 32.984 9.3989 19.979 6.7041 41.556 6.3521 61.991 12.04 16.27 4.194 28.448 6.0509 39.711 12.255 16.158 10.003 34.908 19.799 44.792 35.221 9.9674 16.807 15.018 37.184 9.3132 55.934-5.105 12.16-12.302 24.079-23.068 30.595-6.7496 4.3021-17.031 9.1823-25.743 13.737-10.461 4.944-18.431 12.156-24.939 20.244-4.4144 7.1092-8.6017 11.307-12.067 20.244-5.4335 16.594-14.786 31.914-20.916 48.44-8.7086 29.242-3.7582 32.387 1.2963 48.061 3.8017 17.121 9.6164 31.261 18.011 45.204 8.592 13.021 19.323 25.977 28.147 38.427 11.065 6.149 23.232 16.258 35.697 22.678 16.995 9.5114 34.855 15.479 53.609 21.316 21.674 10.479 46.999 11.666 70.794 16.629" stroke="#f1dd8b" stroke-opacity=".32965" stroke-width=".5"/>
      <path d="m-31.988-282.08c9.2696 2.6048 21.858 8.123 32.984 9.3989 19.979 6.7041 41.556 6.3521 61.991 12.04 16.27 4.194 28.448 6.0509 39.711 12.255 16.158 10.003 34.908 19.799 44.792 35.221 9.9674 16.807 15.018 37.184 9.3132 55.934-5.105 12.16-12.302 24.079-23.068 30.595-6.7496 4.3021-17.031 9.1823-25.743 13.737-10.461 4.944-18.431 12.156-24.939 20.244-4.4144 7.1092-8.6017 11.307-12.067 20.244-5.4335 16.594-14.786 31.914-20.916 48.44-8.7086 29.242-3.7582 32.387 1.2963 48.061 3.8017 17.121 9.6164 31.261 18.011 45.204 8.592 13.021 19.323 25.977 28.147 38.427 11.065 6.149 23.232 16.258 35.697 22.678 16.995 9.5114 34.855 15.479 53.609 21.316 21.674 10.479 46.999 11.666 70.794 16.629" stroke="#f1dd8b" stroke-opacity=".32965" stroke-width=".5"/>
      <path d="m-31.797-283.03c9.2696 2.6048 21.858 8.123 32.984 9.3989 19.979 6.7041 41.556 6.3521 61.991 12.04 16.27 4.194 28.448 6.0509 39.711 12.255 16.158 10.003 34.908 19.799 44.792 35.221 9.9674 16.807 15.018 37.184 9.3132 55.934-5.105 12.16-12.302 24.079-23.068 30.595-6.7496 4.3021-17.031 9.1823-25.743 13.737-10.461 4.944-18.431 12.156-24.939 20.244-4.4144 7.1092-8.6017 11.307-12.067 20.244-5.4335 16.594-14.786 31.914-20.916 48.44-8.7086 29.242-3.7582 32.387 1.2963 48.061 3.8017 17.121 9.6164 31.261 18.011 45.204 8.592 13.021 19.323 25.977 28.147 38.427 11.065 6.149 23.232 16.258 35.697 22.678 16.995 9.5114 34.855 15.479 53.609 21.316 21.674 10.479 46.999 11.666 70.794 16.629" stroke="#f1dd8b" stroke-opacity=".32965" stroke-width=".5"/>
      <path d="m-31.507-283.93c9.2696 2.6048 21.858 8.123 32.984 9.3989 19.979 6.7041 41.556 6.3521 61.991 12.04 16.27 4.194 28.448 6.0509 39.711 12.255 16.158 10.003 34.908 19.799 44.792 35.221 9.9674 16.807 15.018 37.184 9.3132 55.934-5.105 12.16-12.302 24.079-23.068 30.595-6.7496 4.3021-17.031 9.1823-25.743 13.737-10.461 4.944-18.431 12.156-24.939 20.244-4.4144 7.1092-8.6017 11.307-12.067 20.244-5.4335 16.594-14.786 31.914-20.916 48.44-8.7086 29.242-3.7582 32.387 1.2963 48.061 3.8017 17.121 9.6164 31.261 18.011 45.204 8.592 13.021 19.323 25.977 28.147 38.427 11.065 6.149 23.232 16.258 35.697 22.678 16.995 9.5114 34.855 15.479 53.609 21.316 21.674 10.479 46.999 11.666 70.794 16.629" stroke="#f1dd8b" stroke-opacity=".32965" stroke-width=".5"/>
      <path d="m-32.294-280.68c9.2696 2.6048 21.858 8.123 32.984 9.3989 19.979 6.7041 41.556 6.3521 61.991 12.04 16.27 4.194 28.448 6.0509 39.711 12.255 16.158 10.003 34.908 19.799 44.792 35.221 9.9674 16.807 15.018 37.184 9.3132 55.934-5.105 12.16-12.302 24.079-23.068 30.595-6.7496 4.3021-17.031 9.1823-25.743 13.737-10.461 4.944-18.431 12.156-24.939 20.244-4.4144 7.1092-8.6017 11.307-12.067 20.244-5.4335 16.594-14.786 31.914-20.916 48.44-8.7086 29.242-3.7582 32.387 1.2963 48.061 3.8017 17.121 9.6164 31.261 18.011 45.204 8.592 13.021 19.323 25.977 28.147 38.427 11.065 6.149 23.232 16.258 35.697 22.678 16.995 9.5114 34.855 15.479 53.609 21.316 21.674 10.479 46.999 11.666 70.794 16.629" stroke="#f1dd8b" stroke-opacity=".33886" stroke-width=".5"/>
      <path d="m-32.379-280.21c9.2696 2.6048 21.858 8.123 32.984 9.3989 19.979 6.7041 41.556 6.3521 61.991 12.04 16.27 4.194 28.448 6.0509 39.711 12.255 16.158 10.003 34.908 19.799 44.792 35.221 9.9674 16.807 15.018 37.184 9.3132 55.934-5.105 12.16-12.302 24.079-23.068 30.595-6.7496 4.3021-17.031 9.1823-25.743 13.737-10.461 4.944-18.431 12.156-24.939 20.244-4.4144 7.1092-8.6017 11.307-12.067 20.244-5.4335 16.594-14.786 31.914-20.916 48.44-8.7086 29.242-3.7582 32.387 1.2963 48.061 3.8017 17.121 9.6164 31.261 18.011 45.204 8.592 13.021 19.323 25.977 28.147 38.427 11.065 6.149 23.232 16.258 35.697 22.678 16.995 9.5114 34.855 15.479 53.609 21.316 21.674 10.479 46.999 11.666 70.794 16.629" stroke="#f1dd8b" stroke-opacity=".32965" stroke-width=".5"/>
      <path d="m-32.449-279.74c9.2696 2.6048 21.858 8.123 32.984 9.3989 19.979 6.7041 41.556 6.3521 61.991 12.04 16.27 4.194 28.448 6.0509 39.711 12.255 16.158 10.003 34.908 19.799 44.792 35.221 9.9674 16.807 15.018 37.184 9.3132 55.934-5.105 12.16-12.302 24.079-23.068 30.595-6.7496 4.3021-17.031 9.1823-25.743 13.737-10.461 4.944-18.431 12.156-24.939 20.244-4.4144 7.1092-8.6017 11.307-12.067 20.244-5.4335 16.594-14.786 31.914-20.916 48.44-8.7086 29.242-3.7582 32.387 1.2963 48.061 3.8017 17.121 9.6164 31.261 18.011 45.204 8.592 13.021 19.323 25.977 28.147 38.427 11.065 6.149 23.232 16.258 35.697 22.678 16.995 9.5114 34.855 15.479 53.609 21.316 21.674 10.479 46.999 11.666 70.794 16.629" stroke="#f1dd8b" stroke-opacity=".35727" stroke-width=".5"/>
      <path d="m-32.539-279.27c9.2696 2.6048 21.858 8.123 32.984 9.3989 19.979 6.7041 41.556 6.3521 61.991 12.04 16.27 4.194 28.448 6.0509 39.711 12.255 16.158 10.003 34.908 19.799 44.792 35.221 9.9674 16.807 15.018 37.184 9.3132 55.934-5.105 12.16-12.302 24.079-23.068 30.595-6.7496 4.3021-17.031 9.1823-25.743 13.737-10.461 4.944-18.431 12.156-24.939 20.244-4.4144 7.1092-8.6017 11.307-12.067 20.244-5.4335 16.594-14.786 31.914-20.916 48.44-8.7086 29.242-3.7582 32.387 1.2963 48.061 3.8017 17.121 9.6164 31.261 18.011 45.204 8.592 13.021 19.323 25.977 28.147 38.427 11.065 6.149 23.232 16.258 35.697 22.678 16.995 9.5114 34.855 15.479 53.609 21.316 21.674 10.479 46.999 11.666 70.794 16.629" stroke="#f1dd8b" stroke-opacity=".32965" stroke-width=".5"/>
      <path d="m-31.698-283.49c9.2696 2.6048 21.858 8.123 32.984 9.3989 19.979 6.7041 41.556 6.3521 61.991 12.04 16.27 4.194 28.448 6.0509 39.711 12.255 16.158 10.003 34.908 19.799 44.792 35.221 9.9674 16.807 15.018 37.184 9.3132 55.934-5.105 12.16-12.302 24.079-23.068 30.595-6.7496 4.3021-17.031 9.1823-25.743 13.737-10.461 4.944-18.431 12.156-24.939 20.244-4.4144 7.1092-8.6017 11.307-12.067 20.244-5.4335 16.594-14.786 31.914-20.916 48.44-8.7086 29.242-3.7582 32.387 1.2963 48.061 3.8017 17.121 9.6164 31.261 18.011 45.204 8.592 13.021 19.323 25.977 28.147 38.427 11.065 6.149 23.232 16.258 35.697 22.678 16.995 9.5114 34.855 15.479 53.609 21.316 21.674 10.479 46.999 11.666 70.794 16.629" stroke="#f1dd8b" stroke-opacity=".37201" stroke-width=".5"/>
      <path d="m-31.501-284.27c9.2696 2.6048 21.858 8.123 32.984 9.3989 19.979 6.7041 41.556 6.3521 61.991 12.04 16.27 4.194 28.448 6.0509 39.711 12.255 16.158 10.003 34.908 19.799 44.792 35.221 9.9674 16.807 15.018 37.184 9.3132 55.934-5.105 12.16-12.302 24.079-23.068 30.595-6.7496 4.3021-17.031 9.1823-25.743 13.737-10.461 4.944-18.431 12.156-24.939 20.244-4.4144 7.1092-8.6017 11.307-12.067 20.244-5.4335 16.594-14.786 31.914-20.916 48.44-8.7086 29.242-3.7582 32.387 1.2963 48.061 3.8017 17.121 9.6164 31.261 18.011 45.204 8.592 13.021 19.323 25.977 28.147 38.427 11.065 6.149 23.232 16.258 35.697 22.678 16.995 9.5114 34.855 15.479 53.609 21.316 21.674 10.479 46.999 11.666 70.794 16.629" stroke="url(#b)" stroke-opacity=".8453" stroke-width=".2"/>
      <path d="m-32.714-278.99c9.2696 2.6048 21.858 8.123 32.984 9.3989 19.979 6.7041 41.556 6.3521 61.991 12.04 16.27 4.194 28.448 6.0509 39.711 12.255 16.158 10.003 34.908 19.799 44.792 35.221 9.9674 16.807 15.018 37.184 9.3132 55.934-5.105 12.16-12.302 24.079-23.068 30.595-6.7496 4.3021-17.031 9.1823-25.743 13.737-10.461 4.944-18.431 12.156-24.939 20.244-4.4144 7.1092-8.6017 11.307-12.067 20.244-5.4335 16.594-14.786 31.914-20.916 48.44-8.7086 29.242-3.7582 32.387 1.2963 48.061 4.1489 16.975 9.6164 31.261 18.011 45.204 8.4781 11.736 10.642 14.715 28.129 38.209 6.207 3.7719 23.341 16.092 35.716 22.896 16.995 9.5114 34.855 15.479 53.609 21.316 21.674 10.479 46.999 11.666 70.794 16.629" stroke="url(#a)" stroke-opacity=".8453" stroke-width=".2"/>
   </g>
</svg>
