<?xml version="1.0" encoding="UTF-8"?>
<svg width="213.38mm" height="438.39mm" version="1.1" viewBox="0 0 213.38 438.39" xmlns="http://www.w3.org/2000/svg" xmlns:xlink="http://www.w3.org/1999/xlink">
<defs>
<linearGradient id="b" x1="-31.601" x2="258.21" y1="-59.064" y2="-59.064" gradientUnits="userSpaceOnUse">
<stop stop-color="#f2d552" stop-opacity=".8453" offset="0"/>
<stop stop-color="#f1d941" stop-opacity=".91765" offset=".4715"/>
<stop stop-color="#f2e552" offset="1"/>
</linearGradient>
<linearGradient id="a" x1="-32.814" x2="257" y1="-53.781" y2="-53.781" gradientUnits="userSpaceOnUse">
<stop stop-color="#f2d552" stop-opacity=".8453" offset="0"/>
<stop stop-color="#f2e152" stop-opacity=".88843" offset=".26166"/>
<stop stop-color="#f2d152" stop-opacity=".8902" offset=".70725"/>
</linearGradient>
</defs>
<g transform="translate(1.3473 275.19)" fill="none" stroke-linecap="round" stroke-linejoin="round">
<path d="m-0.63473-272.41c0.50941 0.0745 1.0163 0.141 1.5201 0.19878 19.979 6.7041 41.556 6.3521 61.991 12.04 16.27 4.194 28.448 6.0509 39.711 12.255 16.158 10.003 34.908 19.799 44.792 35.221 9.9674 16.807 15.018 37.184 9.3132 55.934-5.105 12.16-12.302 24.079-23.068 30.595-6.7496 4.3021-17.031 9.1823-25.743 13.737-10.461 4.944-18.431 12.156-24.939 20.244-4.4144 7.1092-8.6017 11.307-12.067 20.244-5.4335 16.594-14.786 31.914-20.916 48.44-8.7086 29.242-3.7582 32.387 1.2963 48.061 3.8017 17.121 9.6164 31.261 18.011 45.204 8.592 13.021 19.323 25.977 28.147 38.427 11.065 6.149 23.232 16.258 35.697 22.678 16.995 9.5114 34.855 15.479 53.609 21.316 7.7783 3.7609 16.027 6.3248 24.506 8.296" stroke="#f1dd8b" stroke-opacity=".34254" stroke-width=".5"/>
<path d="m-0.46788-273.36c0.51848 0.0761 1.0343 0.14392 1.5471 0.20272 19.979 6.7041 41.556 6.3521 61.991 12.04 16.27 4.194 28.448 6.0509 39.711 12.255 16.158 10.003 34.908 19.799 44.792 35.221 9.9674 16.807 15.018 37.184 9.3132 55.934-5.105 12.16-12.302 24.079-23.068 30.595-6.7496 4.3021-17.031 9.1823-25.743 13.737-10.461 4.944-18.431 12.156-24.939 20.244-4.4144 7.1092-8.6017 11.307-12.067 20.244-5.4335 16.594-14.786 31.914-20.916 48.44-8.7086 29.242-3.7582 32.387 1.2963 48.061 3.8017 17.121 9.6164 31.261 18.011 45.204 8.592 13.021 19.323 25.977 28.147 38.427 11.065 6.149 23.232 16.258 35.697 22.678 16.995 9.5114 34.855 15.479 53.609 21.316 7.7879 3.7655 16.047 6.3312 24.538 8.3033" stroke="#f1dd8b" stroke-opacity=".37937" stroke-width=".5"/>
<path d="m-0.70915-271.93c0.50327 0.0734 0.99491 0.12988 1.4928 0.18697 19.979 6.7041 41.556 6.3521 61.991 12.04 16.27 4.194 28.448 6.0509 39.711 12.255 16.158 10.003 34.908 19.799 44.792 35.221 9.9674 16.807 15.018 37.184 9.3132 55.934-5.105 12.16-12.302 24.079-23.068 30.595-6.7496 4.3021-17.031 9.1823-25.743 13.737-10.461 4.944-18.431 12.156-24.939 20.244-4.4144 7.1092-8.6017 11.307-12.067 20.244-5.4335 16.594-14.786 31.914-20.916 48.44-8.7086 29.242-3.7582 32.387 1.2963 48.061 3.8017 17.121 9.6164 31.261 18.011 45.204 8.592 13.021 19.323 25.977 28.147 38.427 11.065 6.149 23.232 16.258 35.697 22.678 16.995 9.5114 34.855 15.479 53.609 21.316 7.7761 3.7598 16.022 6.3234 24.499 8.2944" stroke="#f1dd8b" stroke-opacity=".32965" stroke-width=".5"/>
<path d="m-0.53423-272.88c0.5127 0.0751 1.0228 0.14206 1.5299 0.20021 19.979 6.7041 41.556 6.3521 61.991 12.04 16.27 4.194 28.448 6.0509 39.711 12.255 16.158 10.003 34.908 19.799 44.792 35.221 9.9674 16.807 15.018 37.184 9.3132 55.934-5.105 12.16-12.302 24.079-23.068 30.595-6.7496 4.3021-17.031 9.1823-25.743 13.737-10.461 4.944-18.431 12.156-24.939 20.244-4.4144 7.1092-8.6017 11.307-12.067 20.244-5.4335 16.594-14.786 31.914-20.916 48.44-8.7086 29.242-3.7582 32.387 1.2963 48.061 3.8017 17.121 9.6164 31.261 18.011 45.204 8.592 13.021 19.323 25.977 28.147 38.427 11.065 6.149 23.232 16.258 35.697 22.678 16.995 9.5114 34.855 15.479 53.609 21.316 7.7821 3.7627 16.035 6.3274 24.519 8.2989" stroke="#f1dd8b" stroke-opacity=".32965" stroke-width=".5"/>
<path d="m-0.33761-273.83c0.51078 0.0748 1.019 0.14144 1.5242 0.19937 19.979 6.7041 41.556 6.3521 61.991 12.04 16.27 4.194 28.448 6.0509 39.711 12.255 16.158 10.003 34.908 19.799 44.792 35.221 9.9674 16.807 15.018 37.184 9.3132 55.934-5.105 12.16-12.302 24.079-23.068 30.595-6.7496 4.3021-17.031 9.1823-25.743 13.737-10.461 4.944-18.431 12.156-24.939 20.244-4.4144 7.1092-8.6017 11.307-12.067 20.244-5.4335 16.594-14.786 31.914-20.916 48.44-8.7086 29.242-3.7582 32.387 1.2963 48.061 3.8017 17.121 9.6164 31.261 18.011 45.204 8.592 13.021 19.323 25.977 28.147 38.427 11.065 6.149 23.232 16.258 35.697 22.678 16.995 9.5114 34.855 15.479 53.609 21.316 7.7846 3.7639 16.04 6.329 24.527 8.3008" stroke="#f1dd8b" stroke-opacity=".32965" stroke-width=".5"/>
<path d="m-0.18809-274.75c0.55795 0.0832 1.1129 0.15683 1.6642 0.22006 19.979 6.7041 41.556 6.3521 61.991 12.04 16.27 4.194 28.448 6.0509 39.711 12.255 16.158 10.003 34.908 19.799 44.792 35.221 9.9674 16.807 15.018 37.184 9.3132 55.934-5.105 12.16-12.302 24.079-23.068 30.595-6.7496 4.3021-17.031 9.1823-25.743 13.737-10.461 4.944-18.431 12.156-24.939 20.244-4.4144 7.1092-8.6017 11.307-12.067 20.244-5.4335 16.594-14.786 31.914-20.916 48.44-8.7086 29.242-3.7582 32.387 1.2963 48.061 3.8017 17.121 9.6164 31.261 18.011 45.204 8.592 13.021 19.323 25.977 28.147 38.427 11.065 6.149 23.232 16.258 35.697 22.678 16.995 9.5114 34.855 15.479 53.609 21.316 7.7668 3.7553 16.002 6.3172 24.468 8.2872" stroke="#f1dd8b" stroke-opacity=".32965" stroke-width=".5"/>
<path d="m-0.81816-271.47c0.49586 0.0722 1.0167 0.13665 1.5073 0.19291 19.979 6.7041 41.556 6.3521 61.991 12.04 16.27 4.194 28.448 6.0509 39.711 12.255 16.158 10.003 34.908 19.799 44.792 35.221 9.9674 16.807 15.018 37.184 9.3132 55.934-5.105 12.16-12.302 24.079-23.068 30.595-6.7496 4.3021-17.031 9.1823-25.743 13.737-10.461 4.944-18.431 12.156-24.939 20.244-4.4144 7.1092-8.6017 11.307-12.067 20.244-5.4335 16.594-14.786 31.914-20.916 48.44-8.7086 29.242-3.7582 32.387 1.2963 48.061 3.8017 17.121 9.6164 31.261 18.011 45.204 8.592 13.021 19.323 25.977 28.147 38.427 11.065 6.149 23.232 16.258 35.697 22.678 16.995 9.5114 34.855 15.479 53.609 21.316 7.7743 3.759 16.018 6.3222 24.493 8.293" stroke="#f1dd8b" stroke-opacity=".33886" stroke-width=".5"/>
<path d="m-0.89262-271c0.48614 0.0704 1.0156 0.13355 1.4967 0.18871 19.979 6.7041 41.556 6.3521 61.991 12.04 16.27 4.194 28.448 6.0509 39.711 12.255 16.158 10.003 34.908 19.799 44.792 35.221 9.9674 16.807 15.018 37.184 9.3132 55.934-5.105 12.16-12.302 24.079-23.068 30.595-6.7496 4.3021-17.031 9.1823-25.743 13.737-10.461 4.944-18.431 12.156-24.939 20.244-4.4144 7.1092-8.6017 11.307-12.067 20.244-5.4335 16.594-14.786 31.914-20.916 48.44-8.7086 29.242-3.7582 32.387 1.2963 48.061 3.8017 17.121 9.6164 31.261 18.011 45.204 8.592 13.021 19.323 25.977 28.147 38.427 11.065 6.149 23.232 16.258 35.697 22.678 16.995 9.5114 34.855 15.479 53.609 21.316 7.7736 3.7586 16.017 6.3217 24.491 8.2924" stroke="#f1dd8b" stroke-opacity=".32965" stroke-width=".5"/>
<path d="m-0.98072-270.53c0.4861 0.0704 1.0338 0.13353 1.5148 0.18869 19.979 6.7041 41.556 6.3521 61.991 12.04 16.27 4.194 28.448 6.0509 39.711 12.255 16.158 10.003 34.908 19.799 44.792 35.221 9.9674 16.807 15.018 37.184 9.3132 55.934-5.105 12.16-12.302 24.079-23.068 30.595-6.7496 4.3021-17.031 9.1823-25.743 13.737-10.461 4.944-18.431 12.156-24.939 20.244-4.4144 7.1092-8.6017 11.307-12.067 20.244-5.4335 16.594-14.786 31.914-20.916 48.44-8.7086 29.242-3.7582 32.387 1.2963 48.061 3.8017 17.121 9.6164 31.261 18.011 45.204 8.592 13.021 19.323 25.977 28.147 38.427 11.065 6.149 23.232 16.258 35.697 22.678 16.995 9.5114 34.855 15.479 53.609 21.316 7.7622 3.7531 15.993 6.3142 24.454 8.2838" stroke="#f1dd8b" stroke-opacity=".35727" stroke-width=".5"/>
<path d="m-1.0045-270.06c0.012586 2e-3 0.025171 4e-3 0.037754 5e-3 6.0455e-4 8e-5 0.001209 1.7e-4 0.001814 2.6e-4 0.003501 5e-4 -0.11175-0.0173-0.10825-0.0163 0.46855 0.0674 1.0537 0.14624 1.5175 0.19943 19.979 6.7041 41.556 6.3521 61.991 12.04 16.27 4.194 28.448 6.0509 39.711 12.255 16.158 10.003 34.908 19.799 44.792 35.221 9.9674 16.807 15.018 37.184 9.3132 55.934-5.105 12.16-12.302 24.079-23.068 30.595-6.7496 4.3021-17.031 9.1823-25.743 13.737-10.461 4.944-18.431 12.156-24.939 20.244-4.4144 7.1092-8.6017 11.307-12.067 20.244-5.4335 16.594-14.786 31.914-20.916 48.44-8.7086 29.242-3.7582 32.387 1.2963 48.061 3.8017 17.121 9.6164 31.261 18.011 45.204 8.592 13.021 19.323 25.977 28.147 38.427 11.065 6.149 23.232 16.258 35.697 22.678 16.995 9.5114 34.855 15.479 53.609 21.316 7.7501 3.7472 15.967 6.3062 24.414 8.2745" stroke="#f1dd8b" stroke-opacity=".32965" stroke-width=".5"/>
<path d="m-0.26854-274.3c0.59162 0.0894 0.96979 0.14065 1.554 0.20765 19.979 6.7041 41.556 6.3521 61.991 12.04 16.27 4.194 28.448 6.0509 39.711 12.255 16.158 10.003 34.908 19.799 44.792 35.221 9.9674 16.807 15.018 37.184 9.3132 55.934-5.105 12.16-12.302 24.079-23.068 30.595-6.7496 4.3021-17.031 9.1823-25.743 13.737-10.461 4.944-18.431 12.156-24.939 20.244-4.4144 7.1092-8.6017 11.307-12.067 20.244-5.4335 16.594-14.786 31.914-20.916 48.44-8.7086 29.242-3.7582 32.387 1.2963 48.061 3.8017 17.121 9.6164 31.261 18.011 45.204 8.592 13.021 19.323 25.977 28.147 38.427 11.065 6.149 23.232 16.258 35.697 22.678 16.995 9.5114 34.855 15.479 53.609 21.316 7.7947 3.7688 16.062 6.3357 24.56 8.3085" stroke="#f1dd8b" stroke-opacity=".37201" stroke-width=".5"/>
<path d="m-0.21172-275.09c0.51559 0.0756 1.1839 0.15213 1.6938 0.2106 19.979 6.7041 41.556 6.3521 61.991 12.04 16.27 4.194 28.448 6.0509 39.711 12.255 16.158 10.003 34.908 19.799 44.792 35.221 9.9674 16.807 15.018 37.184 9.3132 55.934-5.105 12.16-12.302 24.079-23.068 30.595-6.7496 4.3021-17.031 9.1823-25.743 13.737-10.461 4.944-18.431 12.156-24.939 20.244-4.4144 7.1092-8.6017 11.307-12.067 20.244-5.4335 16.594-14.786 31.914-20.916 48.44-8.7086 29.242-3.7582 32.387 1.2963 48.061 3.8017 17.121 9.6164 31.261 18.011 45.204 8.592 13.021 19.323 25.977 28.147 38.427 11.065 6.149 23.232 16.258 35.697 22.678 16.995 9.5114 34.855 15.479 53.609 21.316 7.7835 3.7634 16.038 6.3283 24.523 8.3" stroke="url(#b)" stroke-opacity=".8453" stroke-width=".2"/>
<path d="m-1.2473-269.81c0.44057 0.0627 1.0801 0.1649 1.5165 0.21494 19.979 6.7041 41.556 6.3521 61.991 12.04 16.27 4.194 28.448 6.0509 39.711 12.255 16.158 10.003 34.908 19.799 44.792 35.221 9.9674 16.807 15.018 37.184 9.3132 55.934-5.105 12.16-12.302 24.079-23.068 30.595-6.7496 4.3021-17.031 9.1823-25.743 13.737-10.461 4.944-18.431 12.156-24.939 20.244-4.4144 7.1092-8.6017 11.307-12.067 20.244-5.4335 16.594-14.786 31.914-20.916 48.44-8.7086 29.242-3.7582 32.387 1.2963 48.061 4.1489 16.975 9.6164 31.261 18.011 45.204 8.4781 11.736 10.642 14.715 28.129 38.209 6.207 3.7719 23.341 16.092 35.716 22.896 16.995 9.5114 34.855 15.479 53.609 21.316 7.7831 3.7632 16.037 6.328 24.522 8.2997" stroke="url(#a)" stroke-opacity=".8453" stroke-width=".2"/>
</g>
</svg>
